<svg width="109" height="83" viewBox="0 0 109 83" fill="none" xmlns="http://www.w3.org/2000/svg">
<path d="M100.45 37.9672C105.142 32.4567 104.478 24.1862 98.9672 19.4947C93.4567 14.8032 85.1863 15.4672 80.4947 20.9777C75.8032 26.4883 76.4672 34.7587 81.9778 39.4502C87.4883 44.1418 95.7587 43.4778 100.45 37.9672Z" fill="white"/>
<path d="M76.2492 38.6581C76.2365 38.6581 76.2846 38.5188 76.2871 38.2656C76.2849 37.9098 76.1736 37.5633 75.9681 37.273C75.8312 37.0718 75.6502 36.9047 75.4389 36.7842C75.1972 36.6475 74.9209 36.5841 74.6437 36.6019C74.3215 36.6056 74.0082 36.7083 73.7462 36.896C73.4842 37.0837 73.2862 37.3473 73.179 37.6512C73.0718 37.9552 73.0605 38.2847 73.1468 38.5952C73.2331 38.9057 73.4127 39.1822 73.6613 39.3873C73.8647 39.5705 74.1157 39.6925 74.3855 39.7393C74.6258 39.7768 74.8714 39.7603 75.1046 39.6912C75.4472 39.5937 75.752 39.394 75.9782 39.1189C76.1352 38.9214 76.1833 38.7847 76.196 38.7897C76.1895 38.824 76.1784 38.8572 76.1631 38.8885C76.1477 38.928 76.1291 38.9661 76.1074 39.0024C76.0807 39.0528 76.0503 39.1011 76.0162 39.1468C75.798 39.4392 75.4932 39.6554 75.1451 39.7646C74.9 39.8431 74.6402 39.8647 74.3855 39.8279C74.0902 39.7836 73.8145 39.6532 73.5929 39.4532C73.353 39.2325 73.1779 38.9506 73.0865 38.6378C72.9764 38.2996 72.9764 37.9352 73.0865 37.5971C73.211 37.2642 73.4391 36.9802 73.7372 36.7868C74.0085 36.6017 74.3258 36.4956 74.6539 36.4804C74.9515 36.4638 75.2474 36.5351 75.5047 36.6855C75.7722 36.8493 75.9914 37.0812 76.14 37.3575C76.2886 37.6337 76.3612 37.9445 76.3504 38.258C76.3485 38.315 76.3417 38.3717 76.3302 38.4276C76.3246 38.47 76.3144 38.5116 76.2998 38.5517C76.2669 38.6277 76.2542 38.6606 76.2492 38.6581Z" fill="#263238"/>
<path d="M84.3187 41.3147C84.3187 41.3147 84.3871 41.3401 84.5187 41.3983L85.091 41.6515L85.5139 41.8389C85.6709 41.9022 85.8507 41.9554 86.0406 42.0212L86.6584 42.2263C86.7716 42.2662 86.8875 42.2975 87.0053 42.32L87.3776 42.4036C88.6162 42.6994 89.8927 42.8052 91.1632 42.7176C92.8469 42.6121 94.4943 42.1822 96.0148 41.4515L96.653 41.1425C96.8606 41.0235 97.0657 40.8893 97.2733 40.7678L97.5899 40.5753C97.6978 40.5138 97.8011 40.4444 97.8988 40.3677L98.504 39.9119C98.6053 39.8334 98.7091 39.76 98.8104 39.6789L99.094 39.4257L99.6739 38.894C99.8638 38.7066 100.033 38.4989 100.216 38.2989L100.484 37.9976C100.53 37.9444 100.578 37.8963 100.621 37.8431L100.74 37.676C101.083 37.2356 101.395 36.7719 101.674 36.2883C101.814 36.0351 101.971 35.7996 102.097 35.5287L102.459 34.7361C102.515 34.6019 102.586 34.4702 102.634 34.3335C102.682 34.1968 102.728 34.0524 102.776 33.9131C102.867 33.6295 102.973 33.351 103.054 33.0623C103.21 32.473 103.326 31.8741 103.404 31.2695C103.421 31.1151 103.442 30.9606 103.462 30.8087C103.462 30.7302 103.482 30.6542 103.49 30.5757V30.3428C103.49 30.0288 103.508 29.7148 103.518 29.4008C103.528 29.0868 103.477 28.7677 103.459 28.4487C103.444 28.2892 103.444 28.1271 103.416 27.9701L103.338 27.4941C103.233 26.8496 103.085 26.2127 102.897 25.5873C102.781 25.2784 102.667 24.9669 102.55 24.6555L102.462 24.4225C102.429 24.3466 102.391 24.2706 102.355 24.1972L102.135 23.7439L101.915 23.2906L101.662 22.8551L101.408 22.4221L101.274 22.2043C101.226 22.1334 101.173 22.0676 101.122 21.9992C100.917 21.7257 100.71 21.4523 100.504 21.1763L99.803 20.4166C97.826 18.3832 95.2399 17.0497 92.4369 16.6183L91.4088 16.4892L90.3655 16.4689H90.1123L89.8591 16.4866L89.3527 16.5221L88.8462 16.5575L88.3398 16.6411L87.8334 16.7221L87.5801 16.7652L87.3396 16.8285L86.3799 17.0817C85.7607 17.2889 85.1559 17.5367 84.5694 17.8236L84.1338 18.0363C83.987 18.1047 83.8578 18.1984 83.7186 18.2896C83.4476 18.4567 83.1691 18.6137 82.9083 18.796L82.1486 19.3632L81.9638 19.5025C81.903 19.5531 81.8473 19.6063 81.789 19.6595L81.4776 19.9431C81.0267 20.3551 80.6037 20.7967 80.2115 21.2649C80.0216 21.4978 79.8544 21.746 79.6772 21.984L79.424 22.3411C79.3404 22.4626 79.272 22.5943 79.1961 22.7184L78.758 23.478C78.6213 23.7312 78.5048 23.9971 78.3934 24.2529C78.1616 24.7609 77.9636 25.2836 77.8008 25.8177L77.735 26.0127C77.7173 26.0786 77.7046 26.1469 77.6869 26.2128L77.5957 26.6078C77.54 26.861 77.4666 27.1294 77.4261 27.3928C77.3856 27.6561 77.3577 27.9144 77.3248 28.1727C77.3096 28.3018 77.2919 28.4259 77.2767 28.5576C77.2615 28.6893 77.2767 28.8108 77.264 28.9425C77.264 29.1957 77.2488 29.4489 77.2412 29.7021C77.2311 29.826 77.2311 29.9505 77.2412 30.0744C77.2412 30.1984 77.2564 30.3276 77.2665 30.4415C77.2843 30.6947 77.2944 30.9277 77.3197 31.1657C77.345 31.4038 77.3957 31.6342 77.4337 31.8646C77.7182 33.5262 78.32 35.1176 79.2062 36.5517C79.3024 36.7087 79.3961 36.8682 79.4923 37.0176L79.8089 37.4405L80.1127 37.8482C80.1634 37.914 80.2089 37.9824 80.2621 38.0431L80.4242 38.2204L81.042 38.8965C81.2421 39.1041 81.4598 39.2789 81.6498 39.4586L81.9334 39.7119C82.0194 39.7957 82.1126 39.872 82.2119 39.9398L82.7361 40.3246C82.9007 40.4437 83.045 40.5576 83.1868 40.6513L83.5869 40.8868L84.1262 41.2084L84.306 41.3223L84.1186 41.2185L83.5742 40.9096L83.1716 40.6766C83.0273 40.5855 82.8804 40.4715 82.7158 40.355L82.1841 39.9727C82.0854 39.905 81.9923 39.8297 81.9055 39.7473L81.6194 39.4941C81.4244 39.3143 81.2066 39.1421 81.0041 38.9345L80.3938 38.2457C80.3406 38.1849 80.2849 38.1267 80.2292 38.0659C80.1735 38.0052 80.1279 37.9368 80.0773 37.871L79.7709 37.4633L79.4518 37.048C79.3556 36.8961 79.2619 36.7391 79.1631 36.5795C78.2625 35.1417 77.6486 33.5432 77.3552 31.8722C77.3147 31.6418 77.2767 31.4063 77.2362 31.1683C77.1956 30.9302 77.2007 30.6871 77.1805 30.4415C77.1805 30.3174 77.1627 30.1883 77.1551 30.0693C77.142 29.9448 77.1378 29.8196 77.1425 29.6945C77.1425 29.4413 77.1577 29.1881 77.1627 28.9349C77.1627 28.8083 77.1627 28.6817 77.1754 28.5474C77.1881 28.4132 77.2083 28.2942 77.2235 28.16C77.2564 27.9068 77.2893 27.6384 77.3248 27.3725C77.3602 27.1066 77.4387 26.8484 77.4944 26.5825L77.5856 26.1849C77.6008 26.1165 77.6135 26.0482 77.6337 25.9823L77.6995 25.7874C77.8607 25.2478 78.0587 24.7198 78.2921 24.2073C78.4162 23.9541 78.5225 23.6806 78.6592 23.4248L79.0998 22.6652C79.1758 22.5386 79.2442 22.412 79.3277 22.2854L79.581 21.9232C79.7582 21.6827 79.9279 21.432 80.1178 21.1965C80.5101 20.7244 80.9331 20.2786 81.3839 19.862L81.7283 19.5455C81.7865 19.4923 81.8422 19.4392 81.903 19.3885L82.0904 19.2467L82.85 18.6745C83.1032 18.4947 83.3944 18.3377 83.6679 18.168C83.8072 18.087 83.9389 17.9933 84.0857 17.9148L84.5238 17.7021C85.1148 17.4086 85.7247 17.1548 86.3495 16.9424L87.3193 16.6892L87.5725 16.6259L87.8258 16.5829L88.3322 16.4993L88.8386 16.4157L89.3451 16.3778L89.8515 16.3423L90.1047 16.3246H90.3579L91.3961 16.355L92.4343 16.4866C95.2652 16.9235 97.8758 18.2733 99.8688 20.3305L100.575 21.0902L101.198 21.9207C101.249 21.9891 101.302 22.0575 101.353 22.1284L101.487 22.3487L101.76 22.7994L102.014 23.2375L102.236 23.6958L102.457 24.1516L102.566 24.3795L102.654 24.6175C102.771 24.9315 102.887 25.2455 103.001 25.5569C103.191 26.187 103.339 26.8291 103.444 27.4789L103.525 27.96C103.553 28.1195 103.551 28.2841 103.566 28.4436C103.584 28.7652 103.619 29.0843 103.624 29.4033C103.629 29.7224 103.606 30.0389 103.596 30.3529V30.5909C103.596 30.6669 103.578 30.7454 103.568 30.8239C103.551 30.9783 103.53 31.1328 103.51 31.2873C103.432 31.897 103.313 32.501 103.156 33.0953C103.075 33.3865 102.966 33.6701 102.875 33.9537L102.73 34.3765C102.68 34.5158 102.611 34.6475 102.553 34.7842C102.428 35.0526 102.306 35.3185 102.188 35.5819C102.059 35.8351 101.9 36.0883 101.76 36.3415C101.477 36.828 101.162 37.2949 100.816 37.7393L100.694 37.9064C100.651 37.9596 100.603 38.0102 100.558 38.0609L100.284 38.3673C100.099 38.5673 99.9296 38.7775 99.7397 38.9623L99.1598 39.5118C99.0611 39.6004 98.9648 39.6865 98.8712 39.765C98.7775 39.8435 98.6635 39.922 98.5622 39.998L97.952 40.4563C97.8525 40.5331 97.7475 40.6024 97.638 40.664L97.3215 40.8564C97.1113 40.983 96.9062 41.1096 96.696 41.2337L96.0528 41.5376C94.5199 42.2657 92.8601 42.6888 91.1657 42.7834C89.89 42.8669 88.609 42.7542 87.3674 42.4491L86.9927 42.3605C86.8757 42.3368 86.7606 42.3047 86.6483 42.2643L86.0355 42.044C85.8431 41.9782 85.6658 41.9224 85.5063 41.8591L85.0859 41.6642L84.5162 41.4084L84.3187 41.3147Z" fill="#263238"/>
<path d="M88.5949 32.1681C88.4374 32.4416 88.2024 32.6622 87.9195 32.8021C87.6366 32.9419 87.3185 32.9947 87.0056 32.9538C86.6927 32.9129 86.3989 32.7801 86.1615 32.5722C85.9241 32.3643 85.7537 32.0906 85.6718 31.7858C85.5899 31.4811 85.6003 31.1588 85.7016 30.86C85.8029 30.5611 85.9906 30.2989 86.2409 30.1067C86.4912 29.9145 86.7929 29.8009 87.1078 29.7802C87.4227 29.7595 87.7367 29.8326 88.01 29.9904C88.1915 30.0948 88.3507 30.234 88.4784 30.4C88.6061 30.5661 88.6998 30.7556 88.7541 30.9579C88.8085 31.1602 88.8224 31.3712 88.7951 31.5788C88.7677 31.7865 88.6997 31.9867 88.5949 32.1681Z" fill="#CDCDCD"/>
<path d="M88.6601 31.5862C88.5081 31.6065 88.222 29.9353 88.3005 27.8766C88.379 25.8179 88.5056 24.1872 88.6499 24.1796C88.7943 24.172 88.9361 25.8508 88.8525 27.8918C88.7689 29.9327 88.8196 31.5685 88.6601 31.5862Z" fill="#CDCDCD"/>
<path d="M93.6868 25.3447C93.7399 25.4611 92.527 26.0182 90.9292 25.7954C90.2439 25.7137 89.594 25.4457 89.0503 25.0205C88.6376 24.6762 88.5439 24.3318 88.5945 24.3014C88.6452 24.271 88.8655 24.4812 89.2757 24.7015C89.8155 24.9858 90.4023 25.1702 91.0077 25.2459C92.4409 25.4535 93.6462 25.1725 93.6868 25.3447Z" fill="#CDCDCD"/>
<path d="M93.6309 33.3253C93.4732 33.5985 93.2379 33.8187 92.955 33.9582C92.6721 34.0977 92.3542 34.1501 92.0414 34.109C91.7287 34.0678 91.4352 33.9349 91.198 33.7269C90.9608 33.519 90.7905 33.2454 90.7088 32.9407C90.627 32.6361 90.6375 32.314 90.7387 32.0153C90.84 31.7165 91.0275 31.4545 91.2777 31.2623C91.5278 31.0701 91.8293 30.9564 92.1441 30.9356C92.4588 30.9147 92.7727 30.9876 93.046 31.1451C93.4124 31.357 93.6797 31.7055 93.7893 32.1142C93.899 32.523 93.842 32.9585 93.6309 33.3253Z" fill="#CDCDCD"/>
<path d="M93.6945 32.7468C93.5426 32.7671 93.259 31.0984 93.335 29.0372C93.4109 26.976 93.5426 25.3503 93.6844 25.3427C93.8262 25.3351 93.9705 27.014 93.8895 29.0524C93.8085 31.0908 93.8465 32.7291 93.6945 32.7468Z" fill="#CDCDCD"/>
<path d="M93.6946 26.4318C93.768 26.5559 92.6463 27.1636 91.1396 27.0066C89.633 26.8496 88.6505 26.0494 88.7467 25.9405C88.8429 25.8317 89.8406 26.333 91.1953 26.447C92.5501 26.5609 93.6313 26.2773 93.6946 26.4318Z" fill="#CDCDCD"/>
<path d="M64.8212 25.1092C69.8649 21.3292 70.8893 14.1761 67.1092 9.13242C63.3292 4.08872 56.1761 3.06432 51.1324 6.84435C46.0887 10.6244 45.0643 17.7774 48.8444 22.8211C52.6244 27.8648 59.7775 28.8892 64.8212 25.1092Z" fill="white"/>
<path d="M55.8476 29.9827C55.8476 29.9953 55.7261 29.9497 55.5058 29.9396C55.1956 29.9328 54.8907 30.0212 54.6322 30.1928C54.4548 30.308 54.3051 30.461 54.1941 30.641C54.0709 30.8482 54.0094 31.0863 54.0169 31.3273C54.0122 31.6069 54.0935 31.8813 54.2497 32.1133C54.4058 32.3453 54.6294 32.5239 54.8902 32.6249C55.151 32.7259 55.4365 32.7445 55.7083 32.6782C55.98 32.6119 56.2248 32.4638 56.4098 32.254C56.578 32.0806 56.6931 31.8627 56.7415 31.6261C56.779 31.4175 56.7712 31.2034 56.7187 30.9981C56.6422 30.6969 56.4751 30.4265 56.2401 30.2232C56.073 30.0814 55.954 30.0384 55.9616 30.0257C55.9909 30.0327 56.019 30.0437 56.0451 30.0586C56.0789 30.071 56.1112 30.0872 56.1414 30.1067C56.1853 30.1319 56.2276 30.1598 56.268 30.1903C56.5219 30.39 56.7048 30.6661 56.7896 30.9778C56.8525 31.1932 56.8655 31.4201 56.8276 31.6412C56.7815 31.8968 56.6608 32.1329 56.4807 32.3199C56.2841 32.5285 56.0333 32.6784 55.7565 32.7529C55.4597 32.8402 55.1427 32.8296 54.8525 32.7225C54.5669 32.605 54.3259 32.4003 54.1637 32.1376C54.0068 31.8966 53.9192 31.6172 53.9105 31.3298C53.9046 31.07 53.9741 30.8141 54.1105 30.5929C54.232 30.3999 54.3967 30.2377 54.5917 30.1194C54.8643 29.9456 55.1859 29.8647 55.5083 29.889C55.5585 29.8922 55.6085 29.899 55.6577 29.9092C55.6939 29.9154 55.7295 29.9247 55.7641 29.9371C55.7937 29.9488 55.8217 29.9641 55.8476 29.9827Z" fill="#263238"/>
<path d="M68.1394 21.6328C68.1394 21.6328 68.1622 21.572 68.2154 21.4606C68.2685 21.3492 68.3496 21.1846 68.4509 20.9694L68.6256 20.6047C68.6838 20.4705 68.7345 20.3161 68.7952 20.1515C68.856 19.9869 68.9218 19.8071 68.9902 19.6172C69.0281 19.52 69.0586 19.4202 69.0814 19.3184C69.1092 19.2146 69.1371 19.1082 69.1649 18.9968C69.4527 17.9243 69.5765 16.8145 69.5321 15.705C69.4844 14.2371 69.1552 12.792 68.5623 11.4484L68.3091 10.8862C68.2128 10.7014 68.1039 10.5216 68.0001 10.3367L67.8406 10.0582C67.7895 9.96239 67.732 9.87017 67.6684 9.78218L67.2861 9.24536L67.0885 8.97188C67.0151 8.88832 66.9417 8.80223 66.8657 8.71866L66.4175 8.21223C66.2605 8.04257 66.0833 7.89064 65.9111 7.72605L65.6579 7.47283C65.6123 7.43485 65.5718 7.3918 65.5262 7.35382L65.3844 7.24493C65.0092 6.93463 64.6133 6.65036 64.1993 6.39412C63.9866 6.26751 63.7815 6.12571 63.5612 6.00923L62.8801 5.68004C62.7636 5.62687 62.6522 5.56356 62.5331 5.51545L62.171 5.38124C61.9178 5.29515 61.6849 5.19639 61.4367 5.12803C60.9275 4.9782 60.409 4.86231 59.8845 4.78112L59.4844 4.71781L59.2843 4.68743H59.0792L58.2613 4.63931C57.9853 4.63931 57.7093 4.65957 57.4308 4.66717C57.2915 4.66717 57.1522 4.66717 57.013 4.68996L56.5952 4.7482C56.032 4.82261 55.4744 4.93513 54.9265 5.08498L54.106 5.36099L53.9009 5.43189L53.7009 5.52051L53.3033 5.68004L52.9007 5.85983L52.5183 6.0776L52.1335 6.2979L51.9385 6.40931L51.7562 6.53592L51.0269 7.04236L50.3432 7.63489C49.4433 8.47093 48.675 9.43818 48.0642 10.5039C47.4828 11.5843 47.0671 12.7461 46.8311 13.9502C46.7829 14.249 46.7374 14.5452 46.6918 14.8415L46.6386 15.7353V15.9582V16.181L46.6563 16.6241L46.6766 17.0647L46.745 17.5053L46.8057 17.9384L46.8361 18.1561L46.8842 18.3663C46.9526 18.6499 47.0184 18.931 47.0843 19.2095C47.2479 19.7543 47.4484 20.2873 47.6844 20.8048L47.8566 21.1871C47.9123 21.3163 47.9908 21.4404 48.0566 21.5543C48.1984 21.8075 48.3276 22.0405 48.4744 22.2735L48.948 22.9445L49.067 23.1091C49.1075 23.1623 49.1556 23.2129 49.1987 23.2635L49.4519 23.5699C49.8004 23.9707 50.1742 24.3488 50.5711 24.7018C50.7686 24.8715 50.9813 25.0234 51.1839 25.1855L51.4903 25.421C51.5941 25.4969 51.7055 25.5577 51.8119 25.6286L52.4576 26.0287C52.6728 26.1528 52.9032 26.254 53.1235 26.3655C53.5593 26.5811 54.0094 26.7664 54.4707 26.92L54.6378 26.9833L54.81 27.0289L55.1544 27.1175C55.3822 27.1732 55.6051 27.2441 55.8304 27.2872L56.5091 27.3935L56.8433 27.4467L57.1776 27.467L57.8359 27.5075C57.9438 27.5151 58.0521 27.5151 58.1601 27.5075H58.4791C58.6918 27.5075 58.9045 27.4948 59.1122 27.4796L59.7224 27.3961C61.1769 27.1887 62.5776 26.702 63.8473 25.9628C63.9866 25.8818 64.1284 25.8059 64.2601 25.7248L64.6374 25.4716C64.7589 25.383 64.8906 25.2994 64.9995 25.2184C65.0577 25.1753 65.1185 25.1374 65.1717 25.0918L65.3312 24.955L65.9339 24.4486C66.1212 24.2789 66.2782 24.0966 66.4403 23.9422L66.6707 23.6889C66.7459 23.6166 66.8145 23.5378 66.8758 23.4535C66.9999 23.2939 67.1164 23.1471 67.2227 23.0078C67.3291 22.8685 67.4354 22.7546 67.519 22.6229L67.7342 22.281L68.028 21.8202C68.0938 21.7164 68.1318 21.6657 68.1318 21.6657L68.0381 21.8253L67.7621 22.2583L67.5519 22.6026C67.4684 22.7242 67.3645 22.8559 67.2582 22.9901L66.9138 23.4433C66.8513 23.5275 66.7827 23.607 66.7087 23.6813L66.4808 23.9346C66.3213 24.0966 66.1643 24.284 65.9744 24.4562C65.7845 24.6284 65.5819 24.798 65.3717 24.9804L65.2122 25.1196C65.1565 25.1627 65.0957 25.2032 65.0375 25.2462L64.6754 25.4995L64.3006 25.7527C64.1664 25.8362 64.0246 25.9122 63.8853 26.0059C62.612 26.7524 61.206 27.2452 59.7452 27.4568L59.1299 27.5429C58.9197 27.5581 58.707 27.5632 58.4943 27.5733L58.1702 27.586C58.0614 27.5936 57.9523 27.5936 57.8435 27.586L57.1801 27.5505L56.8433 27.5303L56.5065 27.4771L55.8254 27.3707C55.595 27.3277 55.3721 27.2593 55.1417 27.2036L54.7948 27.1125C54.7391 27.0973 54.6783 27.0846 54.6226 27.0669L54.4529 27.0036C53.9871 26.8502 53.5327 26.6641 53.0932 26.4465C52.8729 26.3351 52.6399 26.2338 52.4221 26.1097L51.7714 25.7071C51.6625 25.6362 51.5511 25.5754 51.4447 25.4969L51.1383 25.2614C50.9332 25.0994 50.718 24.9449 50.5179 24.7753C50.1171 24.4204 49.7398 24.0398 49.3886 23.6358L49.1227 23.3268C49.0771 23.2737 49.0315 23.2256 48.9885 23.1698L48.8695 23.0027C48.7108 22.7799 48.5513 22.5545 48.3909 22.3266C48.2415 22.0937 48.1123 21.8455 47.9705 21.6024C47.9022 21.4809 47.8237 21.3619 47.7654 21.2327L47.5907 20.8453C47.3539 20.3229 47.151 19.7858 46.983 19.2374C46.9172 18.9563 46.8513 18.6727 46.7829 18.3891L46.7323 18.1738L46.7019 17.9561L46.6411 17.518L46.5804 17.0749L46.5626 16.6292L46.5449 16.181V15.9582L46.5576 15.7328C46.5728 15.434 46.5905 15.1327 46.6082 14.8314C46.626 14.53 46.7019 14.2312 46.7475 13.9299C46.9862 12.7151 47.4062 11.5431 47.9933 10.4532C48.6035 9.37883 49.3717 8.4023 50.2723 7.55639L50.9611 6.9588C51.2143 6.78408 51.4548 6.61189 51.6979 6.43717L51.8828 6.30802L52.0777 6.19914L52.4677 5.97631L52.8551 5.75601L53.2577 5.57622L53.6604 5.39391L53.8629 5.30528L54.0706 5.23438L54.8986 4.95331C55.4519 4.80416 56.0144 4.69165 56.5825 4.61652L57.0028 4.56082C57.1446 4.54056 57.2864 4.54562 57.4257 4.53549C57.7068 4.53549 57.9853 4.50764 58.2613 4.51017L59.0894 4.55828H59.2945C59.3628 4.55828 59.4287 4.57854 59.497 4.58867L59.9123 4.66717C60.4412 4.7509 60.9639 4.86932 61.4772 5.02167C61.7304 5.10017 61.9837 5.20146 62.2166 5.28755L62.5812 5.42429C62.7028 5.4724 62.8142 5.53571 62.9307 5.58888L63.6043 5.93326C63.8271 6.05481 64.0347 6.18648 64.2474 6.32575C64.6644 6.58392 65.0629 6.87075 65.4401 7.18416L65.5844 7.29304C65.63 7.33103 65.6705 7.37407 65.7136 7.41459L65.9668 7.66781C66.1364 7.83493 66.3137 7.98686 66.4732 8.15905L66.9265 8.68068L67.1493 8.9339L67.3443 9.20991L67.7317 9.73154C67.7971 9.81832 67.8547 9.91068 67.9039 10.0075C67.9596 10.1012 68.0128 10.1949 68.066 10.2886C68.1698 10.476 68.2787 10.6583 68.3774 10.8432C68.4762 11.028 68.5471 11.2255 68.6306 11.4104C69.2239 12.7643 69.5506 14.2198 69.5929 15.6974C69.632 16.808 69.5013 17.918 69.2054 18.9892C69.1751 19.1006 69.1472 19.207 69.1194 19.3133C69.0954 19.4151 69.0641 19.5149 69.0257 19.6121C68.9548 19.802 68.8889 19.9793 68.8256 20.1439C68.7623 20.3085 68.7117 20.4629 68.6509 20.5997L68.4711 20.9592L68.2179 21.448C68.1698 21.5746 68.1394 21.6328 68.1394 21.6328Z" fill="#263238"/>
<path d="M63.6884 14.7943C63.6618 13.9336 63.4048 13.0958 62.944 12.3683C62.4832 11.6408 61.8357 11.0503 61.0689 10.6585C60.3021 10.2666 59.4442 10.0877 58.5847 10.1405C57.7252 10.1933 56.8956 10.4758 56.1825 10.9585C55.4694 11.4412 54.8989 12.1065 54.5306 12.8849C54.1623 13.6633 54.0097 14.5262 54.0886 15.3837C54.1676 16.2412 54.4752 17.0618 54.9795 17.7599C55.4837 18.4579 56.1661 19.0078 56.9553 19.3522C56.9705 19.922 56.9882 20.5651 56.9882 20.5651L61.2018 20.4461C61.2018 20.4461 61.2018 19.765 61.2018 19.1572C61.9778 18.7295 62.6207 18.0958 63.0595 17.3259C63.4983 16.5561 63.7159 15.68 63.6884 14.7943Z" fill="#CDCDCD"/>
<path d="M59.6784 20.457C59.6784 20.457 59.6784 20.4367 59.6784 20.3962C59.6784 20.3557 59.6784 20.2974 59.6936 20.224C59.7087 20.0695 59.729 19.8442 59.7645 19.5555C59.7999 19.2668 59.8455 18.9123 59.924 18.5047C60.0129 18.0428 60.1469 17.5907 60.3241 17.155C60.4267 16.9011 60.5521 16.657 60.6988 16.4257C60.7785 16.2981 60.8891 16.1927 61.0204 16.1193C61.0907 16.0825 61.1689 16.0633 61.2483 16.0633C61.3277 16.0633 61.4059 16.0825 61.4762 16.1193C61.5507 16.1598 61.607 16.227 61.6338 16.3074C61.6606 16.3878 61.6559 16.4753 61.6205 16.5523C61.5451 16.7039 61.4161 16.8221 61.2584 16.8841C61.093 16.9438 60.9173 16.9698 60.7416 16.9606C60.5659 16.9514 60.3939 16.9071 60.2356 16.8304C60.0773 16.7538 59.9359 16.6462 59.8197 16.5141C59.7036 16.3819 59.6151 16.2279 59.5593 16.0611C59.4927 15.8841 59.4769 15.692 59.5138 15.5065C59.5342 15.4083 59.5879 15.3201 59.6659 15.2568C59.7439 15.1936 59.8413 15.1593 59.9417 15.1596C59.9942 15.1631 60.0449 15.1798 60.0892 15.2081C60.1334 15.2364 60.1698 15.2755 60.1949 15.3217C60.2456 15.4116 60.2626 15.5166 60.243 15.618C60.1884 15.8112 60.073 15.9817 59.9139 16.1041C59.7643 16.2387 59.5879 16.3401 59.3963 16.4017C59.2047 16.4632 59.0022 16.4835 58.8022 16.4612C58.6035 16.4352 58.4139 16.3624 58.2488 16.2488C58.0837 16.1353 57.9479 15.9841 57.8527 15.8079C57.8051 15.7193 57.7762 15.6219 57.7679 15.5217C57.7597 15.4215 57.7721 15.3206 57.8045 15.2255C57.8217 15.1769 57.8488 15.1324 57.8841 15.0949C57.9194 15.0574 57.9622 15.0277 58.0096 15.0077C58.0576 14.9896 58.1089 14.9821 58.16 14.9856C58.2111 14.9891 58.2609 15.0035 58.3059 15.028C58.3958 15.0716 58.4688 15.1437 58.5136 15.2331C58.5588 15.3178 58.5864 15.4108 58.5946 15.5065C58.6132 15.6924 58.5942 15.8801 58.5389 16.0586C58.4357 16.3981 58.2104 16.6872 57.9063 16.8701C57.6023 17.053 57.2412 17.1166 56.893 17.0486C56.726 17.0269 56.571 16.9503 56.4524 16.8309C56.3948 16.7692 56.3597 16.6899 56.3528 16.6058C56.3459 16.5217 56.3676 16.4377 56.4144 16.3675C56.4677 16.3036 56.5442 16.2636 56.6271 16.2561C56.7058 16.2494 56.785 16.2625 56.8575 16.2941C56.9903 16.3664 57.0967 16.479 57.1614 16.6156C57.288 16.8689 57.3918 17.1221 57.4981 17.3753C57.9084 18.335 58.2046 19.125 58.4021 19.672C58.5009 19.948 58.5743 20.1607 58.625 20.3076L58.6781 20.4722C58.6781 20.5101 58.6959 20.5304 58.6959 20.5304L58.6731 20.4747C58.6731 20.4342 58.6402 20.381 58.6123 20.3101L58.3945 19.6568C58.1894 19.1098 57.8881 18.3223 57.4728 17.3778C57.3665 17.1398 57.2601 16.8866 57.1335 16.6359C57.0745 16.498 56.9699 16.3845 56.8372 16.3143C56.7759 16.2721 56.7007 16.2551 56.6271 16.2671C56.5536 16.279 56.4876 16.3189 56.4428 16.3784C56.398 16.4379 56.378 16.5124 56.3868 16.5863C56.3957 16.6603 56.4328 16.7279 56.4903 16.7752C56.6026 16.8848 56.7475 16.955 56.9031 16.9752C57.2296 17.0356 57.567 16.9782 57.8552 16.8132C58.1593 16.6391 58.3843 16.3542 58.4832 16.018C58.5372 15.8481 58.5561 15.6689 58.5389 15.4914C58.5369 15.4033 58.5126 15.3171 58.4683 15.241C58.4241 15.1648 58.3612 15.1011 58.2857 15.0558C58.2471 15.0352 58.2046 15.023 58.1609 15.02C58.1173 15.0169 58.0735 15.0231 58.0324 15.0381C57.9923 15.0557 57.9563 15.0815 57.9267 15.1137C57.897 15.146 57.8744 15.184 57.8602 15.2255C57.8311 15.3131 57.8203 15.4057 57.8286 15.4976C57.8369 15.5896 57.864 15.6788 57.9084 15.7598C57.9972 15.93 58.1258 16.0764 58.2831 16.1866C58.4404 16.2968 58.622 16.3675 58.8124 16.3928C59.0029 16.4143 59.1959 16.3959 59.379 16.3388C59.5621 16.2817 59.7313 16.1871 59.8759 16.0611C60.0222 15.9456 60.1285 15.787 60.1797 15.6078C60.1974 15.5216 60.184 15.4319 60.1417 15.3546C60.1217 15.3167 60.0924 15.2845 60.0565 15.261C60.0206 15.2376 59.9794 15.2236 59.9366 15.2204C59.8504 15.2175 59.7663 15.2474 59.7011 15.304C59.6358 15.3622 59.5898 15.4391 59.5695 15.5243C59.5344 15.6987 59.5493 15.8796 59.6125 16.0459C59.6655 16.2062 59.75 16.3543 59.861 16.4815C59.9721 16.6087 60.1074 16.7123 60.2591 16.7864C60.4108 16.8605 60.5758 16.9035 60.7444 16.9129C60.913 16.9223 61.0817 16.8978 61.2407 16.841C61.3863 16.7842 61.5061 16.6761 61.5775 16.5371C61.6082 16.4716 61.6127 16.3969 61.5901 16.3282C61.5675 16.2594 61.5195 16.2019 61.456 16.1674C61.392 16.135 61.3213 16.118 61.2496 16.118C61.1779 16.118 61.1072 16.135 61.0432 16.1674C60.9189 16.2361 60.8143 16.3355 60.7393 16.4561C60.5932 16.6842 60.4678 16.9249 60.3646 17.1753C60.1865 17.6085 60.0508 18.0579 59.9594 18.5173C59.8759 18.9225 59.8278 19.277 59.7898 19.5631C59.7518 19.8492 59.7265 20.0695 59.7087 20.2291C59.7087 20.3025 59.6936 20.3607 59.6885 20.4038C59.6859 20.4217 59.6826 20.4394 59.6784 20.457Z" fill="#263238"/>
<path d="M60.8991 21.2203L57.2806 21.3241C57.2448 21.3251 57.2092 21.319 57.1758 21.3062C57.1423 21.2933 57.1118 21.274 57.0859 21.2493C57.06 21.2245 57.0393 21.1949 57.0249 21.1621C57.0105 21.1294 57.0027 21.094 57.0021 21.0582C57 20.988 57.0252 20.9198 57.0724 20.8678C57.1197 20.8158 57.1852 20.7843 57.2553 20.7797L60.8738 20.6784C60.944 20.6763 61.0123 20.7015 61.0642 20.7487C61.1162 20.796 61.1478 20.8616 61.1523 20.9316C61.1547 20.9672 61.1501 21.0029 61.1387 21.0367C61.1272 21.0705 61.1092 21.1017 61.0857 21.1286C61.0622 21.1554 61.0336 21.1773 61.0015 21.193C60.9695 21.2088 60.9347 21.218 60.8991 21.2203Z" fill="#263238"/>
<path d="M60.905 21.4586L57.2891 21.5599C57.2511 21.5575 57.2131 21.563 57.1774 21.5761C57.1417 21.5892 57.1091 21.6096 57.0817 21.636C57.0543 21.6624 57.0327 21.6942 57.0184 21.7294C57.004 21.7646 56.9971 21.8024 56.9982 21.8404C56.9992 21.8785 57.0082 21.9158 57.0245 21.9502C57.0408 21.9846 57.0642 22.0151 57.093 22.04C57.1218 22.0648 57.1554 22.0833 57.1918 22.0944C57.2282 22.1055 57.2665 22.1089 57.3043 22.1043L57.6993 22.0917L58.2564 23.0792C58.2873 23.135 58.3329 23.1812 58.3883 23.2129C58.4436 23.2446 58.5066 23.2605 58.5704 23.259L59.8618 23.221C59.9261 23.2198 59.9889 23.2006 60.043 23.1658C60.0971 23.1309 60.1405 23.0816 60.1682 23.0235L60.6518 22.0106H60.9202C60.9905 22.0054 61.0561 21.9733 61.1033 21.9209C61.1505 21.8686 61.1756 21.8 61.1735 21.7296C61.1735 21.6581 61.1453 21.5896 61.095 21.5389C61.0447 21.4881 60.9765 21.4593 60.905 21.4586Z" fill="#263238"/>
<g opacity="0.2">
<path d="M55.7039 11.9557C55.9793 11.6825 56.2986 11.4574 56.6484 11.2898C56.8799 11.1742 57.1274 11.0939 57.3827 11.0517C57.565 11.0289 57.6689 11.0517 57.679 11.0821C57.7018 11.1682 57.3397 11.3075 56.8586 11.6493C56.2292 12.0736 55.7352 12.6699 55.4353 13.3671C55.1354 14.0644 55.0423 14.8332 55.1671 15.5818C55.2481 16.1668 55.395 16.5238 55.3165 16.5668C55.281 16.5871 55.2 16.5213 55.0936 16.3719C54.9465 16.1587 54.8337 15.9237 54.7594 15.6755C54.6425 15.3089 54.586 14.9258 54.5923 14.5411C54.6003 14.0605 54.7009 13.5859 54.8885 13.1433" fill="white"/>
</g>
<g opacity="0.2">
<path d="M58.8394 11.2503C58.5355 11.2503 58.2646 11.1794 58.2291 11.0198C58.2139 10.9388 58.2671 10.8527 58.376 10.7818C58.5128 10.7018 58.6682 10.659 58.8267 10.6577C58.9859 10.6525 59.1437 10.6882 59.285 10.7615C59.3939 10.8274 59.4522 10.9109 59.442 10.992" fill="white"/>
</g>
<path d="M60.1049 23.1104C60.019 23.0936 59.9344 23.0707 59.8517 23.0421C59.6508 22.9911 59.4434 22.9706 59.2364 22.9813C59.0291 22.9939 58.825 23.0383 58.6312 23.113C58.4818 23.1687 58.3957 23.2168 58.3906 23.2092C58.4557 23.1501 58.5313 23.1038 58.6135 23.0724C59.0072 22.898 59.4509 22.8728 59.8618 23.0015C59.9486 23.0232 60.0309 23.0601 60.1049 23.1104Z" fill="#455A64"/>
<path d="M60.6702 22.0211C60.6702 22.0389 60.0169 22.0692 59.2091 22.092C58.4013 22.1148 57.748 22.1199 57.748 22.1047C57.748 22.0895 58.4013 22.0566 59.2091 22.0338C60.0169 22.011 60.6702 22.0059 60.6702 22.0211Z" fill="#455A64"/>
<path d="M60.4444 22.4564C60.3279 22.4829 60.2092 22.4981 60.0898 22.5019C59.8695 22.5222 59.5657 22.545 59.2289 22.5576C58.8921 22.5703 58.5857 22.5779 58.3654 22.5754C58.2454 22.5811 58.125 22.576 58.0059 22.5602C58.124 22.5419 58.2434 22.5334 58.3629 22.5349L59.2264 22.4994L60.0873 22.4614C60.206 22.4504 60.3254 22.4487 60.4444 22.4564Z" fill="#455A64"/>
<path d="M25.8632 36.2623C32.6124 32.4949 35.0297 23.9696 31.2623 17.2204C27.495 10.4713 18.9696 8.05402 12.2205 11.8214C5.47129 15.5887 3.05404 24.114 6.82139 30.8632C10.5887 37.6124 19.1141 40.0296 25.8632 36.2623Z" fill="white"/>
<path d="M27.3189 37.6783C27.3189 37.6783 27.1999 37.7745 27.0378 37.9897C26.8153 38.2984 26.6925 38.6677 26.6858 39.0482C26.6774 39.3092 26.7276 39.5688 26.8327 39.8078C26.9543 40.0782 27.1524 40.307 27.4024 40.4662C27.6816 40.6658 28.0154 40.7749 28.3585 40.7787C28.7017 40.7826 29.0378 40.681 29.3214 40.4877C29.605 40.2944 29.8224 40.0187 29.9443 39.6979C30.0662 39.377 30.0867 39.0265 30.003 38.6937C29.9458 38.4029 29.806 38.1348 29.6004 37.9214C29.4171 37.7367 29.1947 37.5957 28.9496 37.5086C28.593 37.3751 28.204 37.3547 27.8354 37.4504C27.5822 37.5213 27.448 37.6074 27.4429 37.5947C27.4693 37.5694 27.4991 37.5481 27.5316 37.5314C27.5692 37.5067 27.609 37.4855 27.6506 37.4681C27.7061 37.4408 27.7636 37.4179 27.8228 37.3997C28.2008 37.283 28.6063 37.2901 28.98 37.42C29.2413 37.5072 29.4794 37.6527 29.6763 37.8454C29.9008 38.0709 30.0548 38.3568 30.1195 38.6684C30.1933 39.0114 30.1705 39.3681 30.0536 39.699C29.94 40.0619 29.7071 40.3759 29.3928 40.5901C29.0784 40.8043 28.701 40.906 28.3216 40.879C27.9706 40.8669 27.6298 40.7582 27.3366 40.565C27.07 40.3905 26.8598 40.1425 26.7314 39.8509C26.6026 39.5418 26.5582 39.204 26.6027 38.8722C26.6472 38.5403 26.779 38.2262 26.9846 37.9619C27.0223 37.9131 27.0647 37.8681 27.1112 37.8277C27.1421 37.795 27.1761 37.7654 27.2125 37.7391C27.2834 37.6909 27.3163 37.6783 27.3189 37.6783Z" fill="#263238"/>
<path d="M31.8213 17.7204C31.8213 17.7204 31.7782 17.6546 31.7023 17.5229L31.368 16.9405L31.1148 16.5126C31.0186 16.3581 30.897 16.2011 30.7729 16.0239L30.3703 15.4567C30.3 15.3502 30.2203 15.2502 30.1323 15.1579L29.8791 14.8489C28.9994 13.8142 27.9681 12.9186 26.8202 12.1927C25.3051 11.2187 23.6166 10.5455 21.847 10.21L21.0873 10.0732C20.8341 10.0428 20.5809 10.0277 20.3277 10.0049L19.9352 9.97195C19.8033 9.95589 19.6704 9.94996 19.5376 9.95422H18.7299C18.5931 9.95422 18.4564 9.95422 18.3197 9.95422L17.9069 9.9998L17.0713 10.0935C16.7927 10.134 16.5142 10.2074 16.2306 10.2631L15.8077 10.3543C15.7368 10.3695 15.6634 10.3822 15.595 10.4024L15.3848 10.4683C14.8115 10.6323 14.2498 10.8345 13.7035 11.0734C13.4275 11.2001 13.1413 11.3089 12.8679 11.4482L12.0576 11.904C11.9208 11.985 11.779 12.0534 11.6499 12.142L11.2624 12.413C11.0092 12.5978 10.7383 12.7725 10.4851 12.9701C9.97909 13.3799 9.50034 13.8223 9.05185 14.2944L8.71001 14.654L8.54035 14.8363L8.38842 15.0338L7.7655 15.8416C7.57052 16.1176 7.39833 16.4113 7.21348 16.6974C7.12739 16.8443 7.02357 16.9836 6.9476 17.1355L6.71464 17.5989C6.39701 18.2196 6.12123 18.8608 5.88915 19.5183C5.79546 19.8576 5.6967 20.1969 5.60048 20.5312L5.52705 20.7844C5.50932 20.873 5.49413 20.9591 5.47894 21.0376L5.38271 21.5668L5.28396 22.0961L5.23331 22.6557L5.18774 23.1976L5.16495 23.4685C5.16495 23.5597 5.16495 23.6508 5.16495 23.742C5.16495 24.1066 5.16495 24.4738 5.17761 24.8409L5.29915 25.9399C5.71021 28.9434 7.09315 31.7297 9.2367 33.8732L10.0394 34.6329L10.9079 35.309L11.1232 35.4736L11.3536 35.6205L11.817 35.9142L12.2753 36.2029L12.7564 36.4561L13.235 36.6966L13.4756 36.8182L13.7288 36.9144L14.7163 37.3018C15.38 37.5139 16.0567 37.6831 16.7421 37.8083L17.2485 37.8994C17.4182 37.9323 17.5904 37.9349 17.755 37.9526C18.0968 37.9779 18.4336 38.0184 18.7678 38.0311H19.7807H20.0339L20.2872 38.0058L20.7784 37.9501C21.4258 37.879 22.0678 37.7656 22.7003 37.6108C23.0118 37.5272 23.3106 37.4183 23.6145 37.3271L24.0652 37.1828C24.2146 37.1322 24.3564 37.0613 24.5007 37.0005L25.3541 36.6308C25.6301 36.4991 25.8909 36.3345 26.1568 36.1927C26.6782 35.9025 27.1791 35.5768 27.6558 35.2178L27.8356 35.0912C27.8938 35.0482 27.947 34.9975 28.0027 34.9494L28.3319 34.6658C28.5471 34.4759 28.7725 34.2987 28.9726 34.1011L29.5423 33.463L29.8284 33.1617L30.0817 32.8401L30.5881 32.202C30.6709 32.0986 30.7462 31.9895 30.8135 31.8753L31.0262 31.5411C31.1629 31.3208 31.3072 31.1056 31.4364 30.8853L31.7782 30.2092C32.5816 28.5969 33.0657 26.8446 33.2038 25.0486C33.219 24.8511 33.2418 24.6561 33.2519 24.4662C33.2621 24.2763 33.2519 24.0864 33.2519 23.9015C33.2519 23.7167 33.2519 23.5369 33.2519 23.3596C33.2519 23.271 33.2519 23.1824 33.2519 23.1064C33.2519 23.0304 33.2317 22.9342 33.2241 22.8532C33.1886 22.5139 33.1532 22.1897 33.1203 21.8808C33.0874 21.5719 33.0013 21.2883 32.9506 21.0148C32.9202 20.8781 32.8924 20.7439 32.8671 20.6147C32.8446 20.4884 32.8124 20.3639 32.7708 20.2425C32.6974 20.007 32.6265 19.7867 32.5632 19.5816C32.4999 19.3765 32.4442 19.184 32.3783 19.0144L32.1859 18.5586L31.9327 17.9433C31.8744 17.804 31.8491 17.7306 31.8491 17.7306C31.8491 17.7306 31.8846 17.7989 31.9453 17.9357L32.2188 18.5485L32.4189 19.0017C32.4847 19.1714 32.5404 19.3638 32.6088 19.5689C32.6771 19.774 32.748 19.9943 32.824 20.2324C32.867 20.3535 32.9001 20.478 32.9228 20.6046C32.9506 20.7337 32.9785 20.8578 33.0089 21.0021C33.0646 21.2782 33.1431 21.5643 33.1861 21.8732C33.2292 22.1821 33.257 22.5088 33.295 22.8481L33.3254 23.1013C33.3254 23.1874 33.3254 23.2761 33.3254 23.3545C33.3254 23.5352 33.3254 23.7175 33.3254 23.9015C33.3254 24.0864 33.3254 24.2763 33.3254 24.4687C33.3254 24.6612 33.295 24.8536 33.2798 25.0536C33.148 26.8608 32.6673 28.6254 31.8643 30.2497C31.7504 30.4751 31.6364 30.7004 31.5225 30.9308C31.4085 31.1613 31.2465 31.3689 31.1097 31.5943L30.897 31.9285C30.8304 32.0447 30.7551 32.1555 30.6717 32.2602L30.1652 32.9034C30.0817 33.0098 29.9981 33.1212 29.912 33.2275L29.6233 33.5314L29.0409 34.1467C28.8409 34.3493 28.613 34.5266 28.3952 34.719L28.066 35.0051C28.0078 35.0532 27.9546 35.1039 27.8964 35.1495L27.7166 35.2761C27.2339 35.6396 26.7262 35.9688 26.1973 36.2611C25.9289 36.408 25.6681 36.57 25.387 36.7042L24.5286 37.079C24.3817 37.1398 24.2399 37.2107 24.0905 37.2638L23.6372 37.4082C23.3308 37.5044 23.027 37.6133 22.7155 37.6968C22.0782 37.8546 21.4311 37.9697 20.7784 38.0412L20.272 38.0969C20.1884 38.0969 20.1074 38.1172 20.0187 38.1222H19.7655H18.7527C18.4133 38.1222 18.0715 38.0691 17.7398 38.0438C17.5701 38.026 17.3954 38.0235 17.2333 37.9906L16.7269 37.8969C16.0335 37.7742 15.3491 37.605 14.6784 37.3904L13.6807 37.0005L13.4275 36.9043L13.1869 36.7827L12.7033 36.5295L12.2171 36.2763L11.7537 35.9851L11.2928 35.742L11.0599 35.5951L10.8421 35.428L9.96597 34.7291L9.15567 33.9695C6.99178 31.8072 5.59546 28.9959 5.18014 25.9652L5.05859 24.8536C5.05859 24.4839 5.05859 24.1142 5.05859 23.7445C5.05859 23.6533 5.05859 23.5622 5.05859 23.4685L5.08138 23.195L5.1295 22.6481L5.17761 22.1036L5.27636 21.5694L5.37258 21.0376C5.39031 20.949 5.4055 20.8578 5.42323 20.7844L5.49666 20.5312C5.59542 20.1842 5.69417 19.8424 5.7904 19.5006C6.02548 18.8374 6.30378 18.1903 6.62348 17.5634L6.85898 17.1001C6.93748 16.9431 7.03876 16.8038 7.12739 16.6569C7.31477 16.3682 7.48949 16.072 7.68447 15.7934L8.29473 14.9781L8.44919 14.778C8.5049 14.7147 8.56314 14.6565 8.62138 14.5957L8.96576 14.2184C9.41785 13.7431 9.90086 13.2981 10.4116 12.8865C10.6649 12.6865 10.9383 12.5117 11.1966 12.3243L11.5866 12.0509C11.7182 11.9622 11.8626 11.8939 11.9968 11.8128L12.8299 11.3596C13.1059 11.2178 13.3945 11.1064 13.6706 10.9848C14.2217 10.7442 14.7885 10.5412 15.3671 10.3771L15.5798 10.3113C15.6507 10.291 15.7216 10.2783 15.7925 10.2631L16.223 10.172C16.5066 10.1163 16.7851 10.0428 17.0688 10.0023L17.8942 9.91371L18.307 9.86813H18.7223H19.5351C19.6687 9.8638 19.8025 9.86973 19.9352 9.88585L20.3327 9.9213C20.586 9.94663 20.8544 9.96182 21.1076 9.99221L21.8672 10.1315C23.6481 10.4768 25.3448 11.1648 26.8632 12.1572C28.0149 12.8922 29.0473 13.7991 29.9247 14.8464L30.1779 15.1579C30.2646 15.2523 30.3441 15.353 30.4159 15.4592L30.8135 16.0315C30.935 16.2113 31.054 16.3708 31.1502 16.5379L31.3883 16.9709C31.5301 17.2241 31.6415 17.4242 31.7124 17.5609C31.7833 17.6976 31.8213 17.7204 31.8213 17.7204Z" fill="#263238"/>
<path d="M27.2883 17.8982L11.418 18.1115L11.5885 30.7991L27.4588 30.5859L27.2883 17.8982Z" fill="#EBEBEB"/>
<path d="M26.7303 18.7058L11.9766 18.9041L12.1256 29.994L26.8793 29.7957L26.7303 18.7058Z" fill="#CDCDCD"/>
<path d="M21.7228 22.1242C21.7263 22.3542 21.6615 22.58 21.5366 22.7731C21.4117 22.9662 21.2324 23.1179 21.0212 23.209C20.81 23.3001 20.5766 23.3266 20.3504 23.285C20.1242 23.2433 19.9155 23.1356 19.7506 22.9753C19.5857 22.815 19.472 22.6094 19.424 22.3845C19.376 22.1596 19.3958 21.9255 19.4809 21.7118C19.566 21.4982 19.7126 21.3146 19.9021 21.1842C20.0915 21.0539 20.3154 20.9827 20.5454 20.9797C20.6979 20.9773 20.8494 21.0051 20.9911 21.0614C21.1329 21.1177 21.2622 21.2014 21.3716 21.3077C21.4809 21.414 21.5683 21.5409 21.6285 21.681C21.6888 21.8211 21.7209 21.9717 21.7228 22.1242Z" fill="#CDCDCD"/>
<g opacity="0.2">
<path d="M12.1582 29.9952L17.22 23.0342L20.4688 27.3035L22.6035 24.9688L26.9132 29.7977L12.1582 29.9952Z" fill="black"/>
</g>
<g opacity="0.2">
<path d="M21.7502 22.126C21.7532 22.3559 21.688 22.5815 21.5628 22.7742C21.4376 22.967 21.258 23.1183 21.0468 23.209C20.8356 23.2998 20.6022 23.3258 20.3762 23.2839C20.1502 23.242 19.9417 23.1341 19.777 22.9737C19.6124 22.8132 19.499 22.6076 19.4512 22.3828C19.4034 22.1579 19.4233 21.924 19.5085 21.7105C19.5937 21.497 19.7403 21.3135 19.9297 21.1833C20.1191 21.0531 20.3429 20.982 20.5728 20.979C20.7255 20.9766 20.8772 21.0045 21.0191 21.0609C21.161 21.1173 21.2904 21.2013 21.3998 21.3079C21.5092 21.4144 21.5965 21.5416 21.6566 21.682C21.7168 21.8224 21.7486 21.9733 21.7502 22.126Z" fill="black"/>
</g>
<path d="M48.1215 72.0856C47.8476 72.3615 50.2107 73.8931 51.208 75.1721C52.2053 76.451 55.774 83.0695 57.6992 82.5834C59.6244 82.0973 58.193 76.9892 58.193 76.9892C58.193 76.9892 59.0515 71.395 58.7042 71.4317C58.357 71.4683 48.9452 71.2465 48.1215 72.0856Z" fill="#CDCDCD"/>
<g opacity="0.3">
<path d="M48.1255 72.0841C47.8515 72.3599 50.2146 73.8916 51.2119 75.1705C52.2092 76.4495 55.7779 83.068 57.7031 82.5819C59.6283 82.0958 58.1969 76.9877 58.1969 76.9877C58.1969 76.9877 59.0554 71.3935 58.7081 71.4301C58.3609 71.4668 48.9492 71.245 48.1255 72.0841Z" fill="black"/>
</g>
<path d="M23.3743 60.1578C23.3743 60.1578 23.5151 64.9997 29.2694 66.051L34.3215 66.5429C34.3215 66.5429 34.4623 73.4875 42.6723 73.6302L49.0594 72.8586C49.0594 72.8586 58.8839 72.5808 65.1996 73.1402C67.0013 73.2984 69.6248 73.555 72.2213 72.6425C74.8178 71.7301 83.6566 63.3832 74.7445 52.9992C74.7445 52.9992 75.5161 48.2962 70.7436 47.1735C70.7436 47.1735 68.6391 40.717 61.6212 40.7884C61.6212 40.7884 59.3064 37.9103 55.7956 39.1043C55.7956 39.1043 49.0594 36.068 43.9358 38.8131C43.9358 38.8131 37.8304 37.4897 33.2702 42.4782C33.2702 42.4782 28.3569 44.0215 27.0973 47.7406C27.0973 47.7406 21.0613 51.6373 22.8862 56.1454C22.5585 56.4288 22.3089 56.7914 22.1613 57.1987C22.0137 57.606 21.973 58.0444 22.0432 58.4719C22.2516 60.017 23.3743 60.1578 23.3743 60.1578Z" fill="#CDCDCD"/>
<path d="M59.7263 54.9888C59.4722 55.0676 59.2376 55.199 59.0376 55.3746C58.8027 55.587 58.6204 55.8512 58.5052 56.1462C58.3445 56.5466 58.3322 56.9913 58.4705 57.4001L58.4879 57.4502L58.4358 57.4367C57.6589 57.2237 56.867 57.0696 56.0669 56.9757C52.6432 56.5993 49.1923 57.3854 46.2694 59.2076L46.2501 59.2211H46.2269C45.7333 59.0655 45.2283 58.9488 44.7165 58.8719C43.5691 58.6826 42.4021 58.6418 41.2442 58.7504C40.6965 58.8015 40.1581 58.9254 39.6431 59.1188C39.1453 59.2945 38.6643 59.5147 38.206 59.7766C37.7778 60.0385 37.3777 60.3436 37.0119 60.6871C36.655 60.9993 36.3162 61.3316 35.9972 61.6825C35.4416 62.3285 34.9905 63.0575 34.6604 63.843C34.518 64.1853 34.4069 64.5398 34.3286 64.9021C34.2628 65.2258 34.2305 65.5555 34.2322 65.8859C34.2422 66.4166 34.3115 66.9446 34.4386 67.46C34.5408 67.8844 34.6469 68.2084 34.7221 68.4245L34.809 68.6714C34.8282 68.7274 34.836 68.7563 34.836 68.7563C34.6539 68.3396 34.5087 67.9078 34.4019 67.4658C34.2651 66.9491 34.1893 66.4182 34.1762 65.884C34.1716 65.5493 34.202 65.215 34.2669 64.8866C34.3422 64.5196 34.452 64.1605 34.5948 63.8141C34.924 63.0194 35.3757 62.2813 35.9336 61.6266C36.2537 61.2719 36.5937 60.9357 36.9521 60.6196C37.322 60.2714 37.7259 59.9612 38.1578 59.6937C38.6212 59.4291 39.1073 59.2063 39.6103 59.0282C40.1313 58.8273 40.677 58.6976 41.2326 58.6424C42.3968 58.5337 43.5702 58.5739 44.7242 58.762C45.2417 58.8414 45.7525 58.9601 46.252 59.1169H46.2096C49.1495 57.2828 52.6246 56.5001 56.0669 56.8966C56.8703 56.995 57.6649 57.1556 58.4435 57.3769L58.4088 57.4136C58.2693 56.9916 58.2864 56.5335 58.457 56.123C58.5773 55.8215 58.767 55.5525 59.0106 55.3379C59.1634 55.2083 59.336 55.104 59.5218 55.0293C59.6569 55.0042 59.7263 54.9888 59.7263 54.9888Z" fill="#263238"/>
<path d="M68.4981 54.336C68.4981 54.336 68.4981 54.3649 68.4749 54.4247C68.4518 54.4845 68.4267 54.5713 68.392 54.6832C68.3245 54.9109 68.1991 55.2388 68.0312 55.6593C67.8165 56.1654 67.5718 56.6582 67.2982 57.135C67.1439 57.4186 66.9529 57.7041 66.7562 58.0108C66.5594 58.3175 66.326 58.6262 66.0694 58.9387C64.8794 60.4255 63.3977 61.6531 61.7156 62.546C60.7185 63.0614 59.6636 63.4564 58.5732 63.7227C57.4007 64.0012 56.1978 64.1308 54.9929 64.1085C54.3246 64.096 53.6581 64.036 52.9983 63.9291C52.3622 63.8222 51.7339 63.6734 51.1175 63.4835H51.1618C50.2146 64.1904 49.1074 64.6523 47.9386 64.8283C46.7699 65.0044 45.5757 64.8889 44.4623 64.4924H44.5009C44.0944 64.7992 43.6445 65.0436 43.166 65.2177C42.7399 65.3758 42.2951 65.4776 41.8427 65.5205C41.7377 65.533 41.632 65.5388 41.5263 65.5379C41.4241 65.5379 41.3238 65.5379 41.2254 65.5379C41.0325 65.5263 40.8396 65.5379 40.6467 65.5032L40.3805 65.4723L40.1277 65.4222C39.9714 65.3931 39.8168 65.3551 39.6648 65.3084C39.2197 65.1772 38.7941 64.9871 38.3993 64.7431C38.2624 64.6583 38.1678 64.5811 38.1003 64.5348L38.002 64.4596L38.108 64.5252C38.1775 64.5676 38.2739 64.6409 38.4109 64.7181C38.8077 64.9528 39.233 65.1357 39.6764 65.2621C39.8279 65.3066 39.9818 65.3426 40.1374 65.3701L40.3882 65.4164L40.6524 65.4453C40.8318 65.4704 41.0209 65.4646 41.2177 65.4743L41.5167 65.4627C41.62 65.4609 41.7231 65.4526 41.8253 65.4376C42.272 65.3906 42.7108 65.2869 43.1313 65.129C43.6018 64.9555 44.0439 64.713 44.443 64.4094L44.4604 64.3959H44.4797C45.5803 64.7829 46.7594 64.8929 47.9126 64.7163C49.0659 64.5397 50.158 64.0818 51.0924 63.3832L51.1136 63.3677H51.1368C51.7496 63.5548 52.374 63.7017 53.006 63.8076C53.6606 63.9139 54.3221 63.9732 54.9852 63.985C56.1818 64.0064 57.3763 63.8768 58.5404 63.5992C61.4874 62.901 64.1152 61.2349 66.0038 58.8673C66.2604 58.5567 66.4822 58.2442 66.6944 57.9491C66.9066 57.6539 67.0802 57.3607 67.2403 57.081C67.5166 56.6074 67.7658 56.1186 67.9869 55.6169C68.1586 55.2002 68.2897 54.8742 68.363 54.6524C68.4035 54.5443 68.4325 54.4595 68.4556 54.3977C68.4788 54.336 68.4981 54.336 68.4981 54.336Z" fill="#263238"/>
<path d="M39.0664 69.4815C39.0506 69.4185 39.0454 69.3533 39.051 69.2886C39.051 69.1671 39.051 68.9935 39.051 68.7774C39.059 68.2104 39.1653 67.6491 39.3654 67.1185C39.5765 66.5831 39.9627 66.135 40.4611 65.8472C40.6127 65.7645 40.7759 65.7053 40.9453 65.6717C41.0081 65.655 41.0735 65.6498 41.1382 65.6563C40.9159 65.7143 40.7015 65.7991 40.4997 65.909C40.0296 66.2038 39.666 66.6411 39.4619 67.157C39.2675 67.6781 39.1543 68.2259 39.1262 68.7813C39.1188 69.0156 39.0988 69.2494 39.0664 69.4815Z" fill="#263238"/>
<path d="M66.7559 68.188C66.7356 68.1868 66.7155 68.1829 66.6961 68.1765L66.5264 68.136L65.8705 67.9662C65.7278 67.9295 65.5696 67.8852 65.396 67.8447L64.8269 67.7173L64.1749 67.5707L63.438 67.4357C62.2258 67.2134 61.0022 67.0589 59.7728 66.9727C58.2699 66.8605 56.761 66.8521 55.2569 66.9477C53.3679 67.0577 51.4914 67.3262 49.6473 67.7501C48.3135 68.0636 46.9978 68.4499 45.7063 68.9076L45.7237 68.8863C45.6987 69.1486 45.6213 69.4031 45.496 69.6348C45.3954 69.8027 45.2646 69.9505 45.1102 70.0708C44.987 70.1733 44.8523 70.2613 44.709 70.3331C44.7406 70.3075 44.7741 70.2843 44.8093 70.2637C44.907 70.1975 45.001 70.126 45.0909 70.0496C45.2377 69.9279 45.3607 69.7801 45.4536 69.6136C45.5727 69.3852 45.6448 69.1353 45.6658 68.8786V68.8632H45.6812C46.9717 68.3836 48.2896 67.9817 49.628 67.6595C51.4753 67.225 53.3567 66.9513 55.2512 66.8416C57.9936 66.6732 60.7464 66.8475 63.4457 67.3605L64.1826 67.5032L64.8346 67.6575L65.4017 67.7907C65.5754 67.835 65.7316 67.8832 65.8744 67.9218L66.5244 68.1147L66.6942 68.1649L66.7559 68.188Z" fill="#263238"/>
<path d="M71.9416 65.3935C71.9416 65.3935 71.957 65.38 71.9937 65.3569L72.1499 65.2546C72.285 65.1659 72.4856 65.0328 72.7286 64.8457C73.4318 64.3244 74.0449 63.6917 74.5439 62.9726C74.8853 62.4767 75.1536 61.9342 75.3406 61.3619C75.5536 60.7041 75.647 60.0136 75.6164 59.3229C75.5851 58.5597 75.3686 57.8155 74.9856 57.1546C74.5654 56.4509 73.9585 55.8774 73.2321 55.4976C72.7827 55.2638 72.2905 55.1233 71.7853 55.0848H71.712L71.7448 55.0173C72.0896 54.3749 72.2586 53.6529 72.2348 52.9243C72.1869 52.252 71.9706 51.6025 71.606 51.0357C71.3187 50.55 70.9311 50.1311 70.4691 49.8071C70.007 49.483 69.4811 49.2614 68.9265 49.1569C68.5045 49.0721 68.0739 49.0371 67.6437 49.0527C67.2579 49.0623 66.9396 49.0951 66.6792 49.1183L66.0696 49.1742L65.9114 49.1858C65.8935 49.1883 65.8753 49.1883 65.8574 49.1858H65.9114L66.0677 49.1665L66.6753 49.0932C66.9415 49.0623 67.2656 49.0238 67.6398 49.0102C68.074 48.9887 68.5092 49.0191 68.9362 49.1009C69.8384 49.2886 70.6559 49.7624 71.2672 50.452C71.8786 51.1415 72.2511 52.0099 72.3293 52.9281C72.3551 53.6745 72.1834 54.4144 71.8316 55.0732L71.7911 54.9999C72.3091 55.0403 72.8136 55.1846 73.2746 55.4243C74.0183 55.8114 74.639 56.3987 75.0666 57.1199C75.4577 57.7947 75.6776 58.555 75.7071 59.3344C75.7358 60.0355 75.6378 60.7361 75.4177 61.4024C75.2258 61.9814 74.9502 62.5292 74.5998 63.0285C74.0931 63.7499 73.4676 64.3801 72.7499 64.892C72.4933 65.0791 72.2232 65.2467 71.9416 65.3935Z" fill="#263238"/>
<path d="M54.4001 56.6645C54.4001 56.6645 54.346 56.6645 54.2496 56.6452C54.1911 56.6349 54.1337 56.6194 54.0779 56.5989C54.0028 56.5756 53.9293 56.5473 53.858 56.514C53.6711 56.4279 53.4955 56.319 53.3352 56.19C53.1414 56.0285 52.9696 55.8424 52.824 55.6363C52.6815 55.4276 52.5679 55.2004 52.4865 54.9612C52.4213 54.7657 52.3812 54.5629 52.3669 54.3574C52.3621 54.279 52.3621 54.2004 52.3669 54.122C52.3678 54.0625 52.3736 54.0031 52.3842 53.9446C52.3878 53.8935 52.3996 53.8434 52.4189 53.796C52.4402 53.796 52.4035 54.0121 52.4402 54.3516C52.464 54.5488 52.5093 54.7429 52.5752 54.9303C52.7393 55.3921 53.0228 55.8021 53.397 56.1186C53.5484 56.2471 53.7141 56.3578 53.8908 56.4484C54.1937 56.6028 54.4058 56.6433 54.4001 56.6645Z" fill="#263238"/>
<path d="M47.2905 56.1919C47.3556 56.3393 47.3922 56.4977 47.3986 56.6587C47.433 57.0486 47.3845 57.4413 47.2562 57.8111C47.1278 58.1808 46.9226 58.5191 46.654 58.8038C46.5489 58.9271 46.4212 59.0293 46.2778 59.1047C46.2682 59.0912 46.4109 58.9774 46.6 58.7575C46.8455 58.4687 47.0358 58.1372 47.1613 57.7795C47.2837 57.421 47.3399 57.0432 47.3272 56.6645C47.3137 56.3732 47.2732 56.1958 47.2905 56.1919Z" fill="#263238"/>
<path d="M41.1409 58.6977C41.1156 58.7037 41.0897 58.7069 41.0637 58.7073C40.9889 58.7122 40.9138 58.7083 40.84 58.6957C40.5663 58.6436 40.3152 58.509 40.1204 58.3099C39.8282 58.0168 39.6312 57.6423 39.5552 57.2355C39.48 56.7429 39.4754 56.2421 39.5417 55.7482C39.6011 55.2613 39.6204 54.7703 39.5996 54.2802C39.5778 53.8803 39.5229 53.4828 39.4356 53.0919C39.3604 52.7582 39.2774 52.4939 39.2176 52.3203C39.1815 52.2273 39.1518 52.1319 39.1289 52.0348C39.1289 52.0348 39.1443 52.056 39.1675 52.1023C39.1906 52.1486 39.2196 52.2161 39.2543 52.3068C39.3549 52.5581 39.4387 52.8159 39.5051 53.0784C39.6052 53.4711 39.6698 53.872 39.698 54.2763C39.7246 54.7713 39.7078 55.2677 39.6478 55.7598C39.581 56.2442 39.581 56.7356 39.6478 57.22C39.717 57.6111 39.8995 57.9733 40.1725 58.2617C40.3546 58.4582 40.5898 58.5976 40.8496 58.663C41.0309 58.6977 41.1409 58.6861 41.1409 58.6977Z" fill="#263238"/>
<path d="M36.6106 61.0063C36.7544 60.7816 36.8539 60.5315 36.9038 60.2694C36.945 59.952 36.9225 59.6295 36.8377 59.3208C36.7529 59.0122 36.6075 58.7235 36.41 58.4716C35.9929 57.9772 35.4856 57.5667 34.915 57.2621L34.3999 56.9708C34.3318 56.939 34.2671 56.9002 34.207 56.855C34.2775 56.874 34.3455 56.9012 34.4096 56.9361C34.5369 56.9939 34.7202 57.0827 34.942 57.2003C35.5348 57.4919 36.0604 57.9038 36.4852 58.4098C36.6914 58.6714 36.8411 58.973 36.9248 59.2954C37.0084 59.6178 37.0243 59.9541 36.9713 60.2829C36.9337 60.481 36.8577 60.6697 36.7476 60.8385C36.711 60.9013 36.6648 60.9579 36.6106 61.0063Z" fill="#263238"/>
<path d="M34.3405 64.5977C34.2924 64.6023 34.244 64.6023 34.1959 64.5977H33.7773C33.5959 64.5861 33.3741 64.5668 33.1175 64.5379C32.8312 64.5012 32.5472 64.4484 32.2668 64.3797C31.5287 64.1868 30.8224 63.8879 30.17 63.4923C29.3677 63.0094 28.655 62.3914 28.0635 61.6655C27.4746 60.9355 27.0272 60.1021 26.744 59.2079C26.6228 58.8166 26.5579 58.41 26.5511 58.0004C26.5483 57.8134 26.5644 57.6266 26.5993 57.4429C26.6351 57.2757 26.6828 57.1113 26.7421 56.951C26.9151 56.4629 27.1673 56.0067 27.4886 55.6006C27.577 55.4914 27.6773 55.3924 27.7876 55.3055C27.8251 55.2743 27.8666 55.2484 27.9111 55.2283C27.8757 55.2615 27.8384 55.2924 27.7992 55.3209C27.6971 55.4134 27.6035 55.5147 27.5195 55.6238C27.2141 56.0343 26.9746 56.4899 26.8096 56.9741C26.7541 57.1324 26.709 57.2941 26.6746 57.4583C26.6441 57.6367 26.6306 57.8175 26.634 57.9984C26.6432 58.3996 26.7081 58.7976 26.8269 59.1809C27.1109 60.0612 27.5542 60.8818 28.1348 61.6019C29.204 62.9113 30.652 63.8579 32.2803 64.3122C32.5596 64.3918 32.8429 64.4562 33.1291 64.5051C33.3818 64.5398 33.6017 64.5629 33.7811 64.5822L34.1978 64.5977C34.2453 64.5933 34.2931 64.5933 34.3405 64.5977Z" fill="#263238"/>
<path d="M29.5453 50.8382C29.5107 50.8433 29.4757 50.8433 29.4411 50.8382L29.1498 50.8035C28.7919 50.7614 28.4319 50.7408 28.0715 50.7418C27.5395 50.7396 27.0112 50.831 26.5109 51.0118C25.8963 51.2263 25.3713 51.6406 25.0198 52.1885C24.8506 52.4618 24.7454 52.7698 24.712 53.0895C24.6786 53.4092 24.7179 53.7323 24.8269 54.0346C25.0389 54.5218 25.4297 54.9091 25.9187 55.1168C26.2469 55.2624 26.5935 55.3623 26.9488 55.4139C27.1996 55.4505 27.3346 55.4563 27.3346 55.466C27.3 55.4701 27.265 55.4701 27.2304 55.466C27.1636 55.466 27.0652 55.4602 26.9353 55.4486C26.5726 55.411 26.2176 55.3194 25.882 55.1766C25.6484 55.0774 25.4321 54.9412 25.2416 54.7734C25.02 54.5794 24.8458 54.3373 24.7323 54.0655C24.6162 53.7503 24.5733 53.4129 24.6067 53.0788C24.6401 52.7446 24.749 52.4224 24.9252 52.1365C25.2877 51.5696 25.8318 51.1426 26.4685 50.925C26.9793 50.7452 27.5184 50.6589 28.0599 50.6704C28.4224 50.676 28.7841 50.7076 29.1421 50.7649L29.4334 50.817C29.4714 50.8196 29.509 50.8267 29.5453 50.8382Z" fill="#263238"/>
<path d="M45.8105 43.6742C45.8105 43.6742 45.7931 43.6742 45.7642 43.6415C45.7353 43.6087 45.687 43.5817 45.633 43.5392C45.5192 43.4485 45.3495 43.3135 45.1257 43.1534C44.4988 42.6853 43.7885 42.341 43.0327 42.1387C42.5088 42.0132 41.9722 41.9485 41.4335 41.9458C40.8155 41.9315 40.1988 42.0075 39.6029 42.1715C38.9463 42.3582 38.3233 42.6472 37.7568 43.028C37.156 43.4476 36.6375 43.9739 36.227 44.5809C36.1325 44.7179 36.0457 44.8587 35.9686 44.9898L35.9531 45.0149H35.9242C34.5549 44.9913 33.2194 45.441 32.1433 46.2881C31.6783 46.6523 31.274 47.0879 30.9453 47.5786C30.2512 48.6315 29.905 49.8757 29.9557 51.1357C29.9557 51.2669 29.9692 51.3827 29.9789 51.483C29.9885 51.5833 29.9963 51.6759 30.0078 51.7376C30.0194 51.7993 30.0233 51.8514 30.029 51.8919C30.0325 51.9098 30.0325 51.9281 30.029 51.9459C29.9658 51.6806 29.927 51.4101 29.9133 51.1377C29.8673 50.3876 29.9662 49.6358 30.2046 48.9231C30.3675 48.4292 30.5938 47.9584 30.8778 47.5227C31.2097 47.0229 31.6185 46.5789 32.0893 46.2071C33.1802 45.3366 34.5403 44.8735 35.9358 44.8973L35.8914 44.9223C35.9705 44.7873 36.0592 44.6465 36.1537 44.5076C36.5712 43.8904 37.0989 43.3554 37.7105 42.9296C38.2869 42.5448 38.9203 42.2532 39.5874 42.0654C40.1926 41.9017 40.8184 41.8269 41.4451 41.8436C41.9899 41.8525 42.5317 41.925 43.0597 42.0596C43.8219 42.2689 44.5351 42.6269 45.1585 43.1129C45.3803 43.2807 45.5443 43.4196 45.6562 43.5161L45.7796 43.626C45.7923 43.6405 45.8027 43.6567 45.8105 43.6742Z" fill="#263238"/>
<path d="M33.6324 47.7328C33.6611 47.7281 33.6904 47.7281 33.7192 47.7328C33.8009 47.7433 33.882 47.7581 33.9622 47.7772C34.2604 47.8505 34.5446 47.9724 34.8033 48.1379C35.1889 48.3854 35.5113 48.7197 35.7447 49.114C36.0231 49.6038 36.1531 50.164 36.1189 50.7264C36.0846 51.2888 35.8876 51.8291 35.5518 52.2814C35.2715 52.6442 34.9101 52.9362 34.4966 53.1341C34.2189 53.2648 33.9218 53.3495 33.6169 53.3849C33.5349 53.3938 33.4525 53.3983 33.37 53.3984H33.2832C33.2832 53.3868 33.4009 53.3868 33.6111 53.3521C33.9075 53.3011 34.1948 53.2068 34.4638 53.0724C34.8608 52.8708 35.207 52.5819 35.4765 52.2274C35.7977 51.7881 35.9864 51.2661 36.0206 50.723C36.0548 50.1799 35.9329 49.6383 35.6694 49.1622C35.4465 48.7769 35.1392 48.4471 34.7705 48.1977C34.52 48.0302 34.2464 47.9003 33.9584 47.8119C33.7481 47.7579 33.6304 47.7424 33.6324 47.7328Z" fill="#263238"/>
<path d="M39.9184 46.0253C39.9545 46.0996 39.9817 46.178 39.9995 46.2587C40.0581 46.4772 40.0911 46.7019 40.0978 46.9281C40.1322 47.6863 39.9003 48.4326 39.4424 49.0379C38.9844 49.6431 38.3291 50.0692 37.5901 50.2421C37.3705 50.2976 37.1452 50.3274 36.9188 50.3309C36.8362 50.3359 36.7532 50.3307 36.6719 50.3154C36.9756 50.2932 37.277 50.2454 37.5727 50.1727C38.2854 49.9846 38.9143 49.5628 39.3588 48.9749C39.8033 48.387 40.0377 47.6669 40.0245 46.93C40.0136 46.626 39.9781 46.3235 39.9184 46.0253Z" fill="#263238"/>
<path d="M44.2738 54.7678C44.2747 54.6634 44.2817 54.559 44.295 54.4553C44.3171 54.1729 44.3171 53.8891 44.295 53.6066C44.2251 52.6716 43.8975 51.7744 43.3486 51.0143C42.7997 50.2543 42.0509 49.6612 41.1854 49.301C40.9247 49.19 40.6558 49.0997 40.381 49.0309C40.2785 49.0108 40.1773 48.9844 40.0781 48.9518C40.1055 48.9467 40.1337 48.9467 40.1611 48.9518C40.2132 48.9518 40.2922 48.9653 40.3906 48.9865C40.6714 49.0423 40.9465 49.1237 41.2124 49.2296C42.1015 49.5785 42.8716 50.1757 43.4308 50.9501C43.99 51.7244 44.3147 52.6432 44.3664 53.5969C44.3836 53.8826 44.3745 54.1693 44.3394 54.4534C44.3278 54.5557 44.3104 54.6309 44.3008 54.6849C44.2911 54.7389 44.2776 54.7698 44.2738 54.7678Z" fill="#263238"/>
<path d="M42.2031 44.3474C42.2837 44.38 42.3601 44.4221 42.4307 44.4727C42.6281 44.6026 42.8083 44.7569 42.967 44.9318C43.502 45.5107 43.8061 46.2657 43.8216 47.0538C43.8217 47.4866 43.7324 47.9148 43.5592 48.3115C43.4207 48.6351 43.2297 48.9336 42.994 49.195C42.8362 49.3717 42.6574 49.5285 42.4616 49.6618C42.3917 49.7131 42.3159 49.7558 42.2359 49.7892C42.4911 49.5993 42.7269 49.3848 42.94 49.1487C43.448 48.5696 43.726 47.8242 43.7214 47.0538C43.7168 46.2835 43.4299 45.5415 42.9149 44.9685C42.6983 44.739 42.4599 44.531 42.2031 44.3474Z" fill="#263238"/>
<path d="M44.9277 44.4951C44.8643 44.8853 44.7197 45.2579 44.5033 45.5888C44.3159 45.9374 44.0584 46.2434 43.7471 46.4878C43.724 46.4665 44.0924 46.0923 44.4165 45.5387C44.7406 44.985 44.8988 44.4854 44.9277 44.4951Z" fill="#263238"/>
<path d="M48.666 37.7311C48.7194 37.7519 48.7716 37.7757 48.8223 37.8025L49.0152 37.897L49.2583 38.0455C49.7675 38.3774 50.2104 38.8013 50.5642 39.2955C51.0989 40.0265 51.4315 40.8855 51.5287 41.7859C51.6312 42.8972 51.3522 44.0102 50.7378 44.9418C50.1209 45.908 49.1979 46.6395 48.1163 47.0194L48.1452 46.9615C48.503 48.137 48.6108 49.3743 48.4616 50.5939C48.4197 50.9404 48.3552 51.2839 48.2687 51.6221C48.2397 51.7397 48.2108 51.8285 48.1934 51.8902C48.1868 51.9209 48.1764 51.9507 48.1626 51.9789C48.1632 51.9473 48.169 51.916 48.1799 51.8863L48.2397 51.6163C48.3145 51.277 48.3698 50.9337 48.4056 50.5881C48.5346 49.377 48.4158 48.1523 48.0565 46.9885L48.043 46.9461L48.0854 46.9306C49.1398 46.5542 50.0399 45.8392 50.6452 44.8974C51.2447 43.9855 51.5199 42.8983 51.4265 41.811C51.333 40.9243 51.0113 40.0769 50.4928 39.3515C50.1476 38.8604 49.7178 38.4345 49.2235 38.0937L48.9863 37.9375L48.8069 37.8352C48.7564 37.8056 48.7092 37.7707 48.666 37.7311Z" fill="#263238"/>
<path d="M45.3524 38.3639C45.4176 38.398 45.4775 38.4415 45.5299 38.4931C45.6794 38.6252 45.8093 38.7778 45.9157 38.9465C46.08 39.1958 46.1977 39.473 46.2629 39.7644C46.3452 40.1224 46.3452 40.4943 46.2629 40.8523C46.1743 41.2095 46.0069 41.5424 45.773 41.8265C45.5836 42.0583 45.3543 42.2543 45.0959 42.4052C44.9234 42.5071 44.7377 42.585 44.5442 42.6367C44.4742 42.6587 44.4014 42.6704 44.3281 42.6714C44.5829 42.5896 44.8281 42.4803 45.0592 42.3454C45.3351 42.1801 45.5751 41.9611 45.765 41.7014C45.9549 41.4417 46.0908 41.1466 46.1647 40.8336C46.2386 40.5205 46.249 40.1958 46.1953 39.8786C46.1416 39.5615 46.0249 39.2583 45.8521 38.987C45.7086 38.7618 45.5411 38.5528 45.3524 38.3639Z" fill="#263238"/>
<path d="M61.5541 40.5067C61.5019 40.5157 61.449 40.5203 61.396 40.5202C61.2937 40.5202 61.1413 40.5376 60.9484 40.5607C60.4002 40.6225 59.8602 40.7427 59.3377 40.9195C58.9774 41.0394 58.6287 41.1918 58.296 41.3748C57.9187 41.5942 57.5577 41.8405 57.2157 42.1117C56.4141 42.7133 55.7345 43.4622 55.2134 44.3185C54.6906 45.2502 54.218 46.1511 53.8361 46.994C53.4942 47.7377 53.2117 48.5072 52.9912 49.2954C52.8442 49.8274 52.7372 50.3697 52.6709 50.9177C52.642 51.1106 52.6362 51.263 52.6246 51.3652C52.6215 51.4178 52.6145 51.47 52.6034 51.5215C52.5983 51.4695 52.5983 51.4172 52.6034 51.3652C52.6034 51.2611 52.6034 51.1087 52.6304 50.9138C52.6831 50.3614 52.7812 49.8143 52.9236 49.278C53.1358 48.4851 53.4126 47.7109 53.7512 46.9632C54.137 46.1144 54.6019 45.2116 55.1266 44.276C55.6519 43.4065 56.3403 42.6466 57.154 42.0383C57.5006 41.7657 57.8676 41.52 58.2516 41.3034C58.5909 41.1182 58.9468 40.9651 59.3145 40.8462C59.8433 40.6736 60.3903 40.5629 60.9446 40.5163C61.1375 40.499 61.2918 40.4951 61.396 40.4951C61.4489 40.494 61.5019 40.4979 61.5541 40.5067Z" fill="#263238"/>
<path d="M55.4002 38.9455C55.4002 38.9648 55.1283 38.961 54.7039 39.0362C54.4561 39.0812 54.2123 39.1457 53.9747 39.2291C53.3911 39.4369 52.8552 39.7596 52.3987 40.1782C52.2123 40.3485 52.0401 40.5337 51.8836 40.7318C51.6193 41.0713 51.4978 41.3105 51.4785 41.3105C51.4955 41.2495 51.5208 41.1911 51.5538 41.1369C51.5861 41.0703 51.6228 41.0058 51.6637 40.944C51.7141 40.8589 51.7688 40.7765 51.8277 40.6971C51.9792 40.4895 52.149 40.2958 52.335 40.1184C52.7964 39.6859 53.3449 39.3571 53.9438 39.1539C54.1872 39.0713 54.4378 39.0119 54.6923 38.9764C54.79 38.9605 54.8885 38.9502 54.9874 38.9455C55.0613 38.94 55.1354 38.94 55.2093 38.9455C55.2726 38.9362 55.3369 38.9362 55.4002 38.9455Z" fill="#263238"/>
<path d="M57.0254 52.0228C57.0254 52.0131 57.1064 52.0092 57.2395 51.961C57.4272 51.8897 57.5952 51.7747 57.7295 51.6254C57.9262 51.402 58.0723 51.1388 58.1577 50.8538C58.2661 50.5013 58.3556 50.1432 58.4259 49.7812C58.556 49.1249 58.6334 48.4591 58.6574 47.7904C58.6689 47.532 58.6689 47.3236 58.6709 47.1789C58.6651 47.1036 58.6683 47.0278 58.6805 46.9532C58.6996 47.0263 58.7093 47.1015 58.7094 47.177C58.7191 47.3217 58.7307 47.532 58.7287 47.7904C58.7257 48.4681 58.6572 49.1438 58.5242 49.8082C58.454 50.1751 58.3606 50.5372 58.2445 50.8923C58.1526 51.1884 57.9943 51.4596 57.7816 51.6852C57.6354 51.8364 57.4527 51.9473 57.2511 52.0073C57.197 52.0227 57.1413 52.0324 57.0852 52.0363C57.0466 52.0343 57.0254 52.0343 57.0254 52.0228Z" fill="#263238"/>
<path d="M62.9254 54.9437C63.053 54.5852 63.1183 54.2074 63.1183 53.8268C63.1101 53.4152 63.0223 53.009 62.8598 52.6308C62.663 52.1668 62.3682 51.7509 61.9956 51.4116C61.6149 51.0784 61.177 50.817 60.7031 50.64C60.3153 50.4968 59.9119 50.3997 59.5013 50.3507C59.2243 50.316 58.9453 50.2993 58.6661 50.3005C58.5633 50.3083 58.4602 50.3083 58.3574 50.3005C58.3828 50.2916 58.4096 50.2871 58.4365 50.287C58.4886 50.287 58.5658 50.2696 58.6661 50.2658C58.9477 50.2486 59.2303 50.2544 59.511 50.2831C59.9285 50.323 60.3394 50.415 60.734 50.5571C61.221 50.7285 61.6713 50.9903 62.0612 51.3287C62.4468 51.6759 62.7488 52.1059 62.9447 52.5864C63.1079 52.9761 63.1913 53.3946 63.1897 53.8171C63.1898 54.1016 63.1415 54.3841 63.0469 54.6524C63.0216 54.7248 62.9919 54.7957 62.9582 54.8646C62.9507 54.8923 62.9397 54.9189 62.9254 54.9437Z" fill="#263238"/>
<path d="M58.416 44.5778C58.4543 44.5599 58.4944 44.5463 58.5356 44.5372C58.6166 44.5128 58.7343 44.4839 58.8886 44.4504C59.3271 44.3616 59.7743 44.3227 60.2216 44.3347C60.886 44.3519 61.5409 44.4966 62.1506 44.761C62.9032 45.0905 63.5477 45.6253 64.0102 46.3042C64.4847 46.9799 64.7209 47.7943 64.6815 48.6191C64.6348 49.2889 64.395 49.9308 63.9909 50.4671C63.7216 50.8282 63.3757 51.1252 62.9782 51.3371C62.87 51.393 62.7578 51.4407 62.6425 51.4798C62.6036 51.4965 62.5628 51.5081 62.521 51.5146C62.5574 51.4935 62.5955 51.4754 62.6348 51.4606C62.7462 51.415 62.8544 51.3621 62.9589 51.3024C63.3421 51.0821 63.6741 50.7829 63.9331 50.4247C64.3194 49.8955 64.5469 49.2671 64.5889 48.6133C64.6214 47.81 64.389 47.0183 63.9273 46.3602C63.4744 45.697 62.8468 45.1722 62.114 44.844C61.5132 44.5812 60.869 44.4321 60.2139 44.4041C59.771 44.3869 59.3276 44.4153 58.8906 44.489C58.5877 44.5411 58.4179 44.5874 58.416 44.5778Z" fill="#263238"/>
<path d="M64.2514 46.541C64.2322 46.541 64.3132 46.2401 64.3286 45.7501C64.3371 45.6178 64.3371 45.485 64.3286 45.3527C64.3196 45.2002 64.3029 45.0483 64.2785 44.8975C64.1632 44.2022 63.8907 43.5424 63.4818 42.9684C63.3923 42.8445 63.2963 42.7254 63.1943 42.6116C63.1087 42.5099 63.0166 42.4138 62.9185 42.3241C62.5616 41.9904 62.2935 41.838 62.305 41.8187C62.3734 41.8446 62.4382 41.8789 62.498 41.921C62.5718 41.9621 62.6421 42.0092 62.7082 42.0618C62.7999 42.1264 62.8875 42.1966 62.9706 42.272C63.0732 42.36 63.1699 42.4548 63.2599 42.5556C63.3669 42.6695 63.4674 42.7893 63.5609 42.9144C63.7709 43.2035 63.9475 43.5154 64.0875 43.8442C64.2208 44.1759 64.3165 44.5214 64.373 44.8743C64.3959 45.0284 64.4101 45.1836 64.4154 45.3392C64.4242 45.4747 64.4242 45.6107 64.4154 45.7462C64.4095 45.8581 64.3972 45.9695 64.3788 46.08C64.3686 46.1633 64.3525 46.2458 64.3305 46.3269C64.3142 46.4016 64.2876 46.4736 64.2514 46.541Z" fill="#263238"/>
<path d="M70.6009 46.8455C70.6009 46.8648 70.3 46.805 69.8139 46.8088C69.5304 46.8122 69.2477 46.8399 68.969 46.8918C68.6289 46.9578 68.2956 47.0553 67.9736 47.1831C67.6533 47.3162 67.3465 47.4796 67.0573 47.6711C66.8221 47.8295 66.6007 48.0077 66.3956 48.2035C66.0465 48.5392 65.8729 48.7822 65.8574 48.7822C65.8873 48.7171 65.9255 48.6561 65.9712 48.6009C66.0178 48.5334 66.0687 48.4689 66.1236 48.408C66.1925 48.3218 66.2666 48.24 66.3455 48.163C66.547 47.9559 66.7679 47.7685 67.0052 47.6036C67.5884 47.1992 68.2537 46.9284 68.9535 46.8107C69.2376 46.7621 69.5258 46.7415 69.8139 46.749C69.9248 46.7485 70.0357 46.7556 70.1457 46.7702C70.2287 46.776 70.3112 46.7876 70.3926 46.805C70.4635 46.8093 70.5336 46.8229 70.6009 46.8455Z" fill="#263238"/>
<path d="M74.345 63.3134C74.3637 63.3412 74.378 63.3718 74.3874 63.404C74.4209 63.4954 74.4486 63.5888 74.4703 63.6837C74.5457 64.034 74.5678 64.3936 74.5359 64.7505C74.4886 65.2806 74.3489 65.7983 74.1231 66.2802C73.8475 66.8695 73.4817 67.4123 73.039 67.889C72.6023 68.3729 72.0746 68.7662 71.4861 69.0464C71.0031 69.2708 70.4849 69.4099 69.9545 69.4573C69.5997 69.4865 69.2433 69.493 68.8877 69.4766C68.7623 69.4766 68.6659 69.4766 68.6003 69.4766C68.5664 69.4812 68.532 69.4812 68.498 69.4766C68.5302 69.464 68.564 69.4562 68.5984 69.4535C68.6944 69.4419 68.791 69.4361 68.8877 69.4361C69.2414 69.4375 69.5949 69.4201 69.9467 69.384C70.467 69.3277 70.9743 69.1849 71.4475 68.9616C72.0223 68.6803 72.5377 68.2913 72.9657 67.8157C73.3997 67.3449 73.7618 66.8125 74.0402 66.2358C74.2655 65.7639 74.4091 65.257 74.4646 64.737C74.503 64.3867 74.492 64.0328 74.4318 63.6857C74.4153 63.5908 74.394 63.4968 74.3681 63.404C74.3571 63.3747 74.3493 63.3443 74.345 63.3134Z" fill="#263238"/>
<g opacity="0.3">
<path d="M59.248 55.1205C58.4287 55.412 57.6795 55.872 57.0489 56.4709C55.474 55.9332 53.8067 55.7192 52.147 55.8415C50.4873 55.9638 48.8694 56.42 47.3902 57.1827C46.8733 57.4547 46.3659 57.7614 45.8007 57.9157C45.0966 58.1086 44.3539 58.0276 43.6286 57.9871C41.987 57.8964 40.3165 57.9967 38.7539 58.506C37.1914 59.0153 35.7369 59.9431 34.8071 61.2935C33.8773 62.6438 33.5243 64.4359 34.0664 65.9868L34.2593 66.2569C34.1165 64.5786 34.838 62.9158 36.0803 61.5481C37.3226 60.1804 39.0163 58.9786 40.845 58.7278C42.6737 58.4771 44.4292 58.8378 46.2463 59.1754C49.9713 57.1422 54.2827 56.4535 58.3992 57.474C58.2331 57.0453 58.2275 56.571 58.3834 56.1385C58.5394 55.706 58.8465 55.3445 59.248 55.1205Z" fill="black"/>
</g>
<g opacity="0.3">
<path d="M51.1337 63.4366C50.1722 64.0777 49.0818 64.5002 47.9393 64.6746C46.7968 64.8489 45.63 64.7707 44.521 64.4455C41.3092 66.1025 40.3427 65.4659 38.8535 64.976C39.5904 65.8788 40.9562 66.3687 42.1194 66.4247C42.7035 66.449 43.2864 66.352 43.8312 66.1399C44.3761 65.9277 44.871 65.605 45.2849 65.192C46.8899 65.7707 48.6627 65.5778 50.3602 65.3849L54.6041 64.8776C56.1685 64.6847 57.7446 64.5034 59.2492 64.0307C60.7539 63.5581 62.1948 62.7749 63.2172 61.5751C59.6601 63.9787 55.2754 64.5902 51.1337 63.4366Z" fill="black"/>
</g>
<g opacity="0.3">
<path d="M33.4394 53.3843C34.1204 53.6042 35.1061 53.4055 35.735 53.0641C36.0489 52.8901 36.3248 52.6551 36.5464 52.3728C36.768 52.0905 36.9309 51.7668 37.0255 51.4206C37.0481 51.2302 37.1305 51.0519 37.2608 50.9113C37.4363 50.8117 37.6394 50.7717 37.8395 50.7975C38.1731 50.7901 38.5009 50.7089 38.7995 50.5599C39.098 50.4108 39.3598 50.1975 39.5661 49.9353C39.7725 49.6731 39.9182 49.3685 39.9929 49.0433C40.0676 48.7181 40.0694 48.3804 39.9981 48.0544C39.4291 49.5745 37.6003 50.4946 36.0397 50.0432C35.9877 51.3935 35.5864 52.985 33.4355 53.3843" fill="black"/>
</g>
<g opacity="0.3">
<path d="M46.1171 43.1005C45.5004 42.2674 44.6706 41.6159 43.7151 41.2143C42.7596 40.8127 41.7135 40.676 40.6868 40.8184C39.6385 40.966 38.6342 41.3377 37.7424 41.9082C36.8507 42.4788 36.0923 43.2348 35.5189 44.1248C34.4495 44.1289 33.391 44.3399 32.4016 44.7459C31.4077 45.158 30.5795 45.8898 30.0482 46.8254C29.6148 47.6068 29.3853 48.4847 29.3809 49.3782C29.3765 50.2717 29.5974 51.1518 30.0231 51.9374C29.7106 49.9948 30.1119 48.3687 31.167 47.1148C32.2222 45.8609 34.4368 44.8385 36.0726 44.9215C36.3443 44.2667 36.7646 43.684 37.3002 43.2197C37.8359 42.7553 38.4723 42.4219 39.159 42.2459C40.6105 41.8196 42.154 41.8196 43.6055 42.2459C45.0156 42.6954 47.0276 44.827 47.0295 45.1395C47.1028 44.4566 46.771 43.9917 46.1171 43.1005Z" fill="black"/>
</g>
<g opacity="0.3">
<path d="M60.8391 40.4941C58.2504 40.1083 55.5979 41.5319 54.0875 43.6732C52.5771 45.8144 52.4035 48.2681 52.6021 50.88C52.6021 50.88 53.5667 46.4548 55.1234 44.3676C57.0274 41.8271 60.216 40.1122 60.8391 40.4941Z" fill="black"/>
</g>
<g opacity="0.3">
<path d="M58.7221 47.5979C59.0044 48.2461 59.1032 48.9595 59.0076 49.66C60.3483 49.66 61.5751 50.5223 62.3024 51.6489C61.7691 51.1136 61.1107 50.7197 60.3868 50.503C59.6692 50.287 59.0211 50.177 58.3633 50.395C58.5253 49.3919 58.7877 48.4312 58.697 47.5284" fill="black"/>
</g>
<g opacity="0.3">
<path d="M76.5426 58.6992C76.2239 57.707 75.5388 56.8737 74.6271 56.369C76.0661 58.4793 75.8424 61.2841 74.3454 63.3135C74.7949 64.8992 74.4535 66.8726 71.8223 68.8228C73.4021 68.5585 75.1151 66.8417 75.3196 65.2522C75.4026 64.5905 75.3196 63.9018 75.5125 63.2672C75.6823 62.7058 76.0584 62.2332 76.3169 61.7085C76.7732 60.7709 76.854 59.6944 76.5426 58.6992Z" fill="black"/>
</g>
<g opacity="0.3">
<path d="M24.6035 53.3224C24.6035 53.3474 24.617 53.3706 24.6228 53.3957C24.6228 53.3552 24.6382 53.3166 24.6498 53.2761L24.6035 53.3224Z" fill="black"/>
</g>
<g opacity="0.3">
<path d="M27.3084 60.1788C27.0104 59.7752 26.7864 59.3219 26.6467 58.84C26.3709 57.6826 26.9553 56.5252 27.5206 55.4893C26.1702 55.6263 25.0128 54.9453 24.627 53.3963C24.3994 54.4534 24.6907 55.6996 25.5607 56.3304C25.3693 57.1331 25.3467 57.9668 25.4942 58.7787C25.6417 59.5906 25.9561 60.3631 26.4176 61.0472C26.8791 61.7313 27.4775 62.3122 28.1751 62.7531C28.8726 63.194 29.6541 63.4853 30.4701 63.6086C29.2499 62.6306 28.1841 61.4743 27.3084 60.1788Z" fill="black"/>
</g>
<path d="M55.9232 72.3827C55.7651 72.6625 53.7878 74.3253 54.434 76.372C55.2751 79.0341 59.2991 79.1247 62.4646 78.5094C67.1155 77.6046 69.3204 75.6158 69.3204 72.9557C69.3204 70.8125 55.9232 72.3827 55.9232 72.3827Z" fill="#CDCDCD"/>
<path d="M69.3215 72.9566C69.2689 72.9544 69.2166 72.9473 69.1653 72.9354L68.7216 72.8544C68.5287 72.8158 68.2953 72.7772 68.0213 72.7348C67.7474 72.6923 67.4426 72.6422 67.0896 72.6017C66.3971 72.5052 65.5695 72.4338 64.6475 72.3721C63.7254 72.3104 62.7184 72.2872 61.6478 72.2834C59.5162 72.2834 57.5872 72.3856 56.1925 72.4628L54.5393 72.5592L54.0898 72.5843C54.0379 72.5894 53.9856 72.5894 53.9336 72.5843C53.9853 72.5745 54.0374 72.5674 54.0898 72.5631L54.5374 72.5206C54.9232 72.4859 55.4903 72.4416 56.1867 72.3914C57.5814 72.2969 59.5124 72.1811 61.6478 72.1831C62.7146 72.1831 63.7312 72.2178 64.6532 72.2795C65.5753 72.3412 66.4067 72.4261 67.0993 72.5303C67.4446 72.5766 67.7571 72.6287 68.031 72.6808C68.3049 72.7328 68.5403 72.7714 68.7293 72.8158L69.1691 72.9161C69.221 72.9251 69.272 72.9386 69.3215 72.9566Z" fill="#263238"/>
<g opacity="0.3">
<path d="M69.3209 72.9972C64.616 71.8397 59.6641 72.3143 54.8223 72.54C59.9419 73.0126 64.8301 73.0203 69.3209 72.9972Z" fill="black"/>
</g>
<g opacity="0.3">
<path d="M48.7518 67.9141C47.9358 68.1533 46.4369 68.6066 45.7077 68.8786C45.5959 69.4901 45.3509 70.0033 44.8107 70.2945C44.1792 70.5803 43.4803 70.6839 42.793 70.5935C43.6051 70.7498 44.4481 70.8887 45.2506 70.6977C46.053 70.5067 46.8169 69.9029 46.9404 69.087C51.5562 67.5244 56.4331 66.8802 61.2963 67.1907C57.1662 66.3554 52.795 66.7258 48.7518 67.9141Z" fill="black"/>
</g>
<g opacity="0.3">
<path d="M63.8795 50.5399L63.9181 50.5186C64.4461 50.2074 64.8525 49.7258 65.0705 49.1529C65.2886 48.5801 65.3053 47.9502 65.1179 47.3666C65.0316 47.1803 64.9744 46.9819 64.9482 46.7782C64.9579 46.5687 64.9996 46.3618 65.0716 46.1648C65.2116 45.5712 65.1431 44.9475 64.8775 44.3985C64.612 43.8494 64.1656 43.4085 63.6133 43.1497C63.8814 43.4584 64.736 44.7065 64.192 46.7724C64.192 46.7724 64.8633 47.9742 64.5952 49.0159" fill="black"/>
</g>
<g opacity="0.3">
<path d="M44.2899 54.6437C44.8686 54.0959 44.8879 52.9481 44.6757 52.1765C44.4635 51.4049 43.9523 50.749 43.4122 50.1587C43.6941 49.9495 43.929 49.6834 44.1016 49.3777C44.2742 49.0719 44.3807 48.7333 44.4142 48.3838C44.4476 48.0343 44.4073 47.6817 44.2959 47.3488C44.1844 47.0158 44.0043 46.71 43.7671 46.4511C43.6823 47.1128 43.6765 47.9345 43.3813 48.5345C43.1352 49.0833 42.7064 49.5298 42.168 49.798C43.6823 50.5542 44.3941 52.7089 44.3381 54.1152L44.2899 54.6437Z" fill="black"/>
</g>
<path d="M69.8205 64.3497C69.8953 63.9996 69.9064 63.6389 69.8533 63.2848C69.7854 62.9039 69.6432 62.5401 69.4347 62.2142C69.1734 61.8189 68.8364 61.4793 68.4432 61.215C68.0481 60.9516 67.62 60.7414 67.17 60.59C66.8018 60.463 66.4254 60.3611 66.0434 60.2852C65.7155 60.2215 65.4493 60.1829 65.2718 60.154C65.1754 60.1424 65.08 60.1237 64.9863 60.0981C65.0837 60.0933 65.1813 60.0985 65.2776 60.1135C65.4705 60.1328 65.7329 60.1598 66.0627 60.2157C66.451 60.2811 66.8335 60.3773 67.2066 60.5032C67.6679 60.651 68.1062 60.8627 68.5087 61.132C68.9129 61.4046 69.2574 61.7563 69.5215 62.166C69.7324 62.5038 69.8716 62.8813 69.9304 63.2752C69.9708 63.5398 69.9649 63.8093 69.9131 64.0719C69.8995 64.1426 69.8808 64.2122 69.8571 64.2802C69.8478 64.3048 69.8354 64.3281 69.8205 64.3497Z" fill="#263238"/>
<g opacity="0.3">
<path d="M67.3876 59.2644C67.7901 58.2355 67.9556 57.1292 67.8718 56.0275C67.1653 57.5705 66.1767 58.968 64.957 60.1479C66.5234 60.2386 68.1207 60.825 69.2414 61.9227C69.2199 61.3485 69.0337 60.7926 68.705 60.3212C68.3763 59.8499 67.919 59.4831 67.3876 59.2644Z" fill="black"/>
</g>
</svg>
