<svg width="72" height="79" viewBox="0 0 72 79" fill="none" xmlns="http://www.w3.org/2000/svg">
<rect width="41.3624" height="55.3294" rx="4" transform="matrix(0.965682 -0.259727 0.257914 0.966168 0 25.542)" fill="#6C8DFF"/>
<g clip-path="url(#clip0_7990_79300)">
<rect width="41.362" height="55.33" rx="4" transform="matrix(0.967068 0.254519 -0.252738 0.967535 32 0)" fill="#9EB4FF"/>
<mask id="path-4-outside-1_7990_79300" maskUnits="userSpaceOnUse" x="27.4385" y="12.9567" width="35.1655" height="38.0876" fill="black">
<rect fill="white" x="27.4385" y="12.9567" width="35.1655" height="38.0876"/>
<path d="M32.2519 44.1506L28.6803 43.2106L46.3627 17.7829L49.8794 18.7084L52.857 49.5736L49.2855 48.6336L47.0678 22.7274L46.848 22.6696L32.2519 44.1506ZM36.4426 33.503L50.8388 37.2918L50.0489 40.3154L35.6528 36.5265L36.4426 33.503Z"/>
</mask>
<path d="M32.2519 44.1506L28.6803 43.2106L46.3627 17.7829L49.8794 18.7084L52.857 49.5736L49.2855 48.6336L47.0678 22.7274L46.848 22.6696L32.2519 44.1506ZM36.4426 33.503L50.8388 37.2918L50.0489 40.3154L35.6528 36.5265L36.4426 33.503Z" fill="white"/>
<path d="M32.2519 44.1506L31.9991 45.1181C32.4085 45.2259 32.8409 45.0641 33.0787 44.7141L32.2519 44.1506ZM28.6803 43.2106L27.8596 42.6382C27.6732 42.9063 27.6295 43.2489 27.7427 43.5558C27.8559 43.8626 28.1116 44.095 28.4276 44.1782L28.6803 43.2106ZM46.3627 17.7829L46.6155 16.8154C46.2099 16.7086 45.7813 16.8664 45.5421 17.2105L46.3627 17.7829ZM49.8794 18.7084L50.8743 18.6138C50.834 18.1962 50.5376 17.8476 50.1321 17.7409L49.8794 18.7084ZM52.857 49.5736L52.6043 50.5411C52.9203 50.6243 53.2567 50.5478 53.5053 50.3361C53.7539 50.1245 53.8833 49.8045 53.8519 49.479L52.857 49.5736ZM49.2855 48.6336L48.2896 48.7174C48.3257 49.1395 48.6233 49.4934 49.0327 49.6012L49.2855 48.6336ZM47.0678 22.7274L48.0637 22.6436C48.0275 22.2216 47.7299 21.8676 47.3205 21.7599L47.0678 22.7274ZM46.848 22.6696L47.1007 21.7021C46.6913 21.5943 46.259 21.7561 46.0212 22.1061L46.848 22.6696ZM36.4426 33.503L36.6954 32.5354C36.1613 32.3949 35.6151 32.7141 35.4756 33.2485L36.4426 33.503ZM50.8388 37.2918L51.8058 37.5464C51.9454 37.012 51.6256 36.4649 51.0915 36.3243L50.8388 37.2918ZM50.0489 40.3154L49.7962 41.2829C50.3303 41.4235 50.8764 41.1043 51.016 40.5699L50.0489 40.3154ZM35.6528 36.5265L34.6858 36.272C34.5462 36.8064 34.866 37.3535 35.4001 37.4941L35.6528 36.5265ZM32.5046 43.1831L28.9331 42.2431L28.4276 44.1782L31.9991 45.1181L32.5046 43.1831ZM29.501 43.783L47.1834 18.3553L45.5421 17.2105L27.8596 42.6382L29.501 43.783ZM46.11 18.7504L49.6266 19.6759L50.1321 17.7409L46.6155 16.8154L46.11 18.7504ZM48.8844 18.803L51.8621 49.6682L53.8519 49.479L50.8743 18.6138L48.8844 18.803ZM53.1098 48.6061L49.5382 47.6661L49.0327 49.6012L52.6043 50.5411L53.1098 48.6061ZM50.2814 48.5498L48.0637 22.6436L46.0719 22.8113L48.2896 48.7174L50.2814 48.5498ZM47.3205 21.7599L47.1007 21.7021L46.5952 23.6371L46.815 23.695L47.3205 21.7599ZM46.0212 22.1061L31.4251 43.5871L33.0787 44.7141L47.6748 23.2331L46.0212 22.1061ZM36.1899 34.4705L50.586 38.2594L51.0915 36.3243L36.6954 32.5354L36.1899 34.4705ZM49.8717 37.0373L49.0819 40.0609L51.016 40.5699L51.8058 37.5464L49.8717 37.0373ZM50.3017 39.3478L35.9056 35.559L35.4001 37.4941L49.7962 41.2829L50.3017 39.3478ZM36.6199 36.781L37.4097 33.7575L35.4756 33.2485L34.6858 36.272L36.6199 36.781Z" fill="#6C8DFF" mask="url(#path-4-outside-1_7990_79300)"/>
</g>
<rect x="0.357165" y="0.611027" width="40.362" height="54.33" rx="3.5" transform="matrix(0.967068 0.254519 -0.252738 0.967535 32.1662 -0.0710681)" stroke="#6C8DFF"/>
<defs>
<clipPath id="clip0_7990_79300">
<rect width="41.362" height="55.33" rx="4" transform="matrix(0.967068 0.254519 -0.252738 0.967535 32 0)" fill="white"/>
</clipPath>
</defs>
</svg>
