<svg width="16" height="16" viewBox="0 0 16 16" fill="none" xmlns="http://www.w3.org/2000/svg">
<g clip-path="url(#clip0_6774_61916)">
<path d="M8 16C12.4183 16 16 12.4183 16 8C16 3.58172 12.4183 0 8 0C3.58172 0 0 3.58172 0 8C0 12.4183 3.58172 16 8 16Z" fill="#F0F0F0"/>
<path d="M13.5981 2.28575C12.1552 0.872 10.1797 0 8.00008 0C7.30442 0 5.26902 0.872 3.82617 2.28575H13.5981Z" fill="#6DA544"/>
<path d="M8.00016 6.85701H15.9185C15.8031 6.04998 15.5674 5.28185 15.2298 4.57129H7.65234L8.00016 6.85701Z" fill="#6DA544"/>
<path d="M0.77075 11.4288H15.2301C15.5676 10.7183 15.8033 9.9501 15.9188 9.14307H0.0820312C0.1975 9.95013 0.433156 10.7183 0.77075 11.4288Z" fill="#6DA544"/>
<path d="M2.40234 13.7144C3.84525 15.1281 5.82081 16.0001 8.00041 16.0001C10.18 16.0001 12.1556 15.1281 13.5985 13.7144H2.40234Z" fill="#6DA544"/>
<path d="M8.00041 0C3.97022 0 0.636656 2.98034 0.0820312 6.85716H8.00041V0Z" fill="#D80027"/>
<path d="M4.00016 6.13318L3.65234 5.43755V4.04624L4.52191 3.35059L5.39147 4.04624V5.08971L5.73928 4.7419V5.43755L5.04363 6.13318H4.00016Z" fill="#F0F0F0"/>
<path d="M2.12935 4L2.22145 4.28344H2.51945L2.27835 4.45866L2.37048 4.74206L2.12935 4.56687L1.88823 4.74206L1.98035 4.45866L1.73926 4.28344H2.03726L2.12935 4Z" fill="#F0F0F0"/>
<path d="M2.82466 3.3042L2.91676 3.58764H3.21479L2.97366 3.76286L3.06576 4.04626L2.82466 3.87111L2.58357 4.04626L2.6757 3.76286L2.43457 3.58764H2.73254L2.82466 3.3042Z" fill="#F0F0F0"/>
<path d="M3.52095 2.6084L3.61305 2.89184H3.91102L3.66995 3.06705L3.76202 3.35046L3.52095 3.1753L3.27983 3.35046L3.37192 3.06705L3.13086 2.89184H3.42883L3.52095 2.6084Z" fill="#F0F0F0"/>
<path d="M6.91448 4L6.82238 4.28344H6.52441L6.76548 4.45866L6.67338 4.74206L6.91448 4.56687L7.1556 4.74206L7.06351 4.45866L7.30457 4.28344H7.0066L6.91448 4Z" fill="#F0F0F0"/>
<path d="M6.21916 3.3042L6.12707 3.58764H5.8291L6.07016 3.76286L5.97807 4.04626L6.21916 3.87111L6.46029 4.04626L6.36816 3.76286L6.60926 3.58764H6.31129L6.21916 3.3042Z" fill="#F0F0F0"/>
<path d="M5.52291 2.6084L5.43078 2.89184H5.13281L5.37388 3.06705L5.28178 3.35046L5.52291 3.1753L5.764 3.35046L5.67191 3.06705L5.91297 2.89184H5.615L5.52291 2.6084Z" fill="#F0F0F0"/>
<path d="M4.52193 2.26074L4.4298 2.54418H4.13184L4.3729 2.71937L4.2808 3.00277L4.52193 2.82762L4.76302 3.00277L4.67093 2.71937L4.91199 2.54418H4.61402L4.52193 2.26074Z" fill="#F0F0F0"/>
</g>
<defs>
<clipPath id="clip0_6774_61916">
<rect width="16" height="16" fill="white"/>
</clipPath>
</defs>
</svg>
