<svg width="16" height="16" viewBox="0 0 16 16" fill="none" xmlns="http://www.w3.org/2000/svg">
<g clip-path="url(#clip0_6774_61951)">
<path d="M7.99952 0C12.4178 0 15.9995 3.58175 15.9995 8C15.9995 12.4183 12.4178 16 7.99952 16C7.99952 15.6522 6.95605 8 6.95605 8L7.99952 0Z" fill="#F0F0F0"/>
<path d="M8 16C3.58175 16 0 12.4183 0 8C0 3.58175 3.58175 0 8 0" fill="#496E2D"/>
<path d="M9.71941 6.46533L9.06303 7.36986L8 7.02511L8.65744 7.92886L8.00113 8.8334L9.06375 8.48743L9.72119 9.39114L9.7205 8.27361L10.7832 7.92761L9.72016 7.58293L9.71941 6.46533Z" fill="#D80027"/>
<path d="M8.66388 10.2608C7.41525 10.2608 6.403 9.24854 6.403 7.99991C6.403 6.75129 7.41525 5.73904 8.66388 5.73904C9.05319 5.73904 9.41953 5.83747 9.73934 6.01079C9.23759 5.52013 8.55147 5.21729 7.79431 5.21729C6.2575 5.21729 5.01172 6.4631 5.01172 7.99988C5.01172 9.53666 6.25753 10.7825 7.79431 10.7825C8.5515 10.7825 9.23763 10.4796 9.73934 9.98897C9.41953 10.1623 9.05319 10.2608 8.66388 10.2608Z" fill="#D80027"/>
</g>
<defs>
<clipPath id="clip0_6774_61951">
<rect width="16" height="16" fill="white"/>
</clipPath>
</defs>
</svg>
