<svg width="16" height="16" viewBox="0 0 16 16" fill="none" xmlns="http://www.w3.org/2000/svg">
<g clip-path="url(#clip0_6774_61980)">
<path d="M16 8C16 12.4183 12.4183 16 8 16C3.58175 16 0 12.4183 0 8C0 8.00191 8 0.000875 8 0C12.4183 0 16 3.58175 16 8Z" fill="#0052B4"/>
<path d="M7.97852 7.99992H7.99992C7.99992 7.99273 7.99992 7.98573 7.99992 7.97852C7.9928 7.98567 7.98567 7.9928 7.97852 7.99992Z" fill="#F0F0F0"/>
<path d="M8 4.17391C8 2.76625 8 1.84391 8 0H7.99866C3.58097 0.00075 0 3.58216 0 8H4.17391V5.64966L6.52425 8H7.97862C7.98575 7.99288 7.99288 7.98575 8.00003 7.97859C8.00003 7.43963 8.00003 6.95872 8.00003 6.52431L5.64962 4.17391H8Z" fill="#F0F0F0"/>
<path d="M4.04782 1.04346C2.7966 1.75593 1.75638 2.79611 1.04395 4.04733V7.99999H3.13091V3.13049V3.13043H8.00048C8.00048 2.47221 8.00048 1.84514 8.00048 1.04346H4.04782Z" fill="#D80027"/>
<path d="M8.0009 7.01611L5.15855 4.17383H4.1748V4.17389L8.00084 7.99989H8.0009C8.0009 7.99989 8.0009 7.32155 8.0009 7.01611Z" fill="#D80027"/>
<path d="M13.5298 9.17092C13.7599 8.85442 13.9135 8.46792 13.9135 7.99986V4.52161C13.6228 4.73998 13.2616 4.86942 12.87 4.86942C12.3011 4.86942 11.796 4.5962 11.4787 4.17383C11.1614 4.5962 10.6563 4.86942 10.0874 4.86942C9.69585 4.86942 9.3346 4.73995 9.04395 4.52167V7.99986C9.04395 8.46792 9.1976 8.85442 9.42763 9.17092H13.5298Z" fill="#F3F3F3"/>
<path d="M12.806 7.35476C12.9167 7.08457 13.0029 6.68967 13.0029 6.49314C13.0029 6.17736 12.5912 5.92139 12.5912 5.92139C12.5912 5.92139 12.1795 6.17736 12.1795 6.49314C12.1795 6.6897 12.2656 7.08461 12.3763 7.35476L12.1387 7.89136C12.2784 7.94817 12.431 7.97973 12.5912 7.97973C12.7514 7.97973 12.904 7.94814 13.0437 7.89136L12.806 7.35476Z" fill="#FF9811"/>
<path d="M11.1964 5.61716C10.9071 5.65635 10.522 5.77932 10.3518 5.87757C10.0784 6.03547 10.0625 6.51994 10.0625 6.51994C10.0625 6.51994 10.4901 6.74847 10.7635 6.5906C10.9337 6.49232 11.2326 6.22032 11.4112 5.98932L11.9948 5.92682C11.9741 5.7775 11.925 5.62947 11.845 5.49082C11.7649 5.35216 11.6613 5.23566 11.5422 5.14307L11.1964 5.61716Z" fill="#FF9811"/>
<path d="M10.4967 7.87948C10.6752 8.11036 10.9742 8.38233 11.1444 8.48064C11.4179 8.63852 11.8454 8.41005 11.8454 8.41005C11.8454 8.41005 11.8295 7.92552 11.5561 7.76761C11.3858 7.66933 11.0008 7.54648 10.7115 7.50736L10.3656 7.0332C10.2466 7.12577 10.143 7.24233 10.0629 7.38086C9.98284 7.51958 9.93384 7.66755 9.91309 7.81695L10.4967 7.87948Z" fill="#FF9811"/>
<path d="M9.34082 9.04346C9.99045 10.0858 11.478 10.4347 11.478 10.4347C11.478 10.4347 12.9655 10.0858 13.6151 9.04346H9.34082Z" fill="#338AF3"/>
</g>
<defs>
<clipPath id="clip0_6774_61980">
<rect width="16" height="16" fill="white"/>
</clipPath>
</defs>
</svg>
