<svg width="16" height="16" viewBox="0 0 16 16" fill="none" xmlns="http://www.w3.org/2000/svg">
<g clip-path="url(#clip0_6774_61995)">
<path d="M0 8.00005C0 8.54802 0.05525 9.08309 0.160219 9.60006L8 10.087L15.8398 9.60006C15.9448 9.08309 16 8.54802 16 8.00005C16 7.45209 15.9447 6.91702 15.8398 6.40005L8 5.91309L0.160219 6.40005C0.05525 6.91702 0 7.45209 0 8.00005H0Z" fill="#0052B4"/>
<path d="M15.8397 9.6001H0.160156C0.901375 13.2517 4.12966 16.0001 7.99994 16.0001C11.8702 16.0001 15.0985 13.2517 15.8397 9.6001Z" fill="#F0F0F0"/>
<path d="M0.160156 6.4H15.8398C15.0985 2.74844 11.8703 0 7.99994 0C4.12959 0 0.901375 2.74844 0.160156 6.4Z" fill="black"/>
<path d="M11.478 6.40015H4.52148L5.94273 5.73159L5.18589 4.35518L6.72917 4.65034L6.9248 3.09131L7.99973 4.238L9.07473 3.09131L9.27023 4.65034L10.8136 4.35518L10.0568 5.73165L11.478 6.40015Z" fill="#FFDA44"/>
<path d="M0 7.99999C0 12.4182 3.58175 16 8 16L1.59987 3.19971C0.595375 4.53686 0 6.19883 0 7.99999Z" fill="#A2001D"/>
<path d="M8 16C12.4183 16 16 12.4182 16 7.99999C16 6.19883 15.4046 4.53686 14.4001 3.19971L8 16Z" fill="#A2001D"/>
</g>
<defs>
<clipPath id="clip0_6774_61995">
<rect width="16" height="16" fill="white"/>
</clipPath>
</defs>
</svg>
