<svg width="16" height="16" viewBox="0 0 16 16" fill="none" xmlns="http://www.w3.org/2000/svg">
<g clip-path="url(#clip0_6774_62031)">
<path d="M8 16C12.4183 16 16 12.4183 16 8C16 3.58172 12.4183 0 8 0C3.58172 0 0 3.58172 0 8C0 12.4183 3.58172 16 8 16Z" fill="#F0F0F0"/>
<path d="M8.00013 0C4.82844 0 2.08795 1.84578 0.793945 4.52175H15.2063C13.9123 1.84578 11.1718 0 8.00013 0Z" fill="#338AF3"/>
<path d="M8.00013 15.9998C11.1718 15.9998 13.9123 14.154 15.2063 11.478H0.793945C2.08795 14.154 4.82844 15.9998 8.00013 15.9998Z" fill="#338AF3"/>
<path d="M10.3916 8.00018L9.41453 8.45977L9.93481 9.40599L8.87388 9.20302L8.73944 10.2748L8.00047 9.48652L7.26147 10.2748L7.12706 9.20302L6.06612 9.40596L6.58637 8.45974L5.60938 8.00018L6.58641 7.54059L6.06612 6.5944L7.12703 6.79734L7.2615 5.72559L8.00047 6.51384L8.73947 5.72559L8.87388 6.79734L9.93484 6.5944L9.41456 7.54062L10.3916 8.00018Z" fill="#FFDA44"/>
</g>
<defs>
<clipPath id="clip0_6774_62031">
<rect width="16" height="16" fill="white"/>
</clipPath>
</defs>
</svg>
