<svg width="16" height="16" viewBox="0 0 16 16" fill="none" xmlns="http://www.w3.org/2000/svg">
<g clip-path="url(#clip0_6774_62037)">
<path d="M16 8.00007C16 7.0215 15.824 6.0841 15.5024 5.21747L8 4.86963L0.497594 5.21744C0.176031 6.0841 0 7.0215 0 8.00007C0 8.97863 0.176031 9.91604 0.497594 10.7827L8 11.1305L15.5024 10.7827C15.824 9.91604 16 8.97863 16 8.00007Z" fill="#0052B4"/>
<path d="M8.00045 16.0001C11.4402 16.0001 14.3725 13.8291 15.5029 10.7827H0.498047C1.62839 13.8291 4.56073 16.0001 8.00045 16.0001Z" fill="#FF9811"/>
<path d="M0.498047 5.21741H15.5029C14.3725 2.171 11.4402 0 8.00045 0C4.56073 0 1.62839 2.171 0.498047 5.21741Z" fill="#D80027"/>
</g>
<defs>
<clipPath id="clip0_6774_62037">
<rect width="16" height="16" fill="white"/>
</clipPath>
</defs>
</svg>
