<svg width="16" height="16" viewBox="0 0 16 16" fill="none" xmlns="http://www.w3.org/2000/svg">
<g clip-path="url(#clip0_6774_62041)">
<path d="M8 16C12.4183 16 16 12.4183 16 8C16 3.58172 12.4183 0 8 0C3.58172 0 0 3.58172 0 8C0 12.4183 3.58172 16 8 16Z" fill="#FFDA44"/>
<path d="M7.99995 15.9999C10.4247 15.9999 12.5973 14.921 14.0644 13.2173H1.93555C3.40264 14.921 5.57523 15.9999 7.99995 15.9999Z" fill="#338AF3"/>
<path d="M16 8C16 3.58175 12.4183 0 8 0C3.58175 0 0 3.58175 0 8C0 8.72209 0.09625 9.42153 0.275594 10.087H15.7244C15.9038 9.42153 16 8.72209 16 8Z" fill="#338AF3"/>
<path d="M0.635742 11.1304C0.789961 11.4927 0.970242 11.8412 1.17402 12.1738H14.8256C15.0294 11.8412 15.2097 11.4927 15.364 11.1304H0.635742Z" fill="#338AF3"/>
<path d="M3.66652 5.04562L2.10352 4.35581L3.66652 3.666L4.3563 2.10303L5.04608 3.666L6.60905 4.35581L5.04608 5.04562L4.3563 6.60859L3.66652 5.04562Z" fill="#F0F0F0"/>
<path d="M4.35616 2.96436L4.78212 3.92964L5.74744 4.35567L4.78212 4.78167L4.35616 5.74695L3.93013 4.78167L2.96484 4.35567L3.93013 3.92964L4.35616 2.96436Z" fill="#D80027"/>
</g>
<defs>
<clipPath id="clip0_6774_62041">
<rect width="16" height="16" fill="white"/>
</clipPath>
</defs>
</svg>
