<svg width="16" height="16" viewBox="0 0 16 16" fill="none" xmlns="http://www.w3.org/2000/svg">
<g clip-path="url(#clip0_6774_62070)">
<path d="M16 8.00007C16 7.0215 15.824 6.0841 15.5024 5.21747L8 4.86963L0.497594 5.21744C0.176031 6.0841 0 7.0215 0 8.00007C0 8.97863 0.176031 9.91604 0.497594 10.7827L8 11.1305L15.5024 10.7827C15.824 9.91604 16 8.97863 16 8.00007Z" fill="#D80027"/>
<path d="M8.00045 16.0001C11.4402 16.0001 14.3725 13.8291 15.5029 10.7827H0.498047C1.62839 13.8291 4.56073 16.0001 8.00045 16.0001Z" fill="#6DA544"/>
<path d="M0.498047 5.21741H15.5029C14.3725 2.171 11.4402 0 8.00045 0C4.56073 0 1.62839 2.171 0.498047 5.21741Z" fill="#338AF3"/>
<path d="M8.17364 10.2608C6.92502 10.2608 5.91277 9.24854 5.91277 7.99991C5.91277 6.75129 6.92502 5.73904 8.17364 5.73904C8.56295 5.73904 8.9293 5.83747 9.24911 6.01079C8.74736 5.52013 8.06123 5.21729 7.30408 5.21729C5.76727 5.21729 4.52148 6.4631 4.52148 7.99988C4.52148 9.53666 5.7673 10.7825 7.30408 10.7825C8.06127 10.7825 8.74739 10.4796 9.24911 9.98897C8.9293 10.1623 8.56295 10.2608 8.17364 10.2608Z" fill="#F0F0F0"/>
<path d="M9.91288 6.43457L10.2123 7.27679L11.0197 6.89298L10.6359 7.70029L11.4781 7.99979L10.6359 8.29929L11.0197 9.1066L10.2123 8.72279L9.91288 9.56501L9.61344 8.72279L8.80609 9.1066L9.18991 8.29929L8.34766 7.99979L9.18991 7.70029L8.80609 6.89298L9.61344 7.27679L9.91288 6.43457Z" fill="#F0F0F0"/>
</g>
<defs>
<clipPath id="clip0_6774_62070">
<rect width="16" height="16" fill="white"/>
</clipPath>
</defs>
</svg>
