<svg width="16" height="16" viewBox="0 0 16 16" fill="none" xmlns="http://www.w3.org/2000/svg">
<g clip-path="url(#clip0_6774_62124)">
<path d="M8 16C12.4183 16 16 12.4183 16 8C16 3.58172 12.4183 0 8 0C3.58172 0 0 3.58172 0 8C0 12.4183 3.58172 16 8 16Z" fill="#F0F0F0"/>
<path d="M0 7.99994C0 11.0323 1.68719 13.6704 4.17391 15.0272V0.972656C1.68719 2.32947 0 4.96759 0 7.99994Z" fill="#D80027"/>
<path d="M0 7.9998C0 11.696 2.50691 14.8062 5.91303 15.7242V0.275391C2.50691 1.19339 0 4.30358 0 7.9998Z" fill="#0052B4"/>
<path d="M2.86914 2.78271V4.08706C2.86914 4.7354 3.3947 5.26096 4.04305 5.26096C4.69139 5.26096 5.21695 4.7354 5.21695 4.08706V2.78271H2.86914Z" fill="#D80027"/>
<path d="M4.04368 4.56545C3.77996 4.56545 3.56543 4.35092 3.56543 4.0872V3.47852H4.52196V4.0872C4.52196 4.35092 4.3074 4.56545 4.04368 4.56545Z" fill="#F0F0F0"/>
<path d="M8.69513 8.348H6.60816C6.60816 7.96381 6.2967 7.65234 5.91251 7.65234C5.52832 7.65234 5.21685 7.96381 5.21685 8.348H3.12988C3.12988 8.73222 3.46454 9.04366 3.8487 9.04366H3.82554C3.82554 9.42787 4.13695 9.73931 4.5212 9.73931C4.5212 10.1235 4.8326 10.435 5.21685 10.435H6.60816C6.99235 10.435 7.30382 10.1235 7.30382 9.73931C7.68801 9.73931 7.99948 9.42787 7.99948 9.04366H7.97632C8.36048 9.04366 8.69513 8.73222 8.69513 8.348Z" fill="#FFDA44"/>
<path d="M8.98137 7.23455L8.79875 7.52695L9.02028 7.79095L8.68578 7.70767L8.50313 7.99995L8.47903 7.65605L8.14453 7.57264L8.46425 7.44352L8.44019 7.09961L8.66178 7.36373L8.98137 7.23455Z" fill="#FFDA44"/>
<path d="M7.9158 6.34033L7.84421 6.67755L8.14274 6.84989L7.79987 6.88608L7.72821 7.22321L7.58796 6.90827L7.24512 6.94427L7.50134 6.71358L7.36115 6.39871L7.65965 6.57105L7.9158 6.34033Z" fill="#FFDA44"/>
<path d="M6.60877 5.86475L6.65673 6.20615L6.9962 6.266L6.68639 6.41712L6.73436 6.75853L6.49492 6.51053L6.18505 6.66165L6.34689 6.35725L6.10742 6.10931L6.44695 6.16912L6.60877 5.86475Z" fill="#FFDA44"/>
<path d="M5.21752 5.86475L5.37939 6.16912L5.71886 6.10928L5.47939 6.35731L5.64123 6.66168L5.33142 6.51053L5.09192 6.75846L5.13992 6.41712L4.83008 6.26603L5.16955 6.20615L5.21752 5.86475Z" fill="#FFDA44"/>
<path d="M3.91044 6.34033L4.16663 6.57105L4.46513 6.39871L4.325 6.71371L4.58109 6.9443L4.23831 6.90827L4.09803 7.22321L4.02647 6.88602L3.68359 6.85002L3.98209 6.67758L3.91044 6.34033Z" fill="#FFDA44"/>
<path d="M2.84451 7.23452L3.16423 7.3637L3.3857 7.09961L3.36176 7.44358L3.68135 7.57273L3.34682 7.65605L3.3227 7.99992L3.14016 7.70764L2.80566 7.79098L3.02726 7.52692L2.84451 7.23452Z" fill="#FFDA44"/>
</g>
<defs>
<clipPath id="clip0_6774_62124">
<rect width="16" height="16" fill="white"/>
</clipPath>
</defs>
</svg>
