<svg width="16" height="16" viewBox="0 0 16 16" fill="none" xmlns="http://www.w3.org/2000/svg">
<g clip-path="url(#clip0_6774_62147)">
<path d="M7.99998 0C12.4182 0 16 3.58174 16 7.99998C16 12.4182 12.4182 16 7.99998 16C3.58174 16 0 12.4182 0 7.99998" fill="#FFDA44"/>
<path d="M7.82617 3.55561H14.6525C14.203 2.88414 13.6545 2.28477 13.0279 1.77783H7.82617V3.55561Z" fill="#D80027"/>
<path d="M7.82617 7.11124H15.9507C15.8825 6.49481 15.7443 5.89959 15.5443 5.3335H7.82617V7.11124Z" fill="#D80027"/>
<path d="M0.456241 10.6665H15.5445C15.7446 10.1004 15.8828 9.50511 15.951 8.88867H0.0498047C0.11793 9.50514 0.256117 10.1004 0.456241 10.6665Z" fill="#D80027"/>
<path d="M2.97218 14.2221H13.0279C13.6544 13.7152 14.203 13.1158 14.6525 12.4443H1.34766C1.79716 13.1158 2.34565 13.7152 2.97218 14.2221Z" fill="#D80027"/>
<path d="M8.00002 0C3.58174 0 -3.12497e-05 3.58174 2.04483e-10 8.00005C1.82581 7.99998 3.58174 8.00005 7.99998 8.00005L8.00002 0Z" fill="#4A1F63"/>
<path d="M6.60884 4.17417V4.86983H6.26103V4.17417H5.56538V4.86983H5.21756V3.47852H3.82625V4.86983H3.47841V4.17417H2.78279V4.86983H2.43494V4.17417H1.73926V6.2611H7.3045V4.17417H6.60884Z" fill="#F0F0F0"/>
</g>
<defs>
<clipPath id="clip0_6774_62147">
<rect width="16" height="16" fill="white"/>
</clipPath>
</defs>
</svg>
