<svg width="16" height="16" viewBox="0 0 16 16" fill="none" xmlns="http://www.w3.org/2000/svg">
<g clip-path="url(#clip0_6774_62230)">
<path d="M8 16C12.4183 16 16 12.4183 16 8C16 3.58172 12.4183 0 8 0C3.58172 0 0 3.58172 0 8C0 12.4183 3.58172 16 8 16Z" fill="#F0F0F0"/>
<path d="M0.0673828 9.04346C0.253508 10.472 0.816695 11.7818 1.65348 12.8705L5.91266 9.04346H0.0673828Z" fill="#D80027"/>
<path d="M6.95591 15.9322V10.0869L3.12891 14.3461C4.21756 15.1829 5.52737 15.7461 6.95591 15.9322Z" fill="#D80027"/>
<path d="M6.95591 0.0678711C5.52737 0.253996 4.21756 0.817184 3.12891 1.65396L6.95591 5.91321V0.0678711Z" fill="#D80027"/>
<path d="M0.0673828 6.95688H5.91266L1.65345 3.12988C0.816664 4.21851 0.253477 5.52835 0.0673828 6.95688Z" fill="#D80027"/>
<path d="M9.04297 0.0678711V5.91318L12.87 1.65396C11.7814 0.817246 10.4715 0.253965 9.04297 0.0678711Z" fill="#D80027"/>
<path d="M15.9322 6.95691C15.7461 5.52838 15.1829 4.21854 14.3461 3.12988L10.0869 6.95691H15.9322Z" fill="#D80027"/>
<path d="M10.0869 9.04346L14.3462 12.8705C15.1829 11.7818 15.7461 10.472 15.9323 9.04346H10.0869Z" fill="#D80027"/>
<path d="M9.04297 15.9322C10.4715 15.7461 11.7814 15.1829 12.87 14.3461L9.04297 10.0869V15.9322Z" fill="#D80027"/>
<path d="M14.3469 12.8713L9.47588 8.00016L9.47585 8.00013L14.3469 3.12901C14.1369 2.85601 13.9071 2.59338 13.657 2.34326C13.4069 2.0932 13.1443 1.86335 12.8713 1.65332L8.00016 6.52441H8.00013L3.12904 1.65332C2.85604 1.86338 2.59338 2.09316 2.34326 2.34326C2.0932 2.59338 1.86335 2.85601 1.65332 3.12904L6.52441 8.0001L6.52445 8.00013L1.65335 12.8713C1.86341 13.1442 2.09323 13.4069 2.34329 13.657C2.59338 13.9071 2.85604 14.1369 3.12907 14.3469L8.00013 9.47585L12.8713 14.3469C13.1442 14.1369 13.4069 13.9071 13.657 13.657C13.9071 13.4069 14.1369 13.1442 14.3469 12.8713Z" fill="#496E2D"/>
<path d="M9.04347 15.9323V9.04356V9.0435H15.9323C15.9768 8.70191 16 8.35366 16 8C16 7.64638 15.9768 7.29813 15.9323 6.95656H9.04353L9.0435 6.95653V0.06775C8.70194 0.0232813 8.35372 0 8 0C7.64634 3.125e-05 7.29809 0.0232813 6.95653 0.06775L6.95656 6.95647V6.95653H0.06775C0.02325 7.29809 0 7.64634 0 8C3.125e-05 8.35372 0.02325 8.70191 0.06775 9.04347H6.9565L6.95653 15.9323C7.29812 15.9768 7.64628 16 8 16C8.35372 16 8.70194 15.9768 9.04347 15.9323Z" fill="#F0F0F0"/>
</g>
<defs>
<clipPath id="clip0_6774_62230">
<rect width="16" height="16" fill="white"/>
</clipPath>
</defs>
</svg>
