<svg width="16" height="16" viewBox="0 0 16 16" fill="none" xmlns="http://www.w3.org/2000/svg">
<g clip-path="url(#clip0_6774_62243)">
<path d="M8 16C12.4183 16 16 12.4183 16 8C16 3.58172 12.4183 0 8 0C3.58172 0 0 3.58172 0 8C0 12.4183 3.58172 16 8 16Z" fill="#FCFCFC"/>
<path d="M3.30413 7.42048L2.43457 5.84288L3.30413 4.29004L4.1737 5.84288L3.30413 7.42048Z" fill="#A2001D"/>
<path d="M1.56488 7.42048L0.695312 5.84288L1.56488 4.29004L2.43444 5.84288L1.56488 7.42048Z" fill="#A2001D"/>
<path d="M3.30413 11.71L2.43457 10.1324L3.30413 8.57959L4.1737 10.1324L3.30413 11.71Z" fill="#A2001D"/>
<path d="M1.56488 11.71L0.695312 10.1324L1.56488 8.57959L2.43444 10.1324L1.56488 11.71Z" fill="#A2001D"/>
<path d="M4.17393 1.55291L3.92774 1.11328C3.48618 1.37491 3.07202 1.67781 2.69043 2.01669L3.30437 3.13047L4.17393 1.55291Z" fill="#A2001D"/>
<path d="M3.30403 12.8696L2.68359 13.9776C3.06484 14.3169 3.47872 14.6203 3.92009 14.8825L4.17362 14.4225L3.30403 12.8696Z" fill="#A2001D"/>
<path d="M4.86914 10.0869V15.3639C5.83067 15.7732 6.88858 15.9999 7.99958 15.9999C11.4393 15.9999 14.3716 13.8289 15.502 10.7825L4.86914 10.0869Z" fill="#6DA544"/>
<path d="M15.502 10.7826C15.8236 9.91594 15.9996 8.97856 15.9996 8C15.9996 3.58175 12.4178 0 7.99958 0C6.88867 0 5.83067 0.226656 4.86914 0.635875V10.7826H15.502V10.7826Z" fill="#A2001D"/>
</g>
<defs>
<clipPath id="clip0_6774_62243">
<rect width="16" height="16" fill="white"/>
</clipPath>
</defs>
</svg>
