<svg width="16" height="16" viewBox="0 0 16 16" fill="none" xmlns="http://www.w3.org/2000/svg">
<g clip-path="url(#clip0_6774_62258)">
<path d="M16 7.99999C16 5.25433 14.6166 2.83205 12.509 1.3913L8 1.04346L3.49103 1.39127C1.38344 2.83205 0 5.25436 0 7.99999C0 10.7457 1.38344 13.1679 3.49103 14.6087L8 14.9565L12.509 14.6087C14.6166 13.1679 16 10.7457 16 7.99999Z" fill="#0052B4"/>
<path d="M12.5091 1.39131C11.2252 0.513625 9.6728 0 8.00018 0C6.32759 0 4.77512 0.513625 3.49121 1.39131H12.5091Z" fill="#A2001D"/>
<path d="M3.49121 14.6089C4.77509 15.4866 6.32759 16.0002 8.00018 16.0002C9.6728 16.0002 11.2252 15.4866 12.5091 14.6089H3.49121Z" fill="#A2001D"/>
<path d="M7.99992 11.826C10.113 11.826 11.826 10.113 11.826 7.99992C11.826 5.88683 10.113 4.17383 7.99992 4.17383C5.88683 4.17383 4.17383 5.88683 4.17383 7.99992C4.17383 10.113 5.88683 11.826 7.99992 11.826Z" fill="#F0F0F0"/>
<path d="M7.99958 11.1305C9.72847 11.1305 11.13 9.72896 11.13 8.00007C11.13 6.27117 9.72847 4.86963 7.99958 4.86963C6.27069 4.86963 4.86914 6.27117 4.86914 8.00007C4.86914 9.72896 6.27069 11.1305 7.99958 11.1305Z" fill="#6DA544"/>
<path d="M8.00005 10.087C9.15266 10.087 10.087 9.15266 10.087 8.00005C10.087 6.84745 9.15266 5.91309 8.00005 5.91309C6.84745 5.91309 5.91309 6.84745 5.91309 8.00005C5.91309 9.15266 6.84745 10.087 8.00005 10.087Z" fill="#F0F0F0"/>
<path d="M7.99958 7.47803L6.86914 7.99978V8.86934L7.99958 9.565L9.13002 8.86934V7.99978L7.99958 7.47803Z" fill="#0052B4"/>
<path d="M6.86914 6.95654H9.13002V8.00001H6.86914V6.95654Z" fill="#FFDA44"/>
</g>
<defs>
<clipPath id="clip0_6774_62258">
<rect width="16" height="16" fill="white"/>
</clipPath>
</defs>
</svg>
