<svg width="16" height="16" viewBox="0 0 16 16" fill="none" xmlns="http://www.w3.org/2000/svg">
<g clip-path="url(#clip0_6774_62288)">
<path d="M13.6569 13.6567C10.5327 16.7808 5.46736 16.7808 2.34314 13.6567C-0.781047 10.5325 -0.781047 5.46712 2.34314 2.34291C2.34427 2.34291 9.53245 0.218937 12.6567 3.34312C15.7809 6.46731 13.659 13.6545 13.6569 13.6567Z" fill="#FFDA44"/>
<path d="M13.6565 13.6569C16.7807 10.5327 16.7807 5.46737 13.6565 2.34315C10.5323 -0.781066 5.46699 -0.781035 2.34277 2.34315L13.6565 13.6569Z" fill="#D80027"/>
<path d="M10.0908 10.092C9.7622 10.2211 9.38036 10.2074 9.04908 10.0215C8.46377 9.69297 8.25483 8.94941 8.58342 8.364L8.48367 8.30806C9.48589 8.06641 10.2274 7.15672 10.2144 6.08322C10.2063 5.41581 9.90808 4.81872 9.44161 4.41016L8.7112 5.15847C8.98733 5.37853 9.16636 5.71609 9.17095 6.09588C9.17908 6.76713 8.63964 7.31984 7.96842 7.32794L7.96983 7.44222C7.25942 6.69516 6.10092 6.50788 5.17777 7.05588C4.60383 7.39663 4.23589 7.95338 4.11523 8.56166L5.12848 8.82009C5.18102 8.47091 5.3838 8.14709 5.71039 7.95319C6.28761 7.61053 7.03598 7.80141 7.37864 8.37859L7.47702 8.32025C7.1852 9.30894 7.60223 10.4059 8.53845 10.9314C9.12051 11.2581 9.78664 11.2984 10.3738 11.0987L10.0908 10.092ZM7.97683 8.02344L7.97677 8.02347L7.97683 8.02344Z" fill="#FF9811"/>
<path d="M10.9621 5.41811L10.3967 7.43596L8.70013 7.12268L7.60807 4.87158L4.65785 5.91849L4.4252 5.26286L3.65332 5.16777L4.23491 6.8068L6.2652 6.28755L6.84216 7.91346L5.43866 9.98474L7.82045 12.0162L7.36898 12.5455L7.67257 13.2616L8.80126 11.9383L7.33645 10.4396L8.45604 9.12705L10.9516 9.30686L11.52 6.22843L12.2041 6.35477L12.6725 5.73383L10.9621 5.41811ZM7.99948 8.05439V8.05446V8.05439Z" fill="#FFEACF"/>
</g>
<defs>
<clipPath id="clip0_6774_62288">
<rect width="16" height="16" fill="white"/>
</clipPath>
</defs>
</svg>
