<svg width="16" height="16" viewBox="0 0 16 16" fill="none" xmlns="http://www.w3.org/2000/svg">
<g clip-path="url(#clip0_6774_62323)">
<path d="M8 16C12.4183 16 16 12.4183 16 8C16 3.58172 12.4183 0 8 0C3.58172 0 0 3.58172 0 8C0 12.4183 3.58172 16 8 16Z" fill="#F0F0F0"/>
<path d="M2.34291 2.34288C0.628374 4.05741 -0.14497 6.3566 0.0223116 8.59866L8.59866 0.0223193C6.35659 -0.144993 4.05744 0.628351 2.34291 2.34288Z" fill="#FFDA44"/>
<path d="M2.85645 14.1271C5.9996 16.7715 10.6983 16.6151 13.6568 13.6567C16.6152 10.6983 16.7716 5.99957 14.1271 2.85645L2.85645 14.1271Z" fill="#0052B4"/>
<path d="M7.9717 7.67762L8.6611 7.30418L7.9717 6.93075C7.81073 5.88509 6.98454 5.05887 5.93888 4.89793L5.56541 4.2085L5.19198 4.8979C4.14635 5.05884 3.32016 5.88506 3.15916 6.93071L2.46973 7.30418L3.15913 7.67762C3.3201 8.72328 4.14629 9.5495 5.19195 9.71043L5.56541 10.3999L5.93885 9.71046C6.98454 9.5495 7.81073 8.72328 7.9717 7.67762ZM5.56545 8.6955C4.79704 8.6955 4.17413 8.07262 4.17413 7.30418C4.17413 6.53575 4.79701 5.91287 5.56545 5.91287C6.33388 5.91287 6.95676 6.53575 6.95676 7.30418C6.95676 8.07262 6.33385 8.6955 5.56545 8.6955Z" fill="black"/>
<path d="M5.56479 6.26074L5.86601 6.78246H6.46848L6.16723 7.30421L6.46848 7.82596H5.86601L5.56479 8.34768L5.26357 7.82596H4.66113L4.96235 7.30421L4.66113 6.78246H5.26357L5.56479 6.26074Z" fill="#D80027"/>
</g>
<defs>
<clipPath id="clip0_6774_62323">
<rect width="16" height="16" fill="white"/>
</clipPath>
</defs>
</svg>
