<svg width="16" height="16" viewBox="0 0 16 16" fill="none" xmlns="http://www.w3.org/2000/svg">
<g clip-path="url(#clip0_6774_62466)">
<path d="M16 8C16 12.4183 12.4183 16 8 16C3.58175 16 0 12.4183 0 8C0 8.00191 8 0.000875 8 0C12.4183 0 16 3.58175 16 8Z" fill="#0052B4"/>
<path d="M7.97852 7.99992H7.99992C7.99992 7.99273 7.99992 7.98573 7.99992 7.97852C7.9928 7.98567 7.98567 7.9928 7.97852 7.99992Z" fill="#F0F0F0"/>
<path d="M8 4.17391C8 2.76625 8 1.84391 8 0H7.99866C3.58097 0.00075 0 3.58216 0 8H4.17391V5.64966L6.52425 8H7.97862C7.98575 7.99288 7.99288 7.98575 8.00003 7.97859C8.00003 7.43963 8.00003 6.95872 8.00003 6.52431L5.64962 4.17391H8Z" fill="#F0F0F0"/>
<path d="M4.04782 1.04346C2.7966 1.75593 1.75638 2.79611 1.04395 4.04733V7.99999H3.13091V3.13049V3.13043H8.00048C8.00048 2.47221 8.00048 1.84514 8.00048 1.04346H4.04782Z" fill="#D80027"/>
<path d="M11.4787 8L9.31641 10.1623C9.72166 10.9439 10.5375 11.4782 11.4787 11.4782C12.4198 11.4782 13.2357 10.9439 13.641 10.1623L11.4787 8Z" fill="#FFDA44"/>
<path d="M7.99992 7.01611L5.15758 4.17383H4.17383V4.17389L7.99986 7.99989H7.99992C7.99992 7.99989 7.99992 7.32155 7.99992 7.01611Z" fill="#D80027"/>
<path d="M9.04395 4.17383V7.99989V7.99992C9.04398 9.86364 11.4787 10.4347 11.4787 10.4347C11.4787 10.4347 13.9135 9.86364 13.9135 7.99992V7.99989V4.17383H9.04395Z" fill="#6DA544"/>
<path d="M10.9561 5.91309H11.9995V8.69568H10.9561V5.91309Z" fill="#F0F0F0"/>
<path d="M11.4778 6.43461C11.766 6.43461 11.9996 6.20102 11.9996 5.91286C11.9996 5.62471 11.766 5.39111 11.4778 5.39111C11.1896 5.39111 10.9561 5.62471 10.9561 5.91286C10.9561 6.20102 11.1896 6.43461 11.4778 6.43461Z" fill="#A2001D"/>
<path d="M9.73926 4.86963H10.4349V5.56529H9.73926V4.86963Z" fill="#FFDA44"/>
<path d="M9.73926 6.43506H10.4349V7.13071H9.73926V6.43506Z" fill="#FFDA44"/>
<path d="M9.73926 8H10.4349V8.69566H9.73926V8Z" fill="#FFDA44"/>
<path d="M12.5215 4.86963H13.2171V5.56529H12.5215V4.86963Z" fill="#FFDA44"/>
<path d="M12.5215 6.43506H13.2171V7.13071H12.5215V6.43506Z" fill="#FFDA44"/>
<path d="M12.5215 8H13.2171V8.69566H12.5215V8Z" fill="#FFDA44"/>
</g>
<defs>
<clipPath id="clip0_6774_62466">
<rect width="16" height="16" fill="white"/>
</clipPath>
</defs>
</svg>
