<svg width="16" height="16" viewBox="0 0 16 16" fill="none" xmlns="http://www.w3.org/2000/svg">
<g clip-path="url(#clip0_6774_62348)">
<path d="M0 8C0 3.58175 3.58175 0 8 0C12.4183 0 16 3.58175 16 8H0Z" fill="#F0F0F0"/>
<path d="M5.91293 7.5625L5.47559 7.99984H5.91293V7.5625Z" fill="#0052B4"/>
<path d="M10.0869 7.5625V7.99981H10.5242L10.0869 7.5625Z" fill="#0052B4"/>
<path d="M0.230813 6.08691C0.0803438 6.69991 0 7.34051 0 7.99991H2.52428L4.43728 6.08691H0.230813Z" fill="#0052B4"/>
<path d="M11.5625 6.08691L13.4755 7.99991H15.9998C15.9998 7.34051 15.9195 6.69991 15.769 6.08691H11.5625Z" fill="#0052B4"/>
<path d="M11.0707 6.08691H10.0869L11.9999 7.99991H12.9837L11.0707 6.08691Z" fill="#D80027"/>
<path d="M5.91306 7.07063V6.08691H5.913L4 7.99991H4.98381L5.91306 7.07063Z" fill="#D80027"/>
<path d="M3.74788 1.22314C3.41813 1.43052 3.1046 1.66121 2.80957 1.91299H4.4377L3.74788 1.22314Z" fill="#0052B4"/>
<path d="M13.1915 1.91299C12.8965 1.66118 12.583 1.43049 12.2533 1.22314L11.5635 1.91299H13.1915Z" fill="#0052B4"/>
<path d="M9.04358 5.04347H15.4358C15.1333 4.2835 14.7176 3.58106 14.2097 2.9565H9.04361H9.04358V0.0677188C8.70202 0.02325 8.35377 0 8.00011 0C7.64639 0 7.2982 0.02325 6.95664 0.0677188V2.95647V2.9565H1.79048C1.28258 3.58106 0.866891 4.2835 0.564453 5.04347H6.95658H6.95661V8H9.04358V5.0435V5.04347Z" fill="#D80027"/>
<path d="M5.91344 1.91309V1.91306L4.70741 0.707031C4.48444 0.807875 4.26713 0.918969 4.05566 1.03906L4.9297 1.91309H5.91344Z" fill="#D80027"/>
<path d="M10.0869 1.91313L11.293 0.707098C11.0636 0.603379 10.8284 0.510379 10.588 0.428223L10.0869 0.929379V1.91313Z" fill="#D80027"/>
<path d="M16 8C16 12.4183 12.4183 16 8 16C3.58175 16 0 12.4183 0 8H16Z" fill="#F0F0F0"/>
<path d="M14.6669 9.02021C14.0002 9.02021 14.0002 8.41064 13.3336 8.41064C12.6669 8.41064 12.6669 9.02021 12.0003 9.02021C11.3336 9.02021 11.3336 8.41064 10.667 8.41064C10.0003 8.41064 10.0003 9.02021 9.33365 9.02021C8.66696 9.02021 8.66693 8.41064 8.00021 8.41064C7.33356 8.41064 7.33355 9.02021 6.66693 9.02021C6.00037 9.02021 6.00037 8.41064 5.33371 8.41064C4.66699 8.41064 4.66699 9.02021 4.00027 9.02021C3.33355 9.02021 3.33355 8.41064 2.66684 8.41064C2.00027 8.41064 2.00027 9.02021 1.33362 9.02021C0.670555 9.02021 0.666711 8.41736 0.0107422 8.41093C0.0292109 8.77686 0.0728984 9.13611 0.138961 9.48743C0.670336 9.56552 0.716867 10.0869 1.33365 10.0869C2.0003 10.0869 2.0003 9.47736 2.66687 9.47736C3.33359 9.47736 3.33359 10.0869 4.0003 10.0869C4.66702 10.0869 4.66702 9.47736 5.33374 9.47736C6.0004 9.47736 6.0004 10.0869 6.66696 10.0869C7.33362 10.0869 7.33362 9.47736 8.00024 9.47736C8.66696 9.47736 8.66696 10.0869 9.33368 10.0869C10.0004 10.0869 10.0004 9.47736 10.667 9.47736C11.3337 9.47736 11.3337 10.0869 12.0003 10.0869C12.6669 10.0869 12.667 9.47736 13.3336 9.47736C14.0003 9.47736 14.0003 10.0869 14.6669 10.0869C15.2838 10.0869 15.3303 9.56555 15.8617 9.48746C15.9278 9.13611 15.9714 8.77689 15.99 8.41096C15.3339 8.41743 15.33 9.02021 14.6669 9.02021Z" fill="#0052B4"/>
<path d="M13.3338 10.4976C12.6672 10.4976 12.6672 11.1071 12.0005 11.1071C11.3339 11.1071 11.3339 10.4976 10.6673 10.4976C10.0006 10.4976 10.0006 11.1071 9.33392 11.1071C8.6672 11.1071 8.6672 10.4976 8.00048 10.4976C7.33383 10.4976 7.33383 11.1071 6.6672 11.1071C6.00064 11.1071 6.00064 10.4976 5.33398 10.4976C4.66727 10.4976 4.66727 11.1071 4.00055 11.1071C3.33383 11.1071 3.33383 10.4976 2.66711 10.4976C2.00055 10.4976 2.00055 11.1071 1.33389 11.1071C0.857547 11.1071 0.721484 10.796 0.439453 10.6182C0.627203 11.1607 0.871453 11.6767 1.16561 12.1591C1.21677 12.1686 1.27245 12.1738 1.33389 12.1738C2.00055 12.1738 2.00055 11.5643 2.66711 11.5643C3.33383 11.5643 3.33383 12.1738 4.00055 12.1738C4.66727 12.1738 4.66727 11.5643 5.33398 11.5643C6.00064 11.5643 6.00064 12.1738 6.6672 12.1738C7.33386 12.1738 7.33386 11.5643 8.00048 11.5643C8.6672 11.5643 8.6672 12.1738 9.33392 12.1738C10.0006 12.1738 10.0006 11.5643 10.6673 11.5643C11.3339 11.5643 11.3339 12.1738 12.0005 12.1738C12.6672 12.1738 12.6672 11.5643 13.3338 11.5643C14.0005 11.5643 14.0005 12.1738 14.6672 12.1738C14.7286 12.1738 14.7844 12.1686 14.8355 12.1591C15.1297 11.6767 15.3739 11.1607 15.5617 10.6183C15.2797 10.7959 15.1436 11.1071 14.6672 11.1071C14.0005 11.1071 14.0005 10.4976 13.3338 10.4976Z" fill="#0052B4"/>
<path d="M15.9961 7.74854C15.9968 7.77075 15.9976 7.79297 15.9981 7.81529C15.9976 7.793 15.9967 7.77075 15.9961 7.74854Z" fill="#F0F0F0"/>
<path d="M0.00195312 7.81529C0.00248438 7.793 0.00323437 7.77079 0.00392187 7.74854C0.00326562 7.77079 0.00245313 7.79304 0.00195312 7.81529Z" fill="#F0F0F0"/>
<path d="M0 8.00005C0 7.93834 0.0009375 7.87687 0.00234375 7.81543C0.00090625 7.87687 0 7.93834 0 8.00005Z" fill="#F0F0F0"/>
<path d="M0 8C0 8.14572 0.004125 8.2905 0.0119063 8.43428C0.666375 8.44163 0.670719 9.04347 1.33331 9.04347C1.99997 9.04347 1.99997 8.43397 2.66653 8.43397C3.33325 8.43397 3.33325 9.04347 3.99997 9.04347C4.66669 9.04347 4.66669 8.43397 5.33341 8.43397C6.00006 8.43397 6.00006 9.04347 6.66663 9.04347C7.33328 9.04347 7.33328 8.43397 7.99991 8.43397C8.66663 8.43397 8.66663 9.04347 9.33334 9.04347C10.0001 9.04347 10.0001 8.43397 10.6667 8.43397C11.3333 8.43397 11.3333 9.04347 12 9.04347C12.6666 9.04347 12.6666 8.43397 13.3333 8.43397C14 8.43397 14 9.04347 14.6666 9.04347C15.3292 9.04347 15.3336 8.44163 15.9882 8.43428C15.9959 8.29047 16 8.14572 16 8H0Z" fill="#F0F0F0"/>
<path d="M15.998 7.81543C15.9995 7.8768 16.0004 7.9383 16.0004 8.00005C16.0004 7.93834 15.9995 7.87687 15.998 7.81543Z" fill="#F0F0F0"/>
<path d="M13.3332 12.5845C12.6665 12.5845 12.6665 13.194 11.9999 13.194C11.3333 13.194 11.3332 12.5845 10.6666 12.5845C9.99996 12.5845 9.99996 13.194 9.33327 13.194C8.66655 13.194 8.66655 12.5845 7.99984 12.5845C7.33318 12.5845 7.33318 13.194 6.66655 13.194C5.99999 13.194 5.99999 12.5845 5.33334 12.5845C4.66662 12.5845 4.66662 13.194 3.9999 13.194C3.33318 13.194 3.33318 12.5845 2.66646 12.5845C2.20602 12.5845 2.06355 12.8752 1.7998 13.0551C2.49946 13.9122 3.37352 14.6211 4.36743 15.1286L7.99996 14.9456L11.6325 15.1286C12.6263 14.621 13.5004 13.9122 14.2001 13.0552C13.9362 12.8753 13.7937 12.5845 13.3332 12.5845Z" fill="#0052B4"/>
<path d="M12.4374 12.7756L10.0038 13.241L9.69545 10.7827L8.00038 12.5907L6.30538 10.7827L5.99695 13.241L3.56348 12.7755L4.75688 14.9459L4.36713 15.1292C5.45738 15.686 6.69216 16.0001 8.00038 16.0001C9.3086 16.0001 10.5434 15.686 11.6336 15.1293L11.244 14.946L12.4374 12.7756Z" fill="#FFDA44"/>
</g>
<defs>
<clipPath id="clip0_6774_62348">
<rect width="16" height="16" fill="white"/>
</clipPath>
</defs>
</svg>
