<svg width="16" height="16" viewBox="0 0 16 16" fill="none" xmlns="http://www.w3.org/2000/svg">
<g clip-path="url(#clip0_6774_62437)">
<path d="M8 16C12.4183 16 16 12.4183 16 8C16 3.58172 12.4183 0 8 0C3.58172 0 0 3.58172 0 8C0 12.4183 3.58172 16 8 16Z" fill="#F0F0F0"/>
<path d="M14.6669 8.95722C14.0002 8.95722 14.0002 8.34766 13.3336 8.34766C12.6669 8.34766 12.6669 8.95722 12.0003 8.95722C11.3336 8.95722 11.3336 8.34766 10.667 8.34766C10.0003 8.34766 10.0003 8.95722 9.33365 8.95722C8.66696 8.95722 8.66693 8.34766 8.00021 8.34766C7.33356 8.34766 7.33355 8.95722 6.66693 8.95722C6.00037 8.95722 6.00037 8.34766 5.33371 8.34766C4.66699 8.34766 4.66699 8.95722 4.00027 8.95722C3.33355 8.95722 3.33355 8.34766 2.66684 8.34766C2.00027 8.34766 2.00027 8.95722 1.33362 8.95722C0.670555 8.95722 0.666711 8.35438 0.0107422 8.34794C0.0292109 8.71384 0.0728984 9.07312 0.138961 9.42447C0.670336 9.5025 0.716867 10.0238 1.33368 10.0238C2.00034 10.0238 2.00034 9.41434 2.6669 9.41434C3.33362 9.41434 3.33362 10.0238 4.00034 10.0238C4.66705 10.0238 4.66706 9.41434 5.33377 9.41434C6.00043 9.41434 6.00043 10.0238 6.66699 10.0238C7.33365 10.0238 7.33365 9.41434 8.00027 9.41434C8.66699 9.41434 8.66699 10.0238 9.33371 10.0238C10.0004 10.0238 10.0004 9.41434 10.6671 9.41434C11.3337 9.41434 11.3337 10.0238 12.0003 10.0238C12.667 10.0238 12.667 9.41434 13.3336 9.41434C14.0003 9.41434 14.0003 10.0238 14.667 10.0238C15.2838 10.0238 15.3303 9.50253 15.8617 9.42447C15.9278 9.07309 15.9715 8.71388 15.99 8.34794C15.3339 8.35441 15.33 8.95722 14.6669 8.95722Z" fill="#0052B4"/>
<path d="M13.3335 10.4346C12.6669 10.4346 12.6669 11.0441 12.0002 11.0441C11.3336 11.0441 11.3336 10.4346 10.667 10.4346C10.0003 10.4346 10.0003 11.0441 9.33361 11.0441C8.66689 11.0441 8.66689 10.4346 8.00017 10.4346C7.33352 10.4346 7.33352 11.0441 6.66689 11.0441C6.00033 11.0441 6.00033 10.4346 5.33367 10.4346C4.66695 10.4346 4.66695 11.0441 4.00023 11.0441C3.33352 11.0441 3.33352 10.4346 2.6668 10.4346C2.00023 10.4346 2.00023 11.0441 1.33358 11.0441C0.842484 11.0441 0.712828 10.7136 0.412109 10.5394C0.594234 11.0838 0.833453 11.6019 1.12236 12.087C1.18492 12.1021 1.25448 12.1108 1.33355 12.1108C2.0002 12.1108 2.0002 11.5013 2.66677 11.5013C3.33348 11.5013 3.33348 12.1108 4.0002 12.1108C4.66692 12.1108 4.66692 11.5013 5.33364 11.5013C6.0003 11.5013 6.0003 12.1108 6.66686 12.1108C7.33352 12.1108 7.33352 11.5013 8.00014 11.5013C8.66686 11.5013 8.66686 12.1108 9.33358 12.1108C10.0003 12.1108 10.0003 11.5013 10.6669 11.5013C11.3336 11.5013 11.3336 12.1108 12.0002 12.1108C12.6668 12.1108 12.6669 11.5013 13.3335 11.5013C14.0002 11.5013 14.0002 12.1108 14.6668 12.1108C14.746 12.1108 14.8156 12.1021 14.8782 12.087C15.1671 11.6019 15.4063 11.0838 15.5884 10.5395C15.2877 10.7136 15.158 11.0442 14.6668 11.0442C14.0002 11.0441 14.0002 10.4346 13.3335 10.4346Z" fill="#0052B4"/>
<path d="M15.8141 6.27927C15.3268 6.38043 15.2647 6.8703 14.6668 6.8703C14.0001 6.8703 14.0001 6.26074 13.3334 6.26074C12.6668 6.26074 12.6668 6.8703 12.0002 6.8703C11.3335 6.8703 11.3335 6.26074 10.6669 6.26074C10.0002 6.26074 10.0002 6.8703 9.33353 6.8703C8.66684 6.8703 8.66681 6.26074 8.00009 6.26074C7.63988 6.26074 7.47425 6.43868 7.29297 6.6023V7.66896C7.47425 7.50537 7.63984 7.32746 8.00009 7.32746C8.66681 7.32746 8.66681 7.93696 9.33353 7.93696C10.0002 7.93696 10.0003 7.32746 10.6669 7.32746C11.3335 7.32746 11.3335 7.93696 12.0002 7.93696C12.6668 7.93696 12.6668 7.32746 13.3334 7.32746C14.0002 7.32746 14.0002 7.93696 14.6668 7.93696C15.2836 7.93696 15.3302 7.41565 15.8616 7.33759C15.8956 7.33759 15.9337 7.33724 15.9727 7.33677C15.9431 6.97699 15.8897 6.62399 15.8141 6.27927Z" fill="#0052B4"/>
<path d="M15.2297 4.57098C15.0915 4.68702 14.9318 4.78339 14.6668 4.78339C14.0001 4.78339 14.0001 4.17383 13.3334 4.17383C12.6668 4.17383 12.6668 4.78339 12.0002 4.78339C11.3335 4.78339 11.3335 4.17383 10.6669 4.17383C10.0002 4.17383 10.0002 4.78339 9.33353 4.78339C8.66684 4.78339 8.66681 4.17383 8.00009 4.17383C7.63987 4.17383 7.47425 4.35177 7.29297 4.51539V5.58205C7.47425 5.41845 7.63984 5.24055 8.00009 5.24055C8.66681 5.24055 8.66681 5.85005 9.33353 5.85005C10.0002 5.85005 10.0002 5.24055 10.6668 5.24055C11.3335 5.24055 11.3335 5.85005 12.0001 5.85005C12.6667 5.85005 12.6667 5.24055 13.3334 5.24055C14.0001 5.24055 14.0001 5.85005 14.6667 5.85005C15.1398 5.85005 15.2776 5.54364 15.5557 5.36545C15.4609 5.09367 15.3521 4.82852 15.2297 4.57098Z" fill="#0052B4"/>
<path d="M13.3904 2.08854C13.3719 2.08754 13.3531 2.08691 13.3335 2.08691C12.6668 2.08691 12.6668 2.69648 12.0002 2.69648C11.3335 2.69648 11.3335 2.08691 10.6669 2.08691C10.0003 2.08691 10.0003 2.69648 9.33353 2.69648C8.66681 2.69648 8.66681 2.08691 8.00009 2.08691C7.63987 2.08691 7.47425 2.26485 7.29297 2.42848V3.49513C7.47425 3.33154 7.63984 3.15363 8.00009 3.15363C8.66681 3.15363 8.66681 3.76313 9.33353 3.76313C10.0003 3.76313 10.0002 3.15363 10.6669 3.15363C11.3335 3.15363 11.3335 3.76313 12.0002 3.76313C12.6668 3.76313 12.6668 3.15363 13.3334 3.15363C14.0002 3.15363 14.0002 3.76313 14.6668 3.76313C14.7078 3.76313 14.7462 3.7607 14.7825 3.75635C14.3953 3.13873 13.9264 2.57757 13.3904 2.08854Z" fill="#0052B4"/>
<path d="M10.0452 0.264125C9.86222 0.42875 9.69684 0.609562 9.33375 0.609562C8.66703 0.609562 8.66703 6.25e-05 8.00034 0H8.00022C7.65547 3.125e-05 7.48903 0.163062 7.31641 0.320531V1.38722C7.489 1.22975 7.6555 1.06669 8.00034 1.06669C8.66706 1.06669 8.66706 1.67619 9.33378 1.67619C10.0005 1.67619 10.0005 1.06669 10.6671 1.06669C11.3338 1.06669 11.3338 1.67619 12.0004 1.67619C12.2801 1.67619 12.4424 1.56881 12.5859 1.44425C11.8254 0.911281 10.9679 0.507344 10.0452 0.264125Z" fill="#0052B4"/>
<path d="M9.33385 15.2185C8.66713 15.2185 8.66713 14.6089 8.00041 14.6089C7.33376 14.6089 7.33376 15.2185 6.66713 15.2185C6.00057 15.2185 6.00057 14.6089 5.33391 14.6089C4.82326 14.6089 4.70348 14.9662 4.37598 15.1337C5.2791 15.5935 6.2812 15.8866 7.34182 15.973C7.50585 15.8232 7.67248 15.6756 8.00041 15.6756C8.32845 15.6756 8.49507 15.8232 8.65913 15.9731C9.71979 15.8866 10.7219 15.5935 11.6251 15.1337C11.2975 14.9663 11.1778 14.6089 10.6672 14.6089C10.0006 14.6089 10.0006 15.2185 9.33385 15.2185Z" fill="#0052B4"/>
<path d="M11.9999 13.1315C11.3332 13.1315 11.3332 12.522 10.6666 12.522C9.99991 12.522 9.99991 13.1315 9.33323 13.1315C8.66651 13.1315 8.66651 12.522 7.99979 12.522C7.33313 12.522 7.33313 13.1315 6.66651 13.1315C5.99995 13.1315 5.99995 12.522 5.33329 12.522C4.66657 12.522 4.66657 13.1315 3.99985 13.1315C3.33313 13.1315 3.33313 12.522 2.66641 12.522C2.18701 12.522 2.05238 12.8373 1.7666 13.0143C1.94573 13.2368 2.13616 13.4497 2.3377 13.6516C2.42798 13.613 2.53391 13.5887 2.66638 13.5887C3.3331 13.5887 3.3331 14.1982 3.99982 14.1982C4.66654 14.1982 4.66654 13.5887 5.33326 13.5887C5.99991 13.5887 5.99991 14.1982 6.66648 14.1982C7.33313 14.1982 7.33313 13.5887 7.99976 13.5887C8.66648 13.5887 8.66648 14.1982 9.3332 14.1982C9.99991 14.1982 9.99991 13.5887 10.6665 13.5887C11.3332 13.5887 11.3332 14.1982 11.9998 14.1982C12.6664 14.1982 12.6665 13.5887 13.3331 13.5887C13.4657 13.5887 13.5717 13.613 13.662 13.6516C13.8636 13.4497 14.054 13.2368 14.2331 13.0143C13.9473 12.8373 13.8127 12.522 13.3331 12.522C12.6665 12.522 12.6665 13.1315 11.9999 13.1315Z" fill="#0052B4"/>
<path d="M7.97852 7.99992H7.99992C7.99992 7.99273 7.99992 7.98573 7.99992 7.97852C7.9928 7.98567 7.98567 7.9928 7.97852 7.99992Z" fill="#F0F0F0"/>
<path d="M8.00037 4.17398V6.52439L5.21777 3.82617L8.00037 4.17398Z" fill="#0052B4"/>
<path d="M4.17402 8.00007H6.52433L4.17398 4.86963L3.82617 7.30441L4.17402 8.00007Z" fill="#0052B4"/>
<path d="M8 4.17391C8 2.76625 8 1.84391 8 0H7.99866C3.581 0.00075 0 3.58216 0 8H4.17394V5.64966L6.52425 8H7.97862C7.98575 7.99288 7.99288 7.98575 8.00003 7.97859C8.00003 7.43963 8.00003 6.95872 8.00003 6.52431L5.64962 4.17391H8Z" fill="#F0F0F0"/>
<path d="M4.04782 1.04346C2.7966 1.75593 1.75641 2.79611 1.04395 4.04733V7.99999H3.13091V3.13049V3.13043H8.00048C8.00048 2.47221 8.00048 1.84514 8.00048 1.04346H4.04782Z" fill="#D80027"/>
<path d="M8.0009 7.01611L5.15855 4.17383H4.1748V4.17389L8.00084 7.99989H8.0009C8.0009 7.99989 8.0009 7.32155 8.0009 7.01611Z" fill="#D80027"/>
<path d="M10.4346 4.17383H13.565L11.9998 5.73905L10.4346 4.17383Z" fill="#6DA544"/>
<path d="M11.6523 5.39111H12.348V7.30414H11.6523V5.39111Z" fill="#A2001D"/>
<path d="M11.6523 10.4346H12.348V12.3476H11.6523V10.4346Z" fill="#A2001D"/>
<path d="M14.087 9.39132C14.087 8.81504 13.6198 8.34786 13.0435 8.34786C12.7762 8.34786 12.5325 8.44848 12.3479 8.61376V8.00001H12.6957V7.30436H12.3479V6.95654H11.6522V7.30436H11.3044V8.00001H11.6522V8.61376C11.4676 8.44848 11.2239 8.34786 10.9566 8.34786C10.3803 8.34786 9.91309 8.81504 9.91309 9.39132C9.91309 9.70029 10.0475 9.97779 10.2609 10.1689V10.7826H13.7391V10.1689C13.9526 9.97779 14.087 9.70029 14.087 9.39132Z" fill="#FFDA44"/>
<path d="M13.0431 9.04346C12.9334 9.04346 12.8566 9.09164 12.8115 9.13202L12.3475 9.54736H11.6519L11.1879 9.13202C11.1427 9.09164 11.0659 9.04346 10.9562 9.04346C10.7644 9.04346 10.6084 9.19949 10.6084 9.39127C10.6084 9.52636 10.6812 9.61171 10.7246 9.65061L10.9562 9.85799V10.0869H13.0432V9.85799L13.2748 9.65061C13.3182 9.61174 13.3911 9.52636 13.3911 9.39127C13.391 9.19949 13.235 9.04346 13.0431 9.04346Z" fill="#D80027"/>
</g>
<defs>
<clipPath id="clip0_6774_62437">
<rect width="16" height="16" fill="white"/>
</clipPath>
</defs>
</svg>
