<svg width="16" height="16" viewBox="0 0 16 16" fill="none" xmlns="http://www.w3.org/2000/svg">
<g clip-path="url(#clip0_6774_62488)">
<path d="M7.9998 15.9986C12.4174 15.9986 15.9986 12.4174 15.9986 7.9998C15.9986 3.58217 12.4174 0.000976562 7.9998 0.000976562C3.58217 0.000976562 0.000976562 3.58217 0.000976562 7.9998C0.000976562 12.4174 3.58217 15.9986 7.9998 15.9986Z" fill="#F0F0F0"/>
<path d="M1.07326 4.00049C0.71222 4.62575 0.445902 5.27945 0.268555 5.94531L13.6457 13.6686C14.1336 13.1821 14.5666 12.6245 14.9276 11.9993L1.07326 4.00049Z" fill="black"/>
<path d="M11.9992 1.0728C8.7986 -0.775018 4.85226 -0.159161 2.35449 2.33127L15.7316 10.0545C16.6395 6.64627 15.1997 2.92066 11.9992 1.0728Z" fill="#FFDA44"/>
<path d="M4.0002 14.9271C7.20071 16.7749 11.1471 16.1591 13.6448 13.6687L0.267716 5.94531C-0.640148 9.35367 0.799633 13.0793 4.0002 14.9271Z" fill="#FFDA44"/>
<path d="M10.2605 7.13051C10.2605 8.37894 9.24845 9.39106 7.99999 9.39106C6.75152 9.39106 5.73944 8.37898 5.73944 7.13051C5.73944 6.74125 5.83785 6.37496 6.01117 6.05518C5.52062 6.55684 5.21777 7.24286 5.21777 7.99994C5.21777 9.5365 6.46339 10.7822 7.99999 10.7822C9.53658 10.7822 10.7822 9.53653 10.7822 7.99994C10.7822 7.24286 10.4794 6.55684 9.98881 6.05518C10.1621 6.37503 10.2605 6.74125 10.2605 7.13051Z" fill="#D80027"/>
<path d="M7.47852 4.52246H8.52185V9.7391H7.47852V4.52246Z" fill="#D80027"/>
<path d="M9.73847 5.56592H6.26074C6.26074 5.80602 6.4699 6.00065 6.70997 6.00065H6.69547C6.69547 6.24074 6.89013 6.43537 7.1302 6.43537C7.1302 6.67547 7.32486 6.8701 7.56493 6.8701H8.43435C8.67445 6.8701 8.86908 6.67547 8.86908 6.43537C9.10918 6.43537 9.30381 6.24074 9.30381 6.00065H9.28934C9.52934 6.00061 9.73847 5.80605 9.73847 5.56592Z" fill="#D80027"/>
<path d="M5.56543 10.0869H10.4343V11.1302H5.56543V10.0869Z" fill="#D80027"/>
<path d="M9.04297 10.4346H11.1296V11.4779H9.04297V10.4346Z" fill="#D80027"/>
<path d="M4.87012 10.4346H6.95676V11.4779H4.87012V10.4346Z" fill="#D80027"/>
</g>
<defs>
<clipPath id="clip0_6774_62488">
<rect width="16" height="16" fill="white"/>
</clipPath>
</defs>
</svg>
