<svg width="16" height="16" viewBox="0 0 16 16" fill="none" xmlns="http://www.w3.org/2000/svg">
<g clip-path="url(#clip0_6774_62582)">
<path d="M8 16C12.4183 16 16 12.4183 16 8C16 3.58172 12.4183 0 8 0C3.58172 0 0 3.58172 0 8C0 12.4183 3.58172 16 8 16Z" fill="#F0F0F0"/>
<path d="M12.8712 1.65296C10.007 -0.55098 5.99303 -0.55098 3.12891 1.65293L8.00003 6.52405L12.8712 1.65296Z" fill="#D80027"/>
<path d="M7.99997 9.47565L3.12891 14.3467C5.99303 16.5506 10.007 16.5506 12.8712 14.3467L8.00003 9.47559L7.99997 9.47565Z" fill="#D80027"/>
<path d="M6.52405 8.00003L1.65295 3.12891C-0.550984 5.99303 -0.550984 10.007 1.65295 12.8712L6.52405 8.00003Z" fill="#6DA544"/>
<path d="M9.47559 8.00003L14.3466 12.8712C16.5506 10.007 16.5506 5.99303 14.3466 3.12891L9.47559 8.00003Z" fill="#6DA544"/>
<path d="M7.99973 11.4785C9.92072 11.4785 11.478 9.92121 11.478 8.00022C11.478 6.07924 9.92072 4.52197 7.99973 4.52197C6.07875 4.52197 4.52148 6.07924 4.52148 8.00022C4.52148 9.92121 6.07875 11.4785 7.99973 11.4785Z" fill="#F0F0F0"/>
<path d="M8.00034 5.56543L8.30156 6.08718H8.90402L8.60277 6.6089L8.90402 7.13065H8.30156L8.00034 7.6524L7.69912 7.13065H7.09668L7.3979 6.6089L7.09668 6.08718H7.69912L8.00034 5.56543Z" fill="#D80027"/>
<path d="M6.46912 8L6.77034 8.52175H7.37277L7.07155 9.04347L7.37277 9.56522H6.77034L6.46912 10.087L6.16787 9.56522H5.56543L5.86665 9.04347L5.56543 8.52175H6.16787L6.46912 8Z" fill="#D80027"/>
<path d="M9.53162 8L9.83284 8.52175H10.4353L10.1341 9.04347L10.4353 9.56522H9.83284L9.53162 10.087L9.23037 9.56522H8.62793L8.92915 9.04347L8.62793 8.52175H9.23037L9.53162 8Z" fill="#D80027"/>
</g>
<defs>
<clipPath id="clip0_6774_62582">
<rect width="16" height="16" fill="white"/>
</clipPath>
</defs>
</svg>
