<svg width="16" height="16" viewBox="0 0 16 16" fill="none" xmlns="http://www.w3.org/2000/svg">
<g clip-path="url(#clip0_6774_62595)">
<path d="M0 7.99978C0 9.38571 0.352594 10.6893 0.972719 11.8259L8 12.5215L15.0273 11.8259C15.6474 10.6893 16 9.38571 16 7.99978C16 6.61384 15.6474 5.31028 15.0273 4.17368L8 3.47803L0.972719 4.17368C0.352594 5.31028 0 6.61384 0 7.99978H0Z" fill="#D80027"/>
<path d="M0.972656 4.17391H15.0272C13.6704 1.68716 11.0323 0 7.99994 0C4.96759 0 2.3295 1.68716 0.972656 4.17391Z" fill="#0052B4"/>
<path d="M7.99994 16.0001C11.0323 16.0001 13.6704 14.3129 15.0272 11.8262H0.972656C2.3295 14.3129 4.96759 16.0001 7.99994 16.0001Z" fill="#0052B4"/>
<path d="M10.7823 9.56521V8.52174H10.0867V7.13043L9.39105 6.43477L8.69539 7.13043V5.73911L7.99973 5.04346L7.30408 5.73911V7.13043L6.60842 6.43477L5.91277 7.13043V8.52174H5.21714V9.56521H4.52148V10.6087H11.478V9.56521H10.7823Z" fill="#F0F0F0"/>
</g>
<defs>
<clipPath id="clip0_6774_62595">
<rect width="16" height="16" fill="white"/>
</clipPath>
</defs>
</svg>
