<svg width="16" height="16" viewBox="0 0 16 16" fill="none" xmlns="http://www.w3.org/2000/svg">
<g clip-path="url(#clip0_6774_62652)">
<path d="M8 16C12.4183 16 16 12.4183 16 8C16 3.58172 12.4183 0 8 0C3.58172 0 0 3.58172 0 8C0 12.4183 3.58172 16 8 16Z" fill="#F0F0F0"/>
<path d="M15.0274 4.17414C13.9936 2.27948 12.216 0.849203 10.0871 0.275391L9.73926 4.17414H15.0274Z" fill="#0052B4"/>
<path d="M0.972656 4.17414H6.26078L5.91297 0.275391C3.784 0.849203 2.00644 2.27952 0.972656 4.17414Z" fill="#0052B4"/>
<path d="M9.73926 8V11.8261H15.0274C15.6475 10.6895 16.0001 9.38594 16.0001 8H9.73926Z" fill="#6DA544"/>
<path d="M6.26088 8H0C0 9.38594 0.352594 10.6895 0.972719 11.8261H6.26084V8H6.26088Z" fill="#6DA544"/>
<path d="M0.972656 11.8262C2.00644 13.7208 3.784 15.1511 5.91297 15.7249L6.26078 12.3153L0.972656 11.8262Z" fill="#FFDA44"/>
<path d="M10.0871 15.7249C12.216 15.1511 13.9936 13.7208 15.0274 11.8262L9.73926 12.3152L10.0871 15.7249Z" fill="#FFDA44"/>
<path d="M9.73926 12.3152L15.0274 11.8262H9.73926V12.3152Z" fill="#FFDA44"/>
<path d="M6.26081 11.8262H0.972656L6.26081 12.3152V11.8262Z" fill="#FFDA44"/>
<path d="M8.00005 0C7.27796 0 6.57852 0.09625 5.91309 0.275594V15.7244C6.57852 15.9038 7.27796 16 8.00005 16C8.72215 16 9.42159 15.9038 10.087 15.7244V0.275594C9.42159 0.09625 8.72215 0 8.00005 0V0Z" fill="#D80027"/>
<path d="M4.30292 1.73926L4.51873 2.40354H5.21727L4.6522 2.8141L4.86805 3.47838L4.30292 3.06785L3.73783 3.47838L3.95373 2.8141L3.38867 2.40354H4.08714L4.30292 1.73926Z" fill="#FFDA44"/>
</g>
<defs>
<clipPath id="clip0_6774_62652">
<rect width="16" height="16" fill="white"/>
</clipPath>
</defs>
</svg>
