<svg width="16" height="16" viewBox="0 0 16 16" fill="none" xmlns="http://www.w3.org/2000/svg">
<g clip-path="url(#clip0_6774_62667)">
<path d="M8 16C12.4183 16 16 12.4183 16 8C16 3.58172 12.4183 0 8 0C3.58172 0 0 3.58172 0 8C0 12.4183 3.58172 16 8 16Z" fill="#F0F0F0"/>
<path d="M7.99965 0C5.79049 0 3.79049 0.895438 2.34277 2.34313L7.99965 8V0Z" fill="black"/>
<path d="M0 8C0 10.2092 0.895438 12.2092 2.34313 13.6569L8 8H0Z" fill="black"/>
<path d="M8 16C10.2092 16 12.2092 15.1046 13.6569 13.6569L8 8V16Z" fill="black"/>
<path d="M16 8.00014C16 5.79098 15.1046 3.79098 13.6569 2.34326L8 8.00014H16Z" fill="black"/>
<path d="M5.21777 5.56534L8.00037 5.91325L10.783 5.56534V3.89578L9.66993 4.45231L8.00037 2.78271L6.3308 4.45231L5.21777 3.89578V5.56534Z" fill="#FFDA44"/>
<path d="M8.00037 12.1741C6.46602 12.1741 5.21777 10.9258 5.21777 9.39146V6.60899L6.26124 5.56543H9.73949L10.783 6.60899V9.39146C10.783 10.9258 9.53471 12.1741 8.00037 12.1741Z" fill="#D80027"/>
<path d="M7.99987 11.1306C7.0409 11.1306 6.26074 10.3504 6.26074 9.39145V6.60889H9.73899V9.39142C9.73899 10.3504 8.95884 11.1306 7.99987 11.1306Z" fill="#F0F0F0"/>
<path d="M5.21777 5.56543H6.26124V6.6089H5.21777V5.56543Z" fill="#FFDA44"/>
<path d="M9.73926 5.56543H10.7827V6.6089H9.73926V5.56543Z" fill="#FFDA44"/>
<path d="M9.73926 7.82617H10.7827V8.86964H9.73926V7.82617Z" fill="#FFDA44"/>
<path d="M5.21777 7.82617H6.26124V8.86964H5.21777V7.82617Z" fill="#FFDA44"/>
<path d="M8.00027 11.1308C7.81852 11.1308 7.6433 11.1027 7.47852 11.0508V12.1246C7.64764 12.1568 7.82189 12.1743 8.00027 12.1743C8.17864 12.1743 8.35289 12.1568 8.52202 12.1246V11.0508C8.35723 11.1027 8.18202 11.1308 8.00027 11.1308Z" fill="#FFDA44"/>
<path d="M6.2849 9.67383L5.45215 10.5066C5.59652 10.8353 5.80252 11.1309 6.05571 11.3787L6.79321 10.6412C6.53002 10.3869 6.34668 10.0507 6.2849 9.67383Z" fill="#FFDA44"/>
<path d="M10.549 10.5066L9.71629 9.67383C9.65448 10.0506 9.47116 10.3869 9.20801 10.6412L9.94551 11.3787C10.1986 11.1309 10.4047 10.8353 10.549 10.5066Z" fill="#FFDA44"/>
<path d="M7.65234 7.18848V7.76816C7.65234 7.96023 7.80806 8.11598 8.00016 8.11598C8.19225 8.11598 8.34797 7.96023 8.34797 7.76816V7.18848H7.65234Z" fill="#0052B4"/>
<path d="M7.65234 9.50732V10.087C7.65234 10.2791 7.80806 10.4348 8.00016 10.4348C8.19225 10.4348 8.34797 10.2791 8.34797 10.087V9.50732H7.65234Z" fill="#0052B4"/>
<path d="M8.69531 8.34766V8.92741C8.69531 9.11947 8.85103 9.27522 9.04313 9.27522C9.23522 9.27522 9.39094 9.11947 9.39094 8.92741V8.34766H8.69531Z" fill="#0052B4"/>
<path d="M7.65234 8.34766V8.92741C7.65234 9.11947 7.80806 9.27522 8.00016 9.27522C8.19225 9.27522 8.34797 9.11947 8.34797 8.92741V8.34766H7.65234Z" fill="#0052B4"/>
<path d="M6.6084 8.34766V8.92741C6.6084 9.11947 6.76412 9.27522 6.95621 9.27522C7.1483 9.27522 7.30402 9.11947 7.30402 8.92741V8.34766H6.6084Z" fill="#0052B4"/>
</g>
<defs>
<clipPath id="clip0_6774_62667">
<rect width="16" height="16" fill="white"/>
</clipPath>
</defs>
</svg>
