<svg width="16" height="16" viewBox="0 0 16 16" fill="none" xmlns="http://www.w3.org/2000/svg">
<g clip-path="url(#clip0_6774_62720)">
<path d="M8 16C12.4183 16 16 12.4183 16 8C16 3.58172 12.4183 0 8 0C3.58172 0 0 3.58172 0 8C0 12.4183 3.58172 16 8 16Z" fill="#D80027"/>
<path d="M4.37812 4.86914L5.06875 6.99414H7.30312L5.49687 8.30977L6.1875 10.4348L4.37812 9.12227L2.56875 10.4348L3.2625 8.30977L1.45312 6.99414H3.6875L4.37812 4.86914Z" fill="#FFDA44"/>
<path d="M9.48398 12.3908L8.95586 11.7408L8.17461 12.0439L8.62773 11.3408L8.09961 10.6877L8.90898 10.9033L9.36523 10.2002L9.40898 11.0377L10.2215 11.2533L9.43711 11.5533L9.48398 12.3908Z" fill="#FFDA44"/>
<path d="M10.534 10.4846L10.784 9.68457L10.0996 9.2002L10.9371 9.1877L11.184 8.3877L11.4559 9.18145L12.2934 9.17207L11.6215 9.67207L11.8902 10.4658L11.2059 9.98145L10.534 10.4846Z" fill="#FFDA44"/>
<path d="M11.9504 5.87197L11.5816 6.6251L12.1816 7.20947L11.3535 7.09072L10.9848 7.84072L10.841 7.01572L10.0098 6.89697L10.7535 6.50635L10.6098 5.67822L11.2098 6.2626L11.9504 5.87197Z" fill="#FFDA44"/>
<path d="M9.50645 3.59082L9.44395 4.4252L10.2221 4.74082L9.40645 4.94082L9.34707 5.77832L8.90645 5.06582L8.09082 5.26582L8.63145 4.6252L8.1877 3.91582L8.96582 4.23145L9.50645 3.59082Z" fill="#FFDA44"/>
</g>
<defs>
<clipPath id="clip0_6774_62720">
<rect width="16" height="16" fill="white"/>
</clipPath>
</defs>
</svg>
