<svg width="16" height="16" viewBox="0 0 16 16" fill="none" xmlns="http://www.w3.org/2000/svg">
<g clip-path="url(#clip0_6774_62802)">
<path d="M8 16C12.4183 16 16 12.4183 16 8C16 3.58172 12.4183 0 8 0C3.58172 0 0 3.58172 0 8C0 12.4183 3.58172 16 8 16Z" fill="#F0F0F0"/>
<path d="M15.9993 7.97705H7.32707C5.60529 9.69886 4.5641 11.0281 3.50098 12.0913L8.02273 12.4988L15.0394 11.8031C15.6518 10.672 15.9995 9.37674 15.9995 8.00021C15.9995 7.99246 15.9993 7.9848 15.9993 7.97705Z" fill="#D80027"/>
<path d="M3.50181 4.15075H15.0147C13.6541 1.67675 11.0232 0 8.00034 0C5.79706 0 3.80219 0.890969 2.35547 2.332L3.50181 4.15075Z" fill="#FFDA44"/>
<path d="M3.8495 11.8027C3.13031 12.5219 2.85237 13.1245 2.33203 13.6448C3.78062 15.0994 5.78516 15.9998 8.00022 15.9998C11.042 15.9998 13.6871 14.3022 15.0401 11.8027H3.8495Z" fill="#0052B4"/>
<path d="M2.34314 2.31982C-0.781047 5.44401 -0.781047 10.5094 2.34314 13.6336C3.63417 12.3425 4.87583 11.1009 8.00002 7.9767L2.34314 2.31982Z" fill="#6DA544"/>
<path d="M2.10991 7.97677C2.10991 6.81121 2.92906 5.83749 4.02294 5.59862C3.85481 5.5619 3.68037 5.54199 3.50119 5.54199C2.15647 5.54199 1.06641 6.63206 1.06641 7.97677C1.06641 9.32149 2.15647 10.4116 3.50119 10.4116C3.68034 10.4116 3.85478 10.3916 4.02294 10.3549C2.92906 10.116 2.10991 9.14234 2.10991 7.97677Z" fill="#F0F0F0"/>
<path d="M3.99586 5.88965L4.12539 6.28821H4.54445L4.20539 6.53455L4.33492 6.93312L3.99586 6.6868L3.6568 6.93312L3.78633 6.53455L3.44727 6.28821H3.86633L3.99586 5.88965Z" fill="#F0F0F0"/>
<path d="M3.99586 6.93311L4.12539 7.3317H4.54445L4.20539 7.57801L4.33492 7.97661L3.99586 7.73026L3.6568 7.97661L3.78633 7.57801L3.44727 7.3317H3.86633L3.99586 6.93311Z" fill="#F0F0F0"/>
<path d="M3.99586 7.97656L4.12539 8.37512H4.54445L4.20539 8.62147L4.33492 9.02003L3.99586 8.77369L3.6568 9.02003L3.78633 8.62147L3.44727 8.37512H3.86633L3.99586 7.97656Z" fill="#F0F0F0"/>
<path d="M3.99586 9.02002L4.12539 9.41858H4.54445L4.20539 9.66493L4.33492 10.0635L3.99586 9.81718L3.6568 10.0635L3.78633 9.66493L3.44727 9.41858H3.86633L3.99586 9.02002Z" fill="#F0F0F0"/>
</g>
<defs>
<clipPath id="clip0_6774_62802">
<rect width="16" height="16" fill="white"/>
</clipPath>
</defs>
</svg>
