<svg width="16" height="16" viewBox="0 0 16 16" fill="none" xmlns="http://www.w3.org/2000/svg">
<g clip-path="url(#clip0_6774_62814)">
<path d="M16 8C16 12.4183 12.4183 16 8 16C3.58175 16 0 12.4183 0 8C0 8.00191 8 0.000875 8 0C12.4183 0 16 3.58175 16 8Z" fill="#0052B4"/>
<path d="M7.97852 7.99992H7.99992C7.99992 7.99273 7.99992 7.98573 7.99992 7.97852C7.9928 7.98567 7.98567 7.9928 7.97852 7.99992Z" fill="#F0F0F0"/>
<path d="M8 4.17391C8 2.76625 8 1.84391 8 0H7.99866C3.58097 0.00075 0 3.58216 0 8H4.17391V5.64966L6.52425 8H7.97862C7.98575 7.99288 7.99288 7.98575 8.00003 7.97859C8.00003 7.43963 8.00003 6.95872 8.00003 6.52431L5.64962 4.17391H8Z" fill="#F0F0F0"/>
<path d="M4.04782 1.04346C2.7966 1.75593 1.75638 2.79611 1.04395 4.04733V7.99999H3.13091V3.13049V3.13043H8.00048C8.00048 2.47221 8.00048 1.84514 8.00048 1.04346H4.04782Z" fill="#D80027"/>
<path d="M8.0009 7.01611L5.15855 4.17383H4.1748V4.17389L8.00084 7.99989H8.0009C8.0009 7.99989 8.0009 7.32155 8.0009 7.01611Z" fill="#D80027"/>
<path d="M10.7822 8L10.9302 8.4555H11.4091L11.0217 8.737L11.1697 9.19253L10.7822 8.911L10.3947 9.19253L10.5427 8.737L10.1553 8.4555H10.6342L10.7822 8Z" fill="#F0F0F0"/>
<path d="M8.81461 8.8151L9.24133 9.0325L9.58002 8.69385L9.50508 9.16691L9.93183 9.38435L9.45877 9.45922L9.38386 9.93235L9.16639 9.50557L8.69336 9.5805L9.03208 9.24185L8.81461 8.8151Z" fill="#F0F0F0"/>
<path d="M8 10.7826L8.4555 10.6346L8.45556 10.1558L8.737 10.5432L9.19253 10.3951L8.911 10.7826L9.19253 11.1702L8.737 11.0222L8.45556 11.4096V10.9307L8 10.7826Z" fill="#F0F0F0"/>
<path d="M8.81461 12.75L9.03202 12.3233L8.69336 11.9847L9.16642 12.0596L9.38386 11.6328L9.45877 12.1059L9.93183 12.1807L9.50508 12.3982L9.58002 12.8713L9.24133 12.5326L8.81461 12.75Z" fill="#F0F0F0"/>
<path d="M10.7822 13.5651L10.6342 13.1096H10.1553L10.5427 12.8281L10.3947 12.3726L10.7822 12.6541L11.1697 12.3726L11.0217 12.8281L11.4092 13.1096H10.9303L10.7822 13.5651Z" fill="#F0F0F0"/>
<path d="M12.75 12.75L12.3233 12.5327L11.9847 12.8713L12.0596 12.3982L11.6328 12.1808L12.1059 12.1059L12.1808 11.6328L12.3982 12.0596L12.8713 11.9847L12.5326 12.3233L12.75 12.75Z" fill="#F0F0F0"/>
<path d="M13.5656 10.7826L13.11 10.9307V11.4096L12.8285 11.0221L12.373 11.1702L12.6546 10.7826L12.373 10.3951L12.8285 10.5432L13.11 10.1558V10.6346L13.5656 10.7826Z" fill="#F0F0F0"/>
<path d="M12.75 8.8151L12.5327 9.24182L12.8713 9.58047L12.3982 9.50554L12.1808 9.93232L12.1059 9.45919L11.6328 9.38428L12.0596 9.16688L11.9847 8.69385L12.3233 9.03247L12.75 8.8151Z" fill="#F0F0F0"/>
</g>
<defs>
<clipPath id="clip0_6774_62814">
<rect width="16" height="16" fill="white"/>
</clipPath>
</defs>
</svg>
