<svg width="16" height="16" viewBox="0 0 16 16" fill="none" xmlns="http://www.w3.org/2000/svg">
<g clip-path="url(#clip0_6774_62740)">
<path d="M8 16C12.4183 16 16 12.4183 16 8C16 3.58172 12.4183 0 8 0C3.58172 0 0 3.58172 0 8C0 12.4183 3.58172 16 8 16Z" fill="#FCFCFC"/>
<path d="M10.7857 6.776C10.7857 5.084 9.41408 3.7124 7.72211 3.7124C6.47355 3.7124 5.4002 4.45959 4.92295 5.53097L4.54511 6.90081L4.89292 7.24862L4.19727 8.63993L4.89292 8.98775L4.54511 9.33556V9.68337L4.89292 10.0312V10.7268L5.24073 11.0747L6.2842 10.7268C6.2842 10.7268 6.2842 11.0747 6.63202 11.4225C6.97983 11.7703 7.3277 12.466 7.3277 12.466C7.3277 12.466 8.37117 12.8138 9.06683 11.7703C9.76248 10.7269 10.4581 10.379 10.4581 10.379L9.78764 9.03796C10.4008 8.47787 10.7857 7.67203 10.7857 6.776Z" fill="black"/>
<path d="M11.0353 7.9475C12.4487 7.70909 12.6842 4.94141 12.6842 4.94141H10.7364C11.745 7.37619 10.6893 7.53997 10.6893 7.53997C10.5462 7.43356 5.42755 5.00869 5.2653 4.94703C5.2262 4.99934 5.0823 5.13675 4.90736 5.56456C4.73239 5.99237 4.68945 6.37725 4.68945 6.37725C4.77139 6.43066 10.2074 8.32881 10.3511 8.34462C10.6363 8.53106 10.9871 9.08859 10.791 10.7417L12.6659 10.2133C12.6659 10.2133 12.0296 8.52069 11.0353 7.9475Z" fill="#ACABB1"/>
</g>
<defs>
<clipPath id="clip0_6774_62740">
<rect width="16" height="16" fill="white"/>
</clipPath>
</defs>
</svg>
