<svg width="16" height="16" viewBox="0 0 16 16" fill="none" xmlns="http://www.w3.org/2000/svg">
<g clip-path="url(#clip0_6774_62932)">
<path d="M8 16C12.4183 16 16 12.4183 16 8C16 3.58172 12.4183 0 8 0C3.58172 0 0 3.58172 0 8C0 12.4183 3.58172 16 8 16Z" fill="#FCFCFC"/>
<path d="M12.522 6.95654C12.2785 6.95654 11.977 6.95654 11.4785 6.95654C11.4785 8.87754 9.92117 10.4348 8.00023 10.4348C6.0792 10.4348 4.52198 8.87754 4.52198 6.95654C4.18573 6.95654 3.8147 6.95654 3.47852 6.95654C3.47852 9.02576 4.86839 10.7704 6.76558 11.3076C6.55758 11.7028 6.58927 12.2002 6.88639 12.571C7.27664 12.2582 7.68067 11.9344 8.02342 11.6598C8.36617 11.9345 8.77023 12.2583 9.16045 12.571C9.46052 12.1965 9.49005 11.6928 9.27514 11.2957C11.1515 10.7453 12.522 9.01104 12.522 6.95654Z" fill="#6DA544"/>
<path d="M5.21777 6.60861C5.21777 6.60861 5.21777 8.34773 6.9569 8.34773L7.30471 8.69555H8.00037C8.00037 8.69555 8.34818 7.65208 9.04384 7.65208C9.04384 7.65208 9.04384 6.95642 9.73949 6.95642C10.4351 6.95642 10.783 6.95642 10.783 6.95642C10.783 6.95642 10.4351 5.56511 12.1743 4.52164L11.4786 4.17383C11.4786 4.17383 9.04384 5.91295 7.30471 5.56514V6.2608H6.60905L6.26124 5.91298L5.21777 6.60861Z" fill="#FFDA44"/>
</g>
<defs>
<clipPath id="clip0_6774_62932">
<rect width="16" height="16" fill="white"/>
</clipPath>
</defs>
</svg>
