<svg width="16" height="16" viewBox="0 0 16 16" fill="none" xmlns="http://www.w3.org/2000/svg">
<g clip-path="url(#clip0_6774_62959)">
<path d="M8 16C12.4183 16 16 12.4183 16 8C16 3.58172 12.4183 0 8 0C3.58172 0 0 3.58172 0 8C0 12.4183 3.58172 16 8 16Z" fill="#F0F0F0"/>
<path d="M9.56543 15.8462C12.728 15.2188 15.2193 12.7275 15.8467 9.56494H9.56543V15.8462Z" fill="#496E2D"/>
<path d="M0.15332 9.56494C0.780664 12.7275 3.27198 15.2188 6.43457 15.8462V9.56494H0.15332Z" fill="#496E2D"/>
<path d="M15.8467 6.43457C15.2193 3.27201 12.728 0.780695 9.56543 0.15332V6.43457H15.8467Z" fill="#496E2D"/>
<path d="M6.43457 0.15332C3.27198 0.780695 0.780664 3.27201 0.15332 6.43457H6.43457V0.15332Z" fill="#496E2D"/>
<path d="M7.47804 9.56543H6.43457V15.8467C6.7751 15.9142 7.12345 15.96 7.47804 15.9828V9.56543Z" fill="#FFDA44"/>
<path d="M7.47804 6.43495V0.0175781C7.12345 0.0403906 6.77507 0.0861719 6.43457 0.153703V6.43495H7.47804Z" fill="#FFDA44"/>
<path d="M8.52202 0.0174062C8.34945 0.00625 8.17561 0 8.00027 0C7.82492 0 7.65108 0.00625 7.47852 0.0174062V6.43481H8.52198V0.0174062H8.52202Z" fill="black"/>
<path d="M7.47852 15.9828C7.65108 15.994 7.82492 16.0002 8.00027 16.0002C8.17561 16.0002 8.34945 15.994 8.52202 15.9828V9.56543H7.47855V15.9828H7.47852Z" fill="black"/>
<path d="M6.43495 7.47804V6.43457H0.153703C0.0861406 6.77513 0.0403906 7.12345 0.0175781 7.47804H6.43495Z" fill="#FFDA44"/>
<path d="M9.56543 7.47804H15.9828C15.96 7.12345 15.9142 6.77513 15.8467 6.43457H9.56546V7.47804H9.56543Z" fill="#FFDA44"/>
<path d="M9.56543 8.52153H15.9828C15.994 8.349 16.0002 8.17512 16.0002 7.99978C16.0002 7.82443 15.994 7.65056 15.9828 7.47803H9.56543V8.52153Z" fill="black"/>
<path d="M0.0174062 7.47803C0.00628125 7.65056 0 7.82443 0 7.99978C0 8.17512 0.00628125 8.349 0.0174062 8.52153H6.43481V7.47806H0.0174062V7.47803Z" fill="black"/>
<path d="M7.99992 11.826C10.113 11.826 11.826 10.113 11.826 7.99992C11.826 5.88683 10.113 4.17383 7.99992 4.17383C5.88683 4.17383 4.17383 5.88683 4.17383 7.99992C4.17383 10.113 5.88683 11.826 7.99992 11.826Z" fill="#D80027"/>
<path d="M8.87135 8.42712C8.58676 7.85796 8.21685 7.28109 8.21685 7.28109C8.21685 7.28109 8.22604 7.01843 8.22604 6.86193C8.22604 6.62618 8.03491 6.43506 7.79916 6.43506C7.57582 6.43506 7.39282 6.60665 7.37416 6.82512C7.19854 6.83659 7.05957 6.98228 7.05957 7.16078C7.05957 7.29056 7.1331 7.40303 7.24073 7.45925C7.29423 7.33412 7.39898 7.23643 7.52854 7.1919C7.54966 7.20918 7.57235 7.22462 7.59657 7.23771L7.65126 7.2639C7.65126 7.2639 7.44848 7.8355 7.44848 8.14256C7.44848 9.00581 8.01766 9.27203 8.01766 9.27203V9.28093L7.73307 9.5655H8.30223V8.99631L8.58682 9.2809C8.58932 9.27556 9.12588 8.93621 8.87135 8.42712Z" fill="#496E2D"/>
<path d="M7.99973 4.86963L8.12923 5.26819H8.5483L8.20927 5.51453L8.3388 5.9131L7.99973 5.66679L7.66067 5.9131L7.7902 5.51453L7.45117 5.26819H7.87023L7.99973 4.86963Z" fill="#496E2D"/>
<path d="M6.15976 5.46732L6.49876 5.71366L6.83782 5.46729L6.70832 5.86591L7.04738 6.11219L6.62829 6.11222L6.49879 6.51079L6.36926 6.11222L5.9502 6.11219L6.28923 5.86585L6.15976 5.46732Z" fill="#496E2D"/>
<path d="M5.02246 7.03284H5.44149L5.57102 6.63428L5.70052 7.03284L6.11962 7.03281L5.78059 7.27918L5.91012 7.67775L5.57102 7.4314L5.23199 7.67771L5.36146 7.27915L5.02246 7.03284Z" fill="#496E2D"/>
<path d="M5.02246 8.96763L5.36146 8.72135L5.23196 8.32275L5.57102 8.5691L5.91009 8.32275L5.78059 8.72132L6.11965 8.96766L5.70052 8.96769L5.57102 9.36622L5.44149 8.96763H5.02246Z" fill="#496E2D"/>
<path d="M6.15979 10.5327L6.28926 10.1342L5.9502 9.88785H6.36929L6.49882 9.48926L6.62832 9.88782H7.04741L6.70835 10.1342L6.83785 10.5327L6.49879 10.2864L6.15979 10.5327Z" fill="#496E2D"/>
<path d="M7.99973 11.1304L7.87023 10.7319H7.45117L7.7902 10.4855L7.66067 10.0869L7.99973 10.3332L8.33877 10.0869L8.20927 10.4855L8.5483 10.7319L8.12923 10.7319L7.99973 11.1304Z" fill="#496E2D"/>
<path d="M9.83977 10.5327L9.50077 10.2864L9.16174 10.5328L9.29121 10.1342L8.95215 9.88785L9.37124 9.88782L9.50071 9.48926L9.63027 9.88785H10.0493L9.7103 10.1342L9.83977 10.5327Z" fill="#496E2D"/>
<path d="M10.9771 8.9676H10.558L10.4285 9.36619L10.299 8.96766H9.87988L10.2189 8.72128L10.0894 8.32275L10.4285 8.56907L10.7675 8.32275L10.6381 8.72132L10.9771 8.9676Z" fill="#496E2D"/>
<path d="M10.9771 7.03281L10.6381 7.27912L10.7675 7.67768L10.4285 7.43137L10.0894 7.67775L10.2189 7.27915L9.87988 7.03284L10.299 7.03278L10.4285 6.63428L10.558 7.03281H10.9771Z" fill="#496E2D"/>
<path d="M9.83977 5.46729L9.7103 5.86582L10.0493 6.11216H9.63027L9.50077 6.51075L9.37124 6.11219L8.95215 6.11222L9.29121 5.86582L9.16171 5.46732L9.50077 5.7136L9.83977 5.46729Z" fill="#496E2D"/>
</g>
<defs>
<clipPath id="clip0_6774_62959">
<rect width="16" height="16" fill="white"/>
</clipPath>
</defs>
</svg>
