<svg width="16" height="16" viewBox="0 0 16 16" fill="none" xmlns="http://www.w3.org/2000/svg">
<g clip-path="url(#clip0_6774_63054)">
<path d="M8 16C12.4183 16 16 12.4183 16 8C16 3.58172 12.4183 0 8 0C3.58172 0 0 3.58172 0 8C0 12.4183 3.58172 16 8 16Z" fill="#FFDA44"/>
<path d="M7.99973 0C6.04107 0 4.24713 0.704281 2.85645 1.87294L11.478 8L2.85645 14.1271C4.24713 15.2957 6.04107 16 7.99973 16C12.418 16 15.9997 12.4183 15.9997 8C15.9997 3.58175 12.418 0 7.99973 0Z" fill="#D80027"/>
<path d="M2.34314 2.34326C-0.781047 5.46745 -0.781047 10.5328 2.34314 13.657C3.63417 12.366 4.87583 11.1243 8.00002 8.00014L2.34314 2.34326Z" fill="black"/>
<path d="M2.21805 6.16748L3.43555 7.31973L4.90768 6.51773L4.18815 8.03179L5.40568 9.18407L3.74337 8.96757L3.02374 10.4816L2.71602 8.83373L1.05371 8.61717L2.52577 7.81526L2.21805 6.16748Z" fill="#F0F0F0"/>
</g>
<defs>
<clipPath id="clip0_6774_63054">
<rect width="16" height="16" fill="white"/>
</clipPath>
</defs>
</svg>
