<svg width="16" height="16" viewBox="0 0 16 16" fill="none" xmlns="http://www.w3.org/2000/svg">
<g clip-path="url(#clip0_6774_63125)">
<path d="M8 16C12.4183 16 16 12.4183 16 8C16 3.58172 12.4183 0 8 0C3.58172 0 0 3.58172 0 8C0 12.4183 3.58172 16 8 16Z" fill="#F0F0F0"/>
<path d="M8.00013 0C4.82844 0 2.08795 1.84578 0.793945 4.52175H15.2063C13.9123 1.84578 11.1718 0 8.00013 0Z" fill="#0052B4"/>
<path d="M8.00013 15.9998C11.1718 15.9998 13.9123 14.154 15.2063 11.478H0.793945C2.08795 14.154 4.82844 15.9998 8.00013 15.9998Z" fill="#0052B4"/>
<path d="M6.39355 8.34802L8.00012 5.56543L9.60668 8.34802H6.39355Z" fill="#FFDA44"/>
<path d="M10.087 9.26677L8.00005 10.3103L5.91309 9.26677V7.87549H10.087V9.26677Z" fill="#6DA544"/>
<path d="M9.96793 5.68457L9.23009 6.42241C9.5448 6.73713 9.73949 7.17191 9.73949 7.65216C9.73949 8.61266 8.96084 9.39129 8.00037 9.39129C7.0399 9.39129 6.26124 8.61263 6.26124 7.65216C6.26124 7.17191 6.45593 6.73713 6.77065 6.42241L6.0328 5.68457C5.52921 6.18807 5.21777 6.88373 5.21777 7.65216C5.21777 9.18898 6.46359 10.4348 8.00037 10.4348C9.53715 10.4348 10.783 9.18895 10.783 7.65216C10.7829 6.88373 10.4715 6.18807 9.96793 5.68457Z" fill="#FFDA44"/>
</g>
<defs>
<clipPath id="clip0_6774_63125">
<rect width="16" height="16" fill="white"/>
</clipPath>
</defs>
</svg>
