<svg width="16" height="16" viewBox="0 0 16 16" fill="none" xmlns="http://www.w3.org/2000/svg">
<g clip-path="url(#clip0_6774_63046)">
<path d="M0 8.00022C0 8.97885 0.176031 9.91622 0.497625 10.7829L8 11.4785L15.5024 10.7829C15.824 9.91622 16 8.97882 16 8.00022C16 7.03507 15.829 6.10985 15.5158 5.25319L8 4.52197L0.484188 5.25322C0.170969 6.10985 0 7.03507 0 8.00022H0Z" fill="#FFDA44"/>
<path d="M8.00045 16.0001C11.4402 16.0001 14.3725 13.8291 15.5029 10.7827H0.498047C1.62839 13.8291 4.56073 16.0001 8.00045 16.0001Z" fill="#D80027"/>
<path d="M8.00045 0C4.56073 0 1.62839 2.171 0.498047 5.21741H15.5029C14.3725 2.171 11.4402 0 8.00045 0Z" fill="#6DA544"/>
<path d="M7.99992 11.826C10.113 11.826 11.826 10.113 11.826 7.99992C11.826 5.88683 10.113 4.17383 7.99992 4.17383C5.88683 4.17383 4.17383 5.88683 4.17383 7.99992C4.17383 10.113 5.88683 11.826 7.99992 11.826Z" fill="#0052B4"/>
<path d="M7.99901 5.03711L8.68969 7.1628H10.9284L9.11654 8.47658L9.81266 10.6086L7.99901 9.28855L6.18813 10.6061L6.88145 8.47658L5.07129 7.1628H7.30832L7.99901 5.03711Z" fill="#FFDA44"/>
<path d="M10.7538 8.52912L8.56272 7.81712L9.91687 5.95337L9.35413 5.54443L7.99991 7.40831L6.64581 5.54447L6.083 5.95334L7.43712 7.81725L5.24609 8.52909L5.46103 9.19075L7.65216 8.47884V10.7827H8.34778V8.47881L10.5388 9.19075L10.7538 8.52912Z" fill="#FFDA44"/>
</g>
<defs>
<clipPath id="clip0_6774_63046">
<rect width="16" height="16" fill="white"/>
</clipPath>
</defs>
</svg>
