<svg width="16" height="16" viewBox="0 0 16 16" fill="none" xmlns="http://www.w3.org/2000/svg">
<g clip-path="url(#clip0_6774_63214)">
<path d="M16 8C16 12.4183 12.4183 16 8 16C3.58175 16 0 12.4183 0 8C0 8.00191 8 0.000875 8 0C12.4183 0 16 3.58175 16 8Z" fill="#338AF3"/>
<path d="M8.00037 3.82617V6.52439L5.21777 3.82617H8.00037Z" fill="#0052B4"/>
<path d="M4.17398 8.00007H6.52436L4.17398 4.86963L3.82617 7.30441L4.17398 8.00007Z" fill="#0052B4"/>
<path d="M7.97852 7.99992H7.99992C7.99992 7.99273 7.99992 7.98573 7.99992 7.97852C7.9928 7.98567 7.98567 7.9928 7.97852 7.99992Z" fill="#F0F0F0"/>
<path d="M8 4.17391C8 2.76625 8 1.84391 8 0H7.99866C3.581 0.00075 0 3.58216 0 8H4.17391V5.64966L6.52428 8H7.97866C7.98578 7.99288 7.99291 7.98575 8.00006 7.97859C8.00006 7.43963 8.00006 6.95872 8.00006 6.52431L5.64962 4.17391H8Z" fill="#F0F0F0"/>
<path d="M4.04782 1.04346C2.7966 1.75593 1.75641 2.79611 1.04395 4.04733V7.99999H3.13091V3.13049V3.13043H8.00048C8.00048 2.47221 8.00048 1.84514 8.00048 1.04346H4.04782Z" fill="#D80027"/>
<path d="M8.00087 7.01611L5.15859 4.17383H4.1748V4.17389L8.0008 7.99989H8.00087C8.00087 7.99989 8.00087 7.32155 8.00087 7.01611Z" fill="#D80027"/>
<path d="M9.04395 5.21763V8.00019C9.04395 9.86394 11.4787 10.435 11.4787 10.435C11.4787 10.435 13.9135 9.86394 13.9135 8.00019V5.21763L11.4787 4.52197L9.04395 5.21763Z" fill="#F3F3F3"/>
<path d="M13.9135 5.2173V4.17383H9.04395V5.2173H11.1309V7.3043H9.04395V7.99989V7.99995L11.1309 7.99998V10.328C11.3408 10.4023 11.4787 10.4347 11.4787 10.4347C11.4787 10.4347 11.6166 10.4023 11.8265 10.328V7.99995H13.9135V7.99989V7.30427H11.8265V5.21727H13.9135V5.2173Z" fill="#D80027"/>
</g>
<defs>
<clipPath id="clip0_6774_63214">
<rect width="16" height="16" fill="white"/>
</clipPath>
</defs>
</svg>
