<svg width="16" height="16" viewBox="0 0 16 16" fill="none" xmlns="http://www.w3.org/2000/svg">
<g clip-path="url(#clip0_6774_63448)">
<path d="M8 16C12.4183 16 16 12.4183 16 8C16 3.58172 12.4183 0 8 0C3.58172 0 0 3.58172 0 8C0 12.4183 3.58172 16 8 16Z" fill="#FFDA44"/>
<path d="M3.49121 1.39131C4.77512 0.513625 6.32755 0 8.00018 0C9.6728 0 11.2252 0.513625 12.5091 1.39131L8.00018 1.73913L3.49121 1.39131Z" fill="#A2001D"/>
<path d="M7.99964 7.99982L7.48908 7.48926L7.35352 7.7321L7.99964 7.99982Z" fill="#0052B4"/>
<path d="M2.34314 2.34326C-0.781047 5.46745 -0.781047 10.5328 2.34314 13.657C3.63417 12.366 4.87583 11.1243 8.00002 8.00014L2.34314 2.34326Z" fill="#496E2D"/>
<path d="M13.6569 2.34326C16.7811 5.46745 16.7811 10.5328 13.6569 13.657C12.3658 12.366 11.1242 11.1243 8 8.00014L13.6569 2.34326Z" fill="#496E2D"/>
<path d="M8.00037 10.7825C9.53715 10.7825 10.783 9.53666 10.783 7.99988C10.783 6.46309 9.53715 5.21729 8.00037 5.21729C6.46358 5.21729 5.21777 6.46309 5.21777 7.99988C5.21777 9.53666 6.46358 10.7825 8.00037 10.7825Z" fill="#A2001D"/>
<path d="M7.99977 5.21729L8.62348 7.13694H10.6422L9.00911 8.3236L9.63283 10.2433L7.99977 9.05691L6.36664 10.2433L6.99048 8.3236L5.35742 7.13694H7.37598L7.99977 5.21729Z" fill="#FFDA44"/>
<path d="M8.00287 0H7.99753C5.78962 0.00071875 3.79084 0.895813 2.34375 2.34275H13.6567C12.2095 0.895813 10.2107 0.00071875 8.00287 0Z" fill="#A2001D"/>
<path d="M2.34375 13.6572C3.79144 15.1047 5.79125 15.9999 8.00016 15.9999C10.2091 15.9999 12.2089 15.1047 13.6566 13.6572H2.34375Z" fill="#A2001D"/>
<path d="M7.99977 0.869629L8.1293 1.26819H8.54836L8.20933 1.51454L8.33886 1.9131L7.99977 1.66679L7.66073 1.9131L7.79027 1.51454L7.45117 1.26819H7.87023L7.99977 0.869629Z" fill="#FFDA44"/>
<path d="M6.05934 0.869629L6.18887 1.26819H6.60793L6.2689 1.51454L6.39843 1.9131L6.05934 1.66679L5.72034 1.9131L5.84984 1.51454L5.51074 1.26819H5.9298L6.05934 0.869629Z" fill="#FFDA44"/>
<path d="M9.93922 0.869629L10.0687 1.26819H10.4878L10.1488 1.51454L10.2783 1.9131L9.93922 1.66679L9.60019 1.9131L9.72972 1.51454L9.39062 1.26819H9.80969L9.93922 0.869629Z" fill="#FFDA44"/>
<path d="M7.99977 14.0869L8.1293 14.4855H8.54836L8.20933 14.7318L8.33886 15.1304L7.99977 14.884L7.66073 15.1304L7.79027 14.7318L7.45117 14.4855H7.87023L7.99977 14.0869Z" fill="#FFDA44"/>
<path d="M6.05934 14.0869L6.18887 14.4855H6.60793L6.2689 14.7318L6.39843 15.1304L6.05934 14.884L5.72034 15.1304L5.84984 14.7318L5.51074 14.4855H5.9298L6.05934 14.0869Z" fill="#FFDA44"/>
<path d="M9.93922 14.0869L10.0687 14.4855H10.4878L10.1488 14.7318L10.2783 15.1304L9.93922 14.884L9.60019 15.1304L9.72972 14.7318L9.39062 14.4855H9.80969L9.93922 14.0869Z" fill="#FFDA44"/>
<path d="M2.43711 7.86795C2.64257 8.19261 2.54601 8.62233 2.22136 8.82783C1.89673 9.03333 1.46698 8.93677 1.26148 8.61211C0.889449 8.02436 1.10517 7.06445 1.10517 7.06445C1.10517 7.06445 2.06504 7.28017 2.43711 7.86795Z" fill="#FFDA44"/>
<path d="M2.03629 8.88166C2.22838 8.88166 2.3841 8.72594 2.3841 8.53385C2.3841 8.34176 2.22838 8.18604 2.03629 8.18604C1.8442 8.18604 1.68848 8.34176 1.68848 8.53385C1.68848 8.72594 1.8442 8.88166 2.03629 8.88166Z" fill="#A2001D"/>
</g>
<defs>
<clipPath id="clip0_6774_63448">
<rect width="16" height="16" fill="white"/>
</clipPath>
</defs>
</svg>
