<svg width="16" height="16" viewBox="0 0 16 16" fill="none" xmlns="http://www.w3.org/2000/svg">
<g clip-path="url(#clip0_6774_63471)">
<path d="M3.49121 14.6087C4.77509 15.4864 6.32759 16.0001 8.00018 16.0001C9.67277 16.0001 11.2252 15.4864 12.5091 14.6087L8.00018 13.9131L3.49121 14.6087Z" fill="#D80027"/>
<path d="M12.5091 1.39131C11.2252 0.513656 9.67277 0 8.00018 0C6.32759 0 4.77509 0.513656 3.49121 1.39131L8.00018 2.08697L12.5091 1.39131Z" fill="#D80027"/>
<path d="M16 7.9998C16 5.35261 14.4151 2.69418 12.509 1.39111H3.49103C1.38344 2.83186 0 5.25418 0 7.9998C0 10.7455 1.38344 13.1677 3.49103 14.6085H12.509C14.6166 13.1677 16 10.7455 16 7.9998Z" fill="#0052B4"/>
<path d="M7.54686 13.0499C7.43755 12.9561 4.86914 10.7234 4.86914 7.99998C4.86914 5.27657 7.43752 3.04379 7.54686 2.95007L7.99958 2.56201L8.4523 2.95004C8.56161 3.04379 11.13 5.27654 11.13 7.99998C11.13 10.7234 8.56164 12.9562 8.4523 13.0499L7.99958 13.438L7.54686 13.0499Z" fill="#D80027"/>
<path d="M10.435 7.99978C10.435 5.565 8.00021 3.47803 8.00021 3.47803C8.00021 3.47803 5.56543 5.56506 5.56543 7.99978C5.56543 8.74462 5.79346 9.45678 6.10977 10.0867H9.89065C10.207 9.45678 10.435 8.74462 10.435 7.99978Z" fill="#338AF3"/>
<path d="M10.435 8C10.435 8.74484 10.207 9.457 9.89065 10.087L8.00021 10.4348L6.10977 10.087C5.79346 9.45703 5.56543 8.74484 5.56543 8H10.435Z" fill="#0052B4"/>
<path d="M7.99981 12.5217C7.99981 12.5217 9.17256 11.5162 9.89025 10.0869H6.10938C6.82706 11.5162 7.99981 12.5217 7.99981 12.5217Z" fill="#FFDA44"/>
<path d="M6.43457 6.60889H9.56501L7.99979 8.17411L6.43457 6.60889Z" fill="#6DA544"/>
<path d="M7.47852 7.65234H8.52198V10.7828H7.47852V7.65234Z" fill="#A2001D"/>
</g>
<defs>
<clipPath id="clip0_6774_63471">
<rect width="16" height="16" fill="white"/>
</clipPath>
</defs>
</svg>
