<svg width="16" height="16" viewBox="0 0 16 16" fill="none" xmlns="http://www.w3.org/2000/svg">
<g clip-path="url(#clip0_6774_63482)">
<path d="M8 16C12.4183 16 16 12.4183 16 8C16 3.58172 12.4183 0 8 0C3.58172 0 0 3.58172 0 8C0 12.4183 3.58172 16 8 16Z" fill="#F0F0F0"/>
<path d="M16.0003 8.00013C16.0003 4.82844 14.1545 2.08795 11.4785 0.793945V15.2063C14.1545 13.9123 16.0003 11.1718 16.0003 8.00013Z" fill="#338AF3"/>
<path d="M0 8.00013C0 11.1718 1.84578 13.9123 4.52175 15.2063V0.793945C1.84578 2.08795 0 4.82844 0 8.00013Z" fill="#338AF3"/>
<path d="M10.0903 9.35267L8.73765 7.99998L10.0252 6.71232L9.9669 6.03226L9.59827 5.66357L7.99977 7.26207L6.40127 5.66357L6.03265 6.03226L5.9743 6.71232L7.2619 7.99998L5.90918 9.35267L6.64705 10.0905L7.99977 8.73782L9.35249 10.0905L10.0903 9.35267Z" fill="#ACABB1"/>
<path d="M9.96796 6.03223L9.23012 6.77007C9.54484 7.08479 9.73952 7.51957 9.73952 7.99982C9.73952 8.96032 8.96087 9.73895 8.0004 9.73895C7.03993 9.73895 6.26124 8.96032 6.26124 7.99982C6.26124 7.51957 6.45593 7.08479 6.77065 6.77007L6.0328 6.03223C5.52921 6.53573 5.21777 7.23138 5.21777 7.99982C5.21777 9.53663 6.46359 10.7824 8.00037 10.7824C9.53715 10.7824 10.783 9.5366 10.783 7.99982C10.783 7.23141 10.4715 6.53576 9.96796 6.03223Z" fill="#6DA544"/>
</g>
<defs>
<clipPath id="clip0_6774_63482">
<rect width="16" height="16" fill="white"/>
</clipPath>
</defs>
</svg>
