<svg width="16" height="16" viewBox="0 0 16 16" fill="none" xmlns="http://www.w3.org/2000/svg">
<g clip-path="url(#clip0_6774_63489)">
<path d="M8.00037 0C7.2783 0 6.5788 0.09625 5.9134 0.275594L5.21777 8L5.91343 15.7244C6.5788 15.9038 7.2783 16 8.00037 16C12.4186 16 16.0004 12.4183 16.0004 8C16.0004 3.58175 12.4186 0 8.00037 0Z" fill="#FFDA44"/>
<path d="M5.21777 8L5.91343 15.7244C6.5788 15.9037 7.2783 16 8.00037 16C12.4186 16 16.0004 12.4183 16.0004 8H5.21777Z" fill="#6DA544"/>
<path d="M0 7.99994C0 11.0323 1.68719 13.6704 4.17391 15.0272V0.972656C1.68719 2.32947 0 4.96759 0 7.99994Z" fill="#D80027"/>
<path d="M0 7.9998C0 11.696 2.50691 14.8062 5.91303 15.7242V0.275391C2.50691 1.19339 0 4.30358 0 7.9998Z" fill="#D80027"/>
<path d="M3.02345 5.91309L3.54141 7.50734H5.21785L3.86166 8.49271L4.3796 10.087L3.02345 9.10168L1.66723 10.087L2.18529 8.49271L0.829102 7.50734H2.50545L3.02345 5.91309Z" fill="black"/>
</g>
<defs>
<clipPath id="clip0_6774_63489">
<rect width="16" height="16" fill="white"/>
</clipPath>
</defs>
</svg>
