<svg width="16" height="16" viewBox="0 0 16 16" fill="none" xmlns="http://www.w3.org/2000/svg">
<g clip-path="url(#clip0_6774_63551)">
<path d="M8 16C12.4183 16 16 12.4183 16 8C16 3.58172 12.4183 0 8 0C3.58172 0 0 3.58172 0 8C0 12.4183 3.58172 16 8 16Z" fill="#F0F0F0"/>
<path d="M7.9998 16C10.0285 16 11.8804 15.2445 13.2906 14H2.70898C4.1192 15.2445 5.97114 16 7.9998 16Z" fill="#D80027"/>
<path d="M0.251953 9.9998C0.434609 10.7094 0.712297 11.3807 1.07042 11.9998H14.9294C15.2875 11.3807 15.5652 10.7094 15.7479 9.9998L7.99992 9.39111L0.251953 9.9998Z" fill="#0052B4"/>
<path d="M15.7475 6C15.5648 5.29044 15.2871 4.61906 14.929 4L7.9995 3.82609C7.9995 2.42881 7.9995 1.10828 7.9995 0C7.40522 0 6.82603 0.0648437 6.26869 0.18775C6.258 0.190125 1.04297 4.30369 1.04297 8C1.17631 8.02319 7.9995 8.69566 7.9995 8.69566C7.9995 8.69566 7.9995 7.17188 7.9995 6H15.7475Z" fill="#0052B4"/>
<path d="M8 4.99151V0.991508H5.46641L6.26944 0.188477C2.97284 0.915539 0.439875 3.67566 0.0521875 7.08716C0.018125 7.38685 0 7.69138 0 8.0002H4.05219V6.40573L5.66244 8.0002H8.52447L5.46637 4.99151H8Z" fill="#F0F0F0"/>
<path d="M8.00366 8.0001L4.99497 4.99141H4.05219V4.99144L7.06084 8.0001H3.04347V4.0001H14.9295C14.4939 3.24719 13.939 2.57207 13.2908 2.0001H3.04347V1.72119C2.23634 2.35922 1.55534 3.14947 1.04347 4.04866V8.0001H0C0 8.69069 0.0875 9.36088 0.252031 10.0001H15.748C15.9125 9.36085 16 8.69069 16 8.0001H8.00366Z" fill="#D80027"/>
</g>
<defs>
<clipPath id="clip0_6774_63551">
<rect width="16" height="16" fill="white"/>
</clipPath>
</defs>
</svg>
