<svg width="16" height="16" viewBox="0 0 16 16" fill="none" xmlns="http://www.w3.org/2000/svg">
<g clip-path="url(#clip0_6774_63559)">
<path d="M8 16C12.4183 16 16 12.4183 16 8C16 3.58172 12.4183 0 8 0C3.58172 0 0 3.58172 0 8C0 12.4183 3.58172 16 8 16Z" fill="#F0F0F0"/>
<path d="M8.00013 15.9998C11.1718 15.9998 13.9123 14.154 15.2063 11.478H0.793945C2.08795 14.154 4.82844 15.9998 8.00013 15.9998Z" fill="#338AF3"/>
<path d="M8.00013 0C4.82844 0 2.08795 1.84578 0.793945 4.52175H15.2063C13.9123 1.84578 11.1718 0 8.00013 0Z" fill="#338AF3"/>
<path d="M4.92336 5.21729L5.18236 6.01444H6.02052L5.34245 6.50707L5.60148 7.30422L4.92336 6.81157L4.24523 7.30422L4.50427 6.50707L3.82617 6.01444H4.66433L4.92336 5.21729Z" fill="#338AF3"/>
<path d="M4.92336 8.6958L5.18236 9.49299H6.02052L5.34245 9.98561L5.60148 10.7827L4.92336 10.2901L4.24523 10.7827L4.50427 9.98561L3.82617 9.49299H4.66433L4.92336 8.6958Z" fill="#338AF3"/>
<path d="M11.0767 5.21729L11.3357 6.01444H12.1739L11.4958 6.50707L11.7548 7.30422L11.0767 6.81157L10.3986 7.30422L10.6576 6.50707L9.97949 6.01444H10.8177L11.0767 5.21729Z" fill="#338AF3"/>
<path d="M11.0767 8.6958L11.3357 9.49299H12.1739L11.4958 9.98561L11.7548 10.7827L11.0767 10.2901L10.3986 10.7827L10.6576 9.98561L9.97949 9.49299H10.8177L11.0767 8.6958Z" fill="#338AF3"/>
<path d="M8.00051 6.95654L8.25954 7.75373H9.09769L8.4196 8.24636L8.67863 9.04348L8.00051 8.55082L7.32238 9.04348L7.58141 8.24636L6.90332 7.75373H7.74148L8.00051 6.95654Z" fill="#338AF3"/>
</g>
<defs>
<clipPath id="clip0_6774_63559">
<rect width="16" height="16" fill="white"/>
</clipPath>
</defs>
</svg>
