<svg width="16" height="16" viewBox="0 0 16 16" fill="none" xmlns="http://www.w3.org/2000/svg">
<g clip-path="url(#clip0_6774_63631)">
<path d="M8 16C12.4183 16 16 12.4183 16 8C16 3.58172 12.4183 0 8 0C3.58172 0 0 3.58172 0 8C0 12.4183 3.58172 16 8 16Z" fill="#D80027"/>
<path d="M8.82549 6.05208C8.64368 6.8083 8.32065 6.66408 8.16212 7.32358C7.22828 7.09905 6.65315 6.15999 6.87768 5.22608C7.10212 4.29224 8.04128 3.71712 8.97515 3.94165C8.65806 5.26062 8.98815 5.37574 8.82549 6.05208Z" fill="#F0F0F0"/>
<path d="M6.40231 6.61231C7.06534 7.01887 6.82834 7.28159 7.40653 7.63618C6.9044 8.45497 5.83362 8.71168 5.01481 8.20959C4.19603 7.7075 3.93925 6.63665 4.44137 5.81787C5.59781 6.527 5.80922 6.24865 6.40231 6.61231Z" fill="#F0F0F0"/>
<path d="M6.18663 9.09035C6.77823 8.58541 6.95476 8.89197 7.47066 8.45166C8.09426 9.18219 8.00751 10.2799 7.27701 10.9035C6.54645 11.5271 5.4487 11.4403 4.8252 10.7098C5.85688 9.8291 5.65748 9.54194 6.18663 9.09035Z" fill="#F0F0F0"/>
<path d="M8.47634 10.0614C8.17884 9.34279 8.52497 9.26954 8.26562 8.64288C9.15309 8.2756 10.1703 8.69729 10.5377 9.58476C10.9049 10.4722 10.4832 11.4894 9.59572 11.8568C9.07706 10.6034 8.74241 10.7043 8.47634 10.0614Z" fill="#F0F0F0"/>
<path d="M10.1072 8.18352C9.33179 8.24436 9.369 7.89249 8.69291 7.94555C8.61782 6.98808 9.33325 6.15086 10.2908 6.07571C11.2483 6.00074 12.0855 6.71611 12.1605 7.67367C10.8081 7.77971 10.8007 8.12918 10.1072 8.18352Z" fill="#F0F0F0"/>
</g>
<defs>
<clipPath id="clip0_6774_63631">
<rect width="16" height="16" fill="white"/>
</clipPath>
</defs>
</svg>
