<svg width="16" height="16" viewBox="0 0 16 16" fill="none" xmlns="http://www.w3.org/2000/svg">
<g clip-path="url(#clip0_6774_63569)">
<path d="M8 16C12.4183 16 16 12.4183 16 8C16 3.58172 12.4183 0 8 0C3.58172 0 0 3.58172 0 8C0 12.4183 3.58172 16 8 16Z" fill="#F0F0F0"/>
<path d="M8.00013 0C4.82844 0 2.08795 1.84578 0.793945 4.52175H15.2063C13.9123 1.84578 11.1718 0 8.00013 0Z" fill="#FF9811"/>
<path d="M8.00013 15.9998C11.1718 15.9998 13.9123 14.154 15.2063 11.478H0.793945C2.08795 14.154 4.82844 15.9998 8.00013 15.9998Z" fill="#6DA544"/>
<path d="M8.00037 10.7825C9.53715 10.7825 10.783 9.53666 10.783 7.99988C10.783 6.46309 9.53715 5.21729 8.00037 5.21729C6.46358 5.21729 5.21777 6.46309 5.21777 7.99988C5.21777 9.53666 6.46358 10.7825 8.00037 10.7825Z" fill="#0052B4"/>
<path d="M7.99987 9.73899C8.96036 9.73899 9.73899 8.96036 9.73899 7.99987C9.73899 7.03937 8.96036 6.26074 7.99987 6.26074C7.03937 6.26074 6.26074 7.03937 6.26074 7.99987C6.26074 8.96036 7.03937 9.73899 7.99987 9.73899Z" fill="#F0F0F0"/>
<path d="M8.00013 5.854L8.53666 7.07082L9.85866 6.92703L9.07316 8.00007L9.85866 9.0731L8.53666 8.92932L8.00013 10.1461L7.4636 8.92932L6.1416 9.07307L6.9271 8.00007L6.1416 6.92703L7.4636 7.07082L8.00013 5.854Z" fill="#0052B4"/>
</g>
<defs>
<clipPath id="clip0_6774_63569">
<rect width="16" height="16" fill="white"/>
</clipPath>
</defs>
</svg>
