<svg width="16" height="16" viewBox="0 0 16 16" fill="none" xmlns="http://www.w3.org/2000/svg">
<g clip-path="url(#clip0_6774_63733)">
<path d="M8 16C12.4183 16 16 12.4183 16 8C16 3.58172 12.4183 0 8 0C3.58172 0 0 3.58172 0 8C0 12.4183 3.58172 16 8 16Z" fill="#F0F0F0"/>
<path d="M11.0119 6.2611H9.00365L7.99959 4.52197L6.99555 6.2611H4.9873L5.99149 8.00022L4.9873 9.73935H6.99555L7.99959 11.4785L9.00365 9.73935H11.0119L10.0077 8.00022L11.0119 6.2611ZM9.23318 8.00022L8.61643 9.0686H7.38284L6.76599 8.00022L7.3828 6.93185H8.6164L9.23318 8.00022ZM7.99959 5.86344L8.22915 6.26107H7.77009L7.99959 5.86344ZM6.14915 6.93185H6.60827L6.37871 7.32947L6.14915 6.93185ZM6.14915 9.0686L6.37874 8.67097L6.6083 9.0686H6.14915ZM7.99959 10.137L7.77005 9.73935H8.22915L7.99959 10.137ZM9.85002 9.0686H9.3909L9.62049 8.67097L9.85002 9.0686ZM9.3909 6.93185H9.85002L9.62046 7.32947L9.3909 6.93185Z" fill="#0052B4"/>
<path d="M12.9795 1.73926H3.01973C2.28964 2.32076 1.66352 3.02707 1.17383 3.82623H14.8255C14.3357 3.0271 13.7096 2.32076 12.9795 1.73926Z" fill="#0052B4"/>
<path d="M3.01973 14.2608H12.9795C13.7096 13.6793 14.3357 12.973 14.8254 12.1738H1.17383C1.66355 12.973 2.28967 13.6793 3.01973 14.2608Z" fill="#0052B4"/>
</g>
<defs>
<clipPath id="clip0_6774_63733">
<rect width="16" height="16" fill="white"/>
</clipPath>
</defs>
</svg>
