<svg width="16" height="16" viewBox="0 0 16 16" fill="none" xmlns="http://www.w3.org/2000/svg">
<g clip-path="url(#clip0_6774_63747)">
<path d="M8 16C12.4183 16 16 12.4183 16 8C16 3.58172 12.4183 0 8 0C3.58172 0 0 3.58172 0 8C0 12.4183 3.58172 16 8 16Z" fill="#FFDA44"/>
<path d="M12.8709 1.65375C11.5219 0.616844 9.83335 0 8.00041 0C6.16748 0 4.47885 0.616875 3.12988 1.65375L8.00041 6.52425L12.8709 1.65375Z" fill="#6DA544"/>
<path d="M1.65372 3.12939C0.616875 4.47836 0 6.16696 0 7.99989C0 9.83283 0.616875 11.5215 1.65375 12.8705L6.52428 7.99989L1.65372 3.12939Z" fill="black"/>
<path d="M3.12988 14.3461C4.47888 15.383 6.16748 15.9998 8.00041 15.9998C9.83335 15.9998 11.5219 15.383 12.8709 14.3461L8.00041 9.47559L3.12988 14.3461Z" fill="#6DA544"/>
<path d="M14.3461 12.8704C15.383 11.5214 15.9998 9.83283 15.9998 7.99989C15.9998 6.16696 15.383 4.47836 14.3461 3.12939L9.47559 7.99989L14.3461 12.8704Z" fill="black"/>
</g>
<defs>
<clipPath id="clip0_6774_63747">
<rect width="16" height="16" fill="white"/>
</clipPath>
</defs>
</svg>
