<svg width="16" height="16" viewBox="0 0 16 16" fill="none" xmlns="http://www.w3.org/2000/svg">
<g clip-path="url(#clip0_6774_63940)">
<path d="M8 16C12.4183 16 16 12.4183 16 8C16 3.58172 12.4183 0 8 0C3.58172 0 0 3.58172 0 8C0 12.4183 3.58172 16 8 16Z" fill="#0052B4"/>
<path d="M3.51366 4.86963L3.68635 5.40113H4.2451L3.79307 5.72954L3.96573 6.26094L3.51366 5.93254L3.06157 6.26094L3.23429 5.72954L2.78223 5.40113H3.34095L3.51366 4.86963Z" fill="#F0F0F0"/>
<path d="M5.25289 4.34814L5.42558 4.87961H5.98433L5.5323 5.20802L5.70495 5.73943L5.25289 5.41102L4.80083 5.73943L4.97352 5.20802L4.52148 4.87961H5.08023L5.25289 4.34814Z" fill="#F0F0F0"/>
<path d="M6.99215 3.82617L7.16484 4.35764H7.72359L7.27155 4.68608L7.44421 5.21748L6.99215 4.88905L6.54009 5.21748L6.71277 4.68608L6.26074 4.35764H6.81949L6.99215 3.82617Z" fill="#F0F0F0"/>
<path d="M12.4853 4.86963L12.3127 5.40113H11.7539L12.206 5.72954L12.0333 6.26094L12.4853 5.93254L12.9374 6.26094L12.7647 5.72954L13.2168 5.40113H12.658L12.4853 4.86963Z" fill="#F0F0F0"/>
<path d="M10.7461 4.34814L10.5734 4.87961H10.0146L10.4667 5.20802L10.294 5.73943L10.7461 5.41102L11.1981 5.73943L11.0255 5.20802L11.4775 4.87961H10.9187L10.7461 4.34814Z" fill="#F0F0F0"/>
<path d="M9.0078 3.82617L8.83512 4.35764H8.27637L8.7284 4.68608L8.55574 5.21748L9.0078 4.88905L9.45987 5.21748L9.28718 4.68608L9.73921 4.35764H9.18046L9.0078 3.82617Z" fill="#F0F0F0"/>
<path d="M9.39152 8.34801L8.00021 6.60889L7.30455 6.9567V7.65236L6.26109 8.34801H5.56543V9.24673C6.58505 9.65961 7.30455 10.6586 7.30455 11.8263H8.00021V11.1306L8.69587 10.435L9.39152 11.1306L10.0872 10.435V9.73932L10.7828 8.69586L9.39152 8.34801Z" fill="#FFDA44"/>
</g>
<defs>
<clipPath id="clip0_6774_63940">
<rect width="16" height="16" fill="white"/>
</clipPath>
</defs>
</svg>
