<svg width="16" height="16" viewBox="0 0 16 16" fill="none" xmlns="http://www.w3.org/2000/svg">
<g clip-path="url(#clip0_6774_63950)">
<path d="M15.5024 10.7828C15.824 9.91616 16 8.97879 16 8.00022C16 7.02166 15.824 6.08429 15.5024 5.21763L8 4.52197L0.497594 5.21763C0.176031 6.08429 0 7.02166 0 8.00022C0 8.97879 0.176031 9.91616 0.497594 10.7828L8 11.4785L15.5024 10.7828Z" fill="#F0F0F0"/>
<path d="M8.00048 16.0001C11.4402 16.0001 14.3725 13.8291 15.5029 10.7827H0.498047C1.62842 13.8291 4.56073 16.0001 8.00048 16.0001Z" fill="#D80027"/>
<path d="M8.00048 0C4.56073 0 1.62842 2.171 0.498047 5.21741H15.5029C14.3725 2.171 11.4402 0 8.00048 0Z" fill="#6DA544"/>
<path d="M2.34314 2.34326C-0.781047 5.46745 -0.781047 10.5328 2.34314 13.657C3.15861 12.8415 3.95455 12.0456 5.21739 10.7828V5.21754L2.34314 2.34326Z" fill="black"/>
</g>
<defs>
<clipPath id="clip0_6774_63950">
<rect width="16" height="16" fill="white"/>
</clipPath>
</defs>
</svg>
