<svg width="16" height="16" viewBox="0 0 16 16" fill="none" xmlns="http://www.w3.org/2000/svg">
<g clip-path="url(#clip0_6774_63955)">
<path d="M8 16C12.4183 16 16 12.4183 16 8C16 3.58172 12.4183 0 8 0C3.58172 0 0 3.58172 0 8C0 12.4183 3.58172 16 8 16Z" fill="#D80027"/>
<path d="M11.9127 8.00007L10.3141 8.75201L11.1654 10.3004L9.42936 9.9682L9.20948 11.7218L8.00027 10.4321L6.79114 11.7218L6.57117 9.9682L4.8353 10.3003L5.68655 8.75195L4.08789 8.00007L5.68655 7.24816L4.8353 5.69979L6.57111 6.03198L6.7912 4.27832L8.00027 5.56804L9.20955 4.27832L9.42936 6.03198L11.1655 5.69979L10.3141 7.24826L11.9127 8.00007Z" fill="#FFDA44"/>
<path d="M8.00021 10.435C9.3449 10.435 10.435 9.3449 10.435 8.00021C10.435 6.65552 9.3449 5.56543 8.00021 5.56543C6.65552 5.56543 5.56543 6.65552 5.56543 8.00021C5.56543 9.3449 6.65552 10.435 8.00021 10.435Z" fill="#D80027"/>
<path d="M6.78212 8C6.72346 8 6.66555 8.003 6.6084 8.00869C6.61049 8.34591 6.73249 8.65456 6.93399 8.89434C7.04149 8.60506 7.20199 8.34128 7.4044 8.11553C7.21109 8.04119 7.00137 8 6.78212 8Z" fill="#FFDA44"/>
<path d="M7.53125 9.31071C7.6775 9.36296 7.83497 9.39162 7.99922 9.39162C8.16347 9.39162 8.32094 9.36296 8.46719 9.31071C8.38747 8.99784 8.22288 8.71852 7.99922 8.49902C7.77556 8.71849 7.61097 8.99784 7.53125 9.31071Z" fill="#FFDA44"/>
<path d="M9.20461 7.30476C8.96405 6.88895 8.51477 6.60889 7.99977 6.60889C7.48477 6.60889 7.03548 6.88892 6.79492 7.30476C7.23348 7.30698 7.64473 7.42623 7.99977 7.63214C8.3548 7.42623 8.76598 7.30698 9.20461 7.30476Z" fill="#FFDA44"/>
<path d="M8.59473 8.11553C8.79713 8.34125 8.95763 8.60503 9.06513 8.89434C9.26663 8.65456 9.38863 8.34591 9.39073 8.00869C9.33354 8.00297 9.27563 8 9.21701 8C8.99782 7.99997 8.7881 8.04116 8.59473 8.11553Z" fill="#FFDA44"/>
</g>
<defs>
<clipPath id="clip0_6774_63955">
<rect width="16" height="16" fill="white"/>
</clipPath>
</defs>
</svg>
