<svg width="16" height="16" viewBox="0 0 16 16" fill="none" xmlns="http://www.w3.org/2000/svg">
<g clip-path="url(#clip0_6774_63964)">
<path d="M15.2063 4.52175C13.9123 1.84578 11.1718 0 8.00013 0C4.82844 0 2.08795 1.84578 0.793945 4.52175L8.00013 5.21741L15.2063 4.52175Z" fill="#D80027"/>
<path d="M0.793945 11.4784C2.08795 14.1543 4.82844 16.0001 8.00013 16.0001C11.1718 16.0001 13.9123 14.1543 15.2063 11.4784L8.00013 10.7827L0.793945 11.4784Z" fill="#D80027"/>
<path d="M15.2062 4.52197H0.793813C0.28525 5.57369 0 6.75363 0 8.00022C0 9.24682 0.28525 10.4268 0.793813 11.4785H15.2062C15.7148 10.4268 16 9.24682 16 8.00022C16 6.75363 15.7148 5.57369 15.2062 4.52197Z" fill="#0052B4"/>
<path d="M8.00037 10.7825C9.53715 10.7825 10.783 9.53666 10.783 7.99988C10.783 6.46309 9.53715 5.21729 8.00037 5.21729C6.46358 5.21729 5.21777 6.46309 5.21777 7.99988C5.21777 9.53666 6.46358 10.7825 8.00037 10.7825Z" fill="#F0F0F0"/>
</g>
<defs>
<clipPath id="clip0_6774_63964">
<rect width="16" height="16" fill="white"/>
</clipPath>
</defs>
</svg>
