<svg width="16" height="16" viewBox="0 0 16 16" fill="none" xmlns="http://www.w3.org/2000/svg">
<g clip-path="url(#clip0_6774_63970)">
<path d="M8 16C12.4183 16 16 12.4183 16 8C16 3.58172 12.4183 0 8 0C3.58172 0 0 3.58172 0 8C0 12.4183 3.58172 16 8 16Z" fill="#F0F0F0"/>
<path d="M8.00013 0C4.82844 0 2.08795 1.84578 0.793945 4.52175H15.2063C13.9123 1.84578 11.1718 0 8.00013 0Z" fill="#D80027"/>
<path d="M8.00013 15.9998C11.1718 15.9998 13.9123 14.154 15.2063 11.478H0.793945C2.08795 14.154 4.82844 15.9998 8.00013 15.9998Z" fill="#D80027"/>
<path d="M10.087 9.39152L8.00005 5.56543L5.91309 9.39152H7.4783V10.435H8.52181V9.39152H10.087Z" fill="#6DA544"/>
</g>
<defs>
<clipPath id="clip0_6774_63970">
<rect width="16" height="16" fill="white"/>
</clipPath>
</defs>
</svg>
