<svg width="16" height="16" viewBox="0 0 16 16" fill="none" xmlns="http://www.w3.org/2000/svg">
<g clip-path="url(#clip0_6774_62003)">
<path d="M8 16C12.4183 16 16 12.4183 16 8C16 3.58172 12.4183 0 8 0C3.58172 0 0 3.58172 0 8C0 12.4183 3.58172 16 8 16Z" fill="#F0F0F0"/>
<path d="M1.8291 2.90912H14.1719C13.716 2.35709 13.1872 1.86756 12.6007 1.45459H3.40026C2.81373 1.8675 2.28501 2.35706 1.8291 2.90912Z" fill="#F0F0F0"/>
<path d="M0 8.0002C0 8.24542 0.0116563 8.48786 0.03325 8.72748H15.9668C15.9883 8.48786 16 8.24542 16 8.0002C16 7.75498 15.9883 7.51254 15.9668 7.27295H0.03325C0.0116563 7.51254 0 7.75498 0 8.0002H0Z" fill="#F0F0F0"/>
<path d="M0.871906 11.6361H15.1272C15.3627 11.1753 15.5548 10.6887 15.6983 10.1816H0.300781C0.444188 10.6887 0.636375 11.1754 0.871906 11.6361Z" fill="#F0F0F0"/>
<path d="M3.40026 14.5454H12.6007C13.1872 14.1324 13.7159 13.6429 14.1718 13.0908H1.8291C2.28501 13.6428 2.81373 14.1324 3.40026 14.5454Z" fill="#F0F0F0"/>
<path d="M0.300781 5.8183H15.6983C15.5549 5.31118 15.3628 4.82455 15.1272 4.36377H0.871938C0.636406 4.82455 0.444219 5.31118 0.300781 5.8183Z" fill="#F0F0F0"/>
<path d="M3.82617 1.45453H12.6003C11.299 0.538344 9.71248 0 8.00008 0C6.95661 0 5.12742 0.538344 3.82617 1.45453Z" fill="#D80027"/>
<path d="M7.65234 4.36371H15.1278C14.8618 3.8433 14.5404 3.35584 14.1715 2.90918H7.65234V4.36371Z" fill="#D80027"/>
<path d="M7.65234 7.27289H15.9669C15.9219 6.77345 15.8315 6.28708 15.6989 5.81836H7.65234V7.27289Z" fill="#D80027"/>
<path d="M0.301203 10.1821H15.6987C15.8313 9.71338 15.9217 9.22698 15.9667 8.72754H0.0332031C0.0782031 9.22698 0.168641 9.71335 0.301203 10.1821Z" fill="#D80027"/>
<path d="M1.82832 13.0908H14.1711C14.54 12.644 14.8613 12.1566 15.1273 11.6362H0.87207C1.1381 12.1566 1.45941 12.6441 1.82832 13.0908Z" fill="#D80027"/>
<path d="M7.99963 15.9999C9.71204 15.9999 11.2986 15.4616 12.5999 14.5454H3.39941C4.70066 15.4616 6.28723 15.9999 7.99963 15.9999Z" fill="#D80027"/>
<path d="M0.301172 5.81819C0.168609 6.28694 0.0782031 6.77328 0.0332031 7.27272H7.99995V0C4.33808 0 1.25092 2.46038 0.301172 5.81819Z" fill="#0052B4"/>
<path d="M4.76173 2.08691L5.2797 3.68113H6.95613L5.59995 4.66651L6.11788 6.26082L4.76173 5.27551L3.40551 6.26082L3.92357 4.66651L2.56738 3.68113H4.24373L4.76173 2.08691Z" fill="#F0F0F0"/>
</g>
<defs>
<clipPath id="clip0_6774_62003">
<rect width="16" height="16" fill="white"/>
</clipPath>
</defs>
</svg>
