<svg width="16" height="16" viewBox="0 0 16 16" fill="none" xmlns="http://www.w3.org/2000/svg">
<g clip-path="url(#clip0_6774_62020)">
<path d="M0.793813 4.52183C0.28525 5.57358 0 6.75348 0 8.00008C0 9.24667 0.28525 10.4266 0.793813 11.4783L8 12.174L15.2062 11.4783C15.7147 10.4266 16 9.24667 16 8.00008C16 6.75348 15.7147 5.57358 15.2062 4.52183L8 3.82617L0.793813 4.52183Z" fill="black"/>
<path d="M0.793945 11.478C2.08788 14.154 4.82816 15.9998 7.99985 15.9998C11.1715 15.9998 13.9118 14.154 15.2058 11.478H0.793945Z" fill="#496E2D"/>
<path d="M0.793945 4.52175H15.2058C13.9118 1.84578 11.1715 0 7.99985 0C4.82816 0 2.08788 1.84578 0.793945 4.52175Z" fill="#D80027"/>
<path d="M9.86261 6.53711L10.519 7.44164L11.582 7.09695L10.9246 8.0007L11.5809 8.9052L10.5183 8.5592L9.86083 9.46295L9.86152 8.34542L8.79883 7.99942L9.86189 7.65473L9.86261 6.53711Z" fill="#F0F0F0"/>
<path d="M8.0711 10.2608C6.82248 10.2608 5.81023 9.24854 5.81023 7.99991C5.81023 6.75129 6.82248 5.73904 8.0711 5.73904C8.46041 5.73904 8.82676 5.83747 9.14657 6.01079C8.64482 5.52013 7.9587 5.21729 7.20154 5.21729C5.66473 5.21729 4.41895 6.4631 4.41895 7.99988C4.41895 9.53666 5.66476 10.7825 7.20154 10.7825C7.95873 10.7825 8.64485 10.4796 9.14657 9.98897C8.82673 10.1623 8.46044 10.2608 8.0711 10.2608Z" fill="#F0F0F0"/>
</g>
<defs>
<clipPath id="clip0_6774_62020">
<rect width="16" height="16" fill="white"/>
</clipPath>
</defs>
</svg>
