<svg width="16" height="16" viewBox="0 0 16 16" fill="none" xmlns="http://www.w3.org/2000/svg">
<g clip-path="url(#clip0_6774_62085)">
<path d="M8 16C12.4183 16 16 12.4183 16 8C16 3.58172 12.4183 0 8 0C3.58172 0 0 3.58172 0 8C0 12.4183 3.58172 16 8 16Z" fill="#496E2D"/>
<path d="M9.39083 7.66643C9.19445 7.66643 9.00802 7.70559 8.83489 7.7679C8.92973 7.55652 8.99333 7.32134 8.99333 7.07018C8.99333 6.0764 7.99955 5.33105 7.99955 5.33105C7.99955 5.33105 7.00577 6.0764 7.00577 7.07018C7.00577 7.3213 7.06936 7.55652 7.1642 7.7679C6.99105 7.70565 6.80461 7.66643 6.60827 7.66643C5.61448 7.66643 4.86914 8.66021 4.86914 8.66021C4.86914 8.66021 5.61448 9.65402 6.60827 9.65402C7.19092 9.65402 7.68786 9.31252 7.99958 9.02984C8.3113 9.31249 8.80823 9.65402 9.39089 9.65402C10.3847 9.65402 11.13 8.66021 11.13 8.66021C11.13 8.66021 10.3846 7.66643 9.39083 7.66643Z" fill="#F0F0F0"/>
<path d="M8.00042 3.13037L8.2057 3.76212H8.86998L8.33264 4.15262L8.53777 4.78437L8.00042 4.39387L7.46308 4.78437L7.6682 4.15262L7.13086 3.76212H7.79514L8.00042 3.13037Z" fill="#FFDA44"/>
<path d="M5.47374 4.23535L5.86868 4.59091L6.3289 4.32523L6.11277 4.8107L6.50768 5.16632L5.97918 5.11076L5.76305 5.59623L5.65249 5.07645L5.12402 5.02088L5.58421 4.75513L5.47374 4.23535Z" fill="#FFDA44"/>
<path d="M3.625 6.08461L4.14481 6.19508L4.41053 5.73486L4.46609 6.26333L4.98584 6.37389L4.50041 6.59005L4.55597 7.11849L4.20031 6.72364L3.71487 6.93977L3.98059 6.47952L3.625 6.08461Z" fill="#FFDA44"/>
<path d="M10.5261 4.23535L10.1312 4.59091L9.67097 4.32523L9.88706 4.8107L9.49219 5.16632L10.0207 5.11076L10.2368 5.59623L10.3474 5.07645L10.8758 5.02088L10.4157 4.75513L10.5261 4.23535Z" fill="#FFDA44"/>
<path d="M12.3755 6.08461L11.8557 6.19508L11.59 5.73486L11.5344 6.26333L11.0146 6.37389L11.5001 6.59005L11.4445 7.11849L11.8002 6.72364L12.2856 6.93977L12.0199 6.47952L12.3755 6.08461Z" fill="#FFDA44"/>
<path d="M8.0001 12.4365C8.78951 12.4365 9.51713 12.1731 10.1008 11.73H5.89941C6.4831 12.1731 7.2107 12.4365 8.0001 12.4365Z" fill="#F0F0F0"/>
<path d="M4.81152 10.3496C4.92193 10.6023 5.06193 10.839 5.22637 11.0561H10.7738C10.9382 10.839 11.0782 10.6023 11.1886 10.3496H4.81152Z" fill="#F0F0F0"/>
</g>
<defs>
<clipPath id="clip0_6774_62085">
<rect width="16" height="16" fill="white"/>
</clipPath>
</defs>
</svg>
