<svg width="16" height="16" viewBox="0 0 16 16" fill="none" xmlns="http://www.w3.org/2000/svg">
<g clip-path="url(#clip0_6774_62101)">
<path d="M11.4783 0.793813C10.4266 0.28525 9.24667 0 8.00008 0C6.75348 0 5.57358 0.28525 4.52183 0.793813L3.82617 8L4.52183 15.2062C5.57358 15.7147 6.75348 16 8.00008 16C9.24667 16 10.4266 15.7147 11.4783 15.2062L12.174 8L11.4783 0.793813Z" fill="#FFDA44"/>
<path d="M4.52175 0.793945C1.84578 2.08791 0 4.8282 0 7.99985C0 11.1715 1.84578 13.9118 4.52175 15.2058V0.793945Z" fill="#0052B4"/>
<path d="M11.4785 0.793945V15.2058C14.1545 13.9118 16.0003 11.1715 16.0003 7.99985C16.0003 4.8282 14.1545 2.08791 11.4785 0.793945Z" fill="#0052B4"/>
<path d="M10.2612 8.69553L10.783 9.39119V6.60857L10.2612 7.30422H8.69602V5.739L9.39168 5.21729H6.60905L7.30471 5.739V7.30422H5.73949L5.21777 6.60857V9.39119L5.73949 8.69553H7.30471V10.2608L6.60905 10.7825H9.39168L8.69602 10.2608V8.69553H10.2612Z" fill="#D80027"/>
<path d="M10.087 7.65224H8.34787V5.91309H7.65224V7.65224H5.91309V8.34787H7.65224V10.087H8.34787V8.34787H10.087V7.65224Z" fill="#F0F0F0"/>
</g>
<defs>
<clipPath id="clip0_6774_62101">
<rect width="16" height="16" fill="white"/>
</clipPath>
</defs>
</svg>
