<svg width="16" height="16" viewBox="0 0 16 16" fill="none" xmlns="http://www.w3.org/2000/svg">
<g clip-path="url(#clip0_6774_62108)">
<path d="M0 8.00007C0 8.97863 0.176031 9.916 0.497594 10.7827L8 11.1305L15.5024 10.7827C15.824 9.916 16 8.97863 16 8.00007C16 7.0215 15.824 6.08413 15.5024 5.21747L8 4.86963L0.497594 5.21744C0.176031 6.08413 0 7.0215 0 8.00007H0Z" fill="#D80027"/>
<path d="M8.00045 0C4.56073 0 1.62839 2.171 0.498047 5.21741H15.5029C14.3725 2.171 11.4402 0 8.00045 0Z" fill="black"/>
<path d="M15.5029 10.7827H0.498047C1.62839 13.8291 4.56073 16.0001 8.00045 16.0001C11.4402 16.0001 14.3725 13.8291 15.5029 10.7827Z" fill="#496E2D"/>
<path d="M10.3916 3.82589L9.41456 3.36633L9.93484 2.42011L8.87391 2.62308L8.73947 1.55127L8.00047 2.33955L7.2615 1.55127L7.12703 2.62308L6.06612 2.42011L6.58641 3.36633L5.60938 3.82589H10.3916Z" fill="#D80027"/>
</g>
<defs>
<clipPath id="clip0_6774_62108">
<rect width="16" height="16" fill="white"/>
</clipPath>
</defs>
</svg>
