<svg width="16" height="16" viewBox="0 0 16 16" fill="none" xmlns="http://www.w3.org/2000/svg">
<g clip-path="url(#clip0_6774_62113)">
<path d="M8 16C12.4183 16 16 12.4183 16 8C16 3.58172 12.4183 0 8 0C3.58172 0 0 3.58172 0 8C0 12.4183 3.58172 16 8 16Z" fill="#F0F0F0"/>
<path d="M7.65234 8.00005H16.0002C16.0002 7.27796 15.9039 6.57852 15.7246 5.91309H7.65234V8.00005Z" fill="#D80027"/>
<path d="M7.65234 3.82623H14.826C14.3362 3.0271 13.7102 2.32076 12.9801 1.73926H7.65234V3.82623Z" fill="#D80027"/>
<path d="M7.99944 16.0004C9.88222 16.0004 11.6128 15.3496 12.9793 14.2612H3.01953C4.38612 15.3496 6.11666 16.0004 7.99944 16.0004Z" fill="#D80027"/>
<path d="M1.17398 12.1739H14.8256C15.2188 11.5324 15.5236 10.8311 15.7242 10.0869H0.275391C0.475922 10.8311 0.780828 11.5324 1.17398 12.1739Z" fill="#D80027"/>
<path d="M8 8C8 3.58175 8 3.06087 8 0C3.58175 0 0 3.58175 0 8H8Z" fill="#0052B4"/>
<path d="M5.31968 6.84757C4.22712 6.84757 3.34143 5.96185 3.34143 4.86932C3.34143 3.77679 4.22715 2.89107 5.31968 2.89107C5.66034 2.89107 5.98087 2.97723 6.26071 3.12885C5.82171 2.69957 5.22134 2.43457 4.5588 2.43457C3.21415 2.43457 2.12402 3.52466 2.12402 4.86935C2.12402 6.21404 3.21415 7.30413 4.5588 7.30413C5.22134 7.30413 5.82171 7.03913 6.26071 6.60985C5.98087 6.76141 5.66037 6.84757 5.31968 6.84757Z" fill="#FFDA44"/>
<path d="M5.87732 3.47803L6.22854 4.21246L7.0217 4.02921L6.66651 4.76168L7.30438 5.26753L6.5102 5.44656L6.51241 6.26065L5.87732 5.75134L5.2422 6.26065L5.24438 5.44656L4.4502 5.26753L5.08807 4.76168L4.73285 4.02921L5.52607 4.21246L5.87732 3.47803Z" fill="#FFDA44"/>
</g>
<defs>
<clipPath id="clip0_6774_62113">
<rect width="16" height="16" fill="white"/>
</clipPath>
</defs>
</svg>
