<svg width="16" height="16" viewBox="0 0 16 16" fill="none" xmlns="http://www.w3.org/2000/svg">
<g clip-path="url(#clip0_6774_62173)">
<path d="M8 16C12.4183 16 16 12.4183 16 8C16 3.58172 12.4183 0 8 0C3.58172 0 0 3.58172 0 8C0 12.4183 3.58172 16 8 16Z" fill="#F0F0F0"/>
<path d="M15.9309 6.95633C15.7103 5.26927 14.9524 3.63908 13.6563 2.34298C12.3603 1.04689 10.73 0.289047 9.04297 0.0683594L9.043 6.95633H15.9309Z" fill="#0052B4"/>
<path d="M6.95633 0.0683594C5.26927 0.289047 3.63905 1.04686 2.34295 2.34295C1.04689 3.63908 0.289047 5.2693 0.0683594 6.95639L6.95636 6.95636L6.95633 0.0683594Z" fill="#0052B4"/>
<path d="M0.0683594 9.04346C0.289047 10.7305 1.04689 12.3608 2.34295 13.6568C3.63905 14.9529 5.26923 15.7107 6.95636 15.9315L6.95633 9.04352L0.0683594 9.04346Z" fill="#0052B4"/>
<path d="M9.04297 15.9314C10.73 15.7107 12.3602 14.9529 13.6563 13.6568C14.9524 12.3607 15.7102 10.7305 15.9309 9.04346H9.04297V15.9314Z" fill="#0052B4"/>
<path d="M10.731 5.07615C10.731 4.96977 10.8175 4.8833 10.9239 4.8833H11.3372C11.9904 4.8833 12.5219 4.35187 12.5219 3.69865C12.5219 3.04543 11.9904 2.51396 11.3372 2.51396H10.9447C10.8166 2.41774 10.6448 2.3584 10.4552 2.3584C10.0598 2.3584 9.73929 2.6148 9.73929 2.93112C9.73929 3.24437 10.0537 3.49849 10.4438 3.50343L10.4436 3.50571H11.3372C11.4436 3.50571 11.53 3.59221 11.53 3.69859C11.53 3.80496 11.4436 3.89143 11.3372 3.89143H10.9239C10.2707 3.89143 9.73926 4.42287 9.73926 5.07609C9.73926 5.7293 10.2706 6.26077 10.9239 6.26077H12.5219V5.26896H10.9239C10.8175 5.26899 10.731 5.18252 10.731 5.07615Z" fill="#F0F0F0"/>
<path d="M4.47027 5.07615C4.47027 4.96977 4.55673 4.8833 4.66314 4.8833H5.07639C5.72964 4.8833 6.26111 4.35187 6.26111 3.69865C6.26111 3.04543 5.72967 2.51396 5.07639 2.51396H4.68395C4.55586 2.41774 4.38402 2.3584 4.19445 2.3584C3.79905 2.3584 3.47852 2.6148 3.47852 2.93112C3.47852 3.24437 3.79292 3.49849 4.18305 3.50343L4.18286 3.50571H5.07642C5.18283 3.50571 5.2693 3.59221 5.2693 3.69859C5.2693 3.80496 5.18283 3.89143 5.07642 3.89143H4.66317C4.00992 3.89143 3.47852 4.42287 3.47852 5.07609C3.47852 5.7293 4.00989 6.26077 4.66317 6.26077H6.26108V5.26896H4.66314C4.55673 5.26899 4.47027 5.18252 4.47027 5.07615Z" fill="#F0F0F0"/>
<path d="M10.7311 12.457C10.7311 12.3506 10.8175 12.2642 10.9239 12.2642H11.3372C11.9904 12.2642 12.5219 11.7327 12.5219 11.0795C12.5219 10.4263 11.9905 9.89482 11.3372 9.89482H10.9448C10.8167 9.7986 10.6448 9.73926 10.4553 9.73926C10.0598 9.73926 9.73929 9.9957 9.73929 10.312C9.73929 10.6252 10.0537 10.8794 10.4438 10.8843L10.4436 10.8866H11.3372C11.4436 10.8866 11.53 10.9731 11.53 11.0794C11.53 11.1858 11.4436 11.2723 11.3372 11.2723H10.9239C10.2707 11.2723 9.73926 11.8037 9.73926 12.4569C9.73926 13.1102 10.2706 13.6416 10.9239 13.6416H12.5219V12.6499H10.9239C10.8175 12.6499 10.7311 12.5634 10.7311 12.457Z" fill="#F0F0F0"/>
<path d="M4.4703 12.457C4.4703 12.3506 4.55677 12.2642 4.66317 12.2642H5.07642C5.72967 12.2642 6.26114 11.7327 6.26114 11.0795C6.26114 10.4263 5.7297 9.89482 5.07642 9.89482H4.68398C4.55589 9.7986 4.38405 9.73926 4.19448 9.73926C3.79905 9.73926 3.47852 9.9957 3.47852 10.312C3.47852 10.6252 3.79292 10.8794 4.18305 10.8843L4.18286 10.8866H5.07642C5.18283 10.8866 5.2693 10.9731 5.2693 11.0794C5.2693 11.1858 5.18283 11.2723 5.07642 11.2723H4.66317C4.00992 11.2723 3.47852 11.8037 3.47852 12.4569C3.47852 13.1102 4.00989 13.6416 4.66317 13.6416H6.26111V12.6499H4.66317C4.55677 12.6499 4.4703 12.5634 4.4703 12.457Z" fill="#F0F0F0"/>
</g>
<defs>
<clipPath id="clip0_6774_62173">
<rect width="16" height="16" fill="white"/>
</clipPath>
</defs>
</svg>
