<svg width="16" height="16" viewBox="0 0 16 16" fill="none" xmlns="http://www.w3.org/2000/svg">
<g clip-path="url(#clip0_6774_62185)">
<path d="M8 16C12.4183 16 16 12.4183 16 8C16 3.58172 12.4183 0 8 0C3.58172 0 0 3.58172 0 8C0 12.4183 3.58172 16 8 16Z" fill="#496E2D"/>
<path d="M8.00037 9.24253C6.6683 9.24253 5.55549 8.30634 5.28246 7.05618C5.24052 7.24837 5.21777 7.44765 5.21777 7.65246C5.21777 9.18931 6.46355 10.4351 8.00037 10.4351C9.53718 10.4351 10.783 9.18928 10.783 7.65246C10.783 7.44765 10.7602 7.24837 10.7183 7.05615C10.4452 8.30637 9.33243 9.24253 8.00037 9.24253Z" fill="#FFDA44"/>
<path d="M8.00048 5.56543L8.25948 6.36259H9.09769L8.4196 6.85524L8.6786 7.6524L8.00048 7.15971L7.32238 7.6524L7.58141 6.85524L6.90332 6.36259H7.74148L8.00048 5.56543Z" fill="#FFDA44"/>
</g>
<defs>
<clipPath id="clip0_6774_62185">
<rect width="16" height="16" fill="white"/>
</clipPath>
</defs>
</svg>
