<svg width="16" height="16" viewBox="0 0 16 16" fill="none" xmlns="http://www.w3.org/2000/svg">
<g clip-path="url(#clip0_6774_62195)">
<path d="M8 16C12.4183 16 16 12.4183 16 8C16 3.58172 12.4183 0 8 0C3.58172 0 0 3.58172 0 8C0 12.4183 3.58172 16 8 16Z" fill="#338AF3"/>
<path d="M3.82617 8.6958H12.174V9.73927H3.82617V8.6958Z" fill="#818085"/>
<path d="M5.21777 5.56534L8.00037 5.91321L10.783 5.56534V3.89578L9.66993 4.45231L8.00037 2.78271L6.3308 4.45231L5.21777 3.89578V5.56534Z" fill="#FFDA44"/>
<path d="M4.52202 10.7828H3.47852V8.86976L3.82636 8.34798L3.47852 7.82626V6.60889H4.52202V10.7828Z" fill="#F0F0F0"/>
<path d="M12.522 10.7828H11.4785V6.60889H12.522V7.82623L12.1742 8.35673L12.522 8.86982V10.7828Z" fill="#F0F0F0"/>
<path d="M3.47852 7.82617H12.522V8.86964H3.47852V7.82617Z" fill="#ACABB1"/>
<path d="M8.00037 12.1741C6.46602 12.1741 5.21777 10.9258 5.21777 9.39149V5.56543H10.783V9.39149C10.783 10.9258 9.53471 12.1741 8.00037 12.1741Z" fill="#F0F0F0"/>
<path d="M7.99987 11.1306C7.0409 11.1306 6.26074 10.3504 6.26074 9.39145V6.60889H9.73899V9.39145C9.73899 10.3504 8.95884 11.1306 7.99987 11.1306Z" fill="#0052B4"/>
<path d="M5.21777 5.56543H6.26124V6.6089H5.21777V5.56543Z" fill="#D80027"/>
<path d="M9.73926 5.56543H10.7827V6.6089H9.73926V5.56543Z" fill="#D80027"/>
<path d="M9.73926 7.82617H10.7827V8.86964H9.73926V7.82617Z" fill="#D80027"/>
<path d="M5.21777 7.82617H6.26124V8.86964H5.21777V7.82617Z" fill="#D80027"/>
<path d="M7.47852 5.56543H8.52198V6.6089H7.47852V5.56543Z" fill="#D80027"/>
<path d="M8.00027 11.1308C7.81852 11.1308 7.6433 11.1027 7.47852 11.0508V12.1246C7.64764 12.1568 7.82189 12.1743 8.00027 12.1743C8.17864 12.1743 8.35289 12.1568 8.52202 12.1246V11.0508C8.35723 11.1027 8.18202 11.1308 8.00027 11.1308Z" fill="#D80027"/>
<path d="M6.2849 9.67383L5.45215 10.5066C5.59652 10.8353 5.80252 11.1309 6.05571 11.3787L6.79321 10.6412C6.53002 10.3869 6.34668 10.0507 6.2849 9.67383Z" fill="#D80027"/>
<path d="M10.549 10.5066L9.71629 9.67383C9.65448 10.0506 9.47116 10.3869 9.20801 10.6412L9.94551 11.3787C10.1986 11.1309 10.4047 10.8353 10.549 10.5066Z" fill="#D80027"/>
</g>
<defs>
<clipPath id="clip0_6774_62195">
<rect width="16" height="16" fill="white"/>
</clipPath>
</defs>
</svg>
