<svg width="16" height="16" viewBox="0 0 16 16" fill="none" xmlns="http://www.w3.org/2000/svg">
<g clip-path="url(#clip0_6774_62214)">
<path d="M8 16C12.4183 16 16 12.4183 16 8C16 3.58172 12.4183 0 8 0C3.58172 0 0 3.58172 0 8C0 12.4183 3.58172 16 8 16Z" fill="#F0F0F0"/>
<path d="M16.0003 8.00013C16.0003 4.82844 14.1545 2.08795 11.4785 0.793945V15.2063C14.1545 13.9123 16.0003 11.1718 16.0003 8.00013Z" fill="#D80027"/>
<path d="M0 8.00013C0 11.1718 1.84578 13.9123 4.52175 15.2063V0.793945C1.84578 2.08795 0 4.82844 0 8.00013Z" fill="#6DA544"/>
<path d="M5.91309 8.00034C5.91309 9.15294 6.84746 10.0873 8.00005 10.0873C9.15265 10.0873 10.087 9.15294 10.087 8.00034V7.30469H5.91309V8.00034Z" fill="#6DA544"/>
<path d="M10.783 6.60874H8.69605C8.69605 6.22455 8.38459 5.91309 8.0004 5.91309C7.61621 5.91309 7.30474 6.22455 7.30474 6.60874H5.21777C5.21777 6.99296 5.55243 7.3044 5.93659 7.3044H5.91343C5.91343 7.68862 6.22487 8.00005 6.60909 8.00005C6.60909 8.38427 6.92052 8.69571 7.30474 8.69571H8.69605C9.08027 8.69571 9.39171 8.38427 9.39171 8.00005C9.77593 8.00005 10.0874 7.68862 10.0874 7.3044H10.0642C10.4484 7.3044 10.783 6.99296 10.783 6.60874Z" fill="#FF9811"/>
</g>
<defs>
<clipPath id="clip0_6774_62214">
<rect width="16" height="16" fill="white"/>
</clipPath>
</defs>
</svg>
