<svg width="16" height="16" viewBox="0 0 16 16" fill="none" xmlns="http://www.w3.org/2000/svg">
<g clip-path="url(#clip0_6774_62293)">
<path d="M11.4783 0.793813C10.4266 0.28525 9.24664 0 8.00008 0C6.75352 0 5.57358 0.28525 4.52183 0.793813L3.82617 8L4.52183 15.2062C5.57358 15.7147 6.75352 16 8.00008 16C9.24664 16 10.4266 15.7147 11.4783 15.2062L12.174 8L11.4783 0.793813Z" fill="#FFDA44"/>
<path d="M4.52175 0.793945C1.84581 2.08791 0 4.8282 0 7.99985C0 11.1715 1.84581 13.9118 4.52175 15.2058V0.793945Z" fill="#0052B4"/>
<path d="M11.4785 0.793945V15.2058C14.1545 13.9118 16.0003 11.1715 16.0003 7.99985C16.0003 4.8282 14.1545 2.08791 11.4785 0.793945Z" fill="#D80027"/>
<path d="M10.783 6.29437H8.86993C8.86993 5.81412 8.48062 5.4248 8.00037 5.4248C7.52012 5.4248 7.1308 5.81412 7.1308 6.29437H5.21777C5.21777 6.76721 5.62968 7.15049 6.10246 7.15049H6.07396C6.07396 7.62337 6.45727 8.00671 6.93015 8.00671C6.93015 8.42537 7.23084 8.77324 7.62796 8.84762L6.95327 10.3708C7.27655 10.5022 7.62987 10.5752 8.00037 10.5752C8.37084 10.5752 8.72418 10.5022 9.04743 10.3708L8.37277 8.84762C8.7699 8.77324 9.07059 8.42537 9.07059 8.00671C9.54346 8.00671 9.92677 7.62337 9.92677 7.15049H9.89824C10.3711 7.15049 10.783 6.76718 10.783 6.29437Z" fill="#FF9811"/>
<path d="M7.99958 7.47803L6.86914 7.99978V9.04325L7.99958 9.7389L9.13002 9.04325V7.99978L7.99958 7.47803Z" fill="#0052B4"/>
<path d="M6.86914 6.95654H9.13002V8.00001H6.86914V6.95654Z" fill="#D80027"/>
</g>
<defs>
<clipPath id="clip0_6774_62293">
<rect width="16" height="16" fill="white"/>
</clipPath>
</defs>
</svg>
