<svg width="16" height="16" viewBox="0 0 16 16" fill="none" xmlns="http://www.w3.org/2000/svg">
<g clip-path="url(#clip0_6774_62381)">
<path d="M8 16C12.4183 16 16 12.4183 16 8C16 3.58172 12.4183 0 8 0C3.58172 0 0 3.58172 0 8C0 12.4183 3.58172 16 8 16Z" fill="#FFDA44"/>
<path d="M16 7.9998C16 5.25414 14.6166 2.83183 12.509 1.39111H3.49103C1.38344 2.83183 0 5.25414 0 7.9998C0 10.7455 1.38344 13.1678 3.49103 14.6085H12.509C14.6166 13.1678 16 10.7455 16 7.9998Z" fill="#A2001D"/>
<path d="M6.26074 5.91311H9.73899V4.52183L9.04334 4.86964L7.99987 3.82617L6.9564 4.86964L6.26074 4.52183V5.91311Z" fill="#FFDA44"/>
<path d="M11.1301 7.99997H9.39161C9.4598 7.88203 9.49942 7.74556 9.49942 7.59956C9.49942 7.15622 9.14002 6.79688 8.69673 6.79688C8.39045 6.79688 8.12445 6.9685 7.98911 7.22069C7.85377 6.96847 7.58777 6.79688 7.28148 6.79688C6.8382 6.79688 6.4788 7.15622 6.4788 7.59956C6.4788 7.74559 6.51848 7.88206 6.58661 7.99997H4.86914C4.86914 8.53194 5.33248 8.96316 5.86442 8.96316H5.83236C5.83236 9.3995 6.12258 9.76794 6.52048 9.88628L5.7387 10.6681L6.47655 11.406L7.5232 10.3593C7.5642 10.3743 7.60661 10.3863 7.65045 10.3946L7.01802 11.8226C7.32108 11.9458 7.6523 12.0142 7.99964 12.0142C8.34695 12.0142 8.67817 11.9458 8.98127 11.8226L8.34883 10.3946C8.39264 10.3864 8.43505 10.3743 8.47602 10.3593L9.52267 11.406L10.2605 10.6681L9.47867 9.88631C9.87655 9.76791 10.1668 9.39953 10.1668 8.96319H10.1347C10.6667 8.96316 11.1301 8.53194 11.1301 7.99997Z" fill="#FFDA44"/>
<path d="M7.99958 8.52197L6.86914 9.04369V10.0872L7.99958 10.7828L9.13002 10.0872V9.04369L7.99958 8.52197Z" fill="#6DA544"/>
<path d="M6.86914 8H9.13002V9.39131H6.86914V8Z" fill="#0052B4"/>
</g>
<defs>
<clipPath id="clip0_6774_62381">
<rect width="16" height="16" fill="white"/>
</clipPath>
</defs>
</svg>
