<svg width="16" height="16" viewBox="0 0 16 16" fill="none" xmlns="http://www.w3.org/2000/svg">
<g clip-path="url(#clip0_6774_62401)">
<path d="M8 16C12.4183 16 16 12.4183 16 8C16 3.58172 12.4183 0 8 0C3.58172 0 0 3.58172 0 8C0 12.4183 3.58172 16 8 16Z" fill="#D80027"/>
<path d="M12.728 6.56525H9.11627L8.00021 3.13037L6.88415 6.56525H3.27246L6.19437 8.68812L5.07827 12.1231L8.00021 10.0002L10.9221 12.1231L9.80605 8.68815L12.728 6.56525ZM7.01215 8.4224L7.38955 7.26087H8.61084L8.98827 8.4224V8.42243L8.00021 9.14028L7.01218 8.42243L7.01215 8.4224ZM8.38484 6.56525H7.61562L8.00021 5.3815L8.38484 6.56525ZM9.57999 7.9925L9.34227 7.2609H10.5869L9.57999 7.9925ZM6.65812 7.2609L6.4204 7.9925L5.41343 7.2609H6.65812ZM6.40149 10.3018L6.78612 9.11812L7.40846 9.57025L6.40149 10.3018ZM8.59196 9.57028L9.2143 9.11815L9.59893 10.3019L8.59196 9.57028Z" fill="#FFDA44"/>
</g>
<defs>
<clipPath id="clip0_6774_62401">
<rect width="16" height="16" fill="white"/>
</clipPath>
</defs>
</svg>
