<svg width="16" height="16" viewBox="0 0 16 16" fill="none" xmlns="http://www.w3.org/2000/svg">
<g clip-path="url(#clip0_6774_62404)">
<path d="M8 16C12.4183 16 16 12.4183 16 8C16 3.58172 12.4183 0 8 0C3.58172 0 0 3.58172 0 8C0 12.4183 3.58172 16 8 16Z" fill="#F0F0F0"/>
<path d="M4.32444 11.1304L2.34375 13.6565C3.79138 15.1043 5.79116 15.9999 8.00034 15.9999C11.3075 15.9999 14.1455 13.9928 15.3638 11.1304H4.32444Z" fill="#FFDA44"/>
<path d="M15.3762 4.89853C14.1647 2.02069 11.3187 0 8.00034 0C5.79116 0 3.79138 0.895594 2.34375 2.34341L4.34719 4.89853H15.3762Z" fill="#496E2D"/>
<path d="M1.73926 5.88428V10.0872H15.7246C15.904 9.42181 16.0001 8.72231 16.0001 8.00022C16.0001 7.26765 15.9014 6.55828 15.717 5.88428H1.73926Z" fill="black"/>
<path d="M2.34314 2.34326C-0.781047 5.46745 -0.781047 10.5328 2.34314 13.657C3.63417 12.366 4.87583 11.1243 8.00002 8.00014L2.34314 2.34326Z" fill="#A2001D"/>
<path d="M3.23829 5.91309L3.75626 7.50734H5.4327L4.07651 8.49271L4.59445 10.087L3.23829 9.10168L1.88207 10.087L2.40013 8.49271L1.04395 7.50734H2.72026L3.23829 5.91309Z" fill="#FFDA44"/>
<path d="M1.72168 8H4.75368V9.39131H1.72168V8Z" fill="#F0F0F0"/>
<path d="M5.32802 6.40502L4.83612 5.91309L3.23774 7.51146L1.63937 5.91309L1.14746 6.40502L2.74724 8.00196L1.14746 9.60177L1.63937 10.087L3.23774 8.49152L4.83612 10.087L5.32802 9.60177L3.72824 8.00196L5.32802 6.40502Z" fill="black"/>
</g>
<defs>
<clipPath id="clip0_6774_62404">
<rect width="16" height="16" fill="white"/>
</clipPath>
</defs>
</svg>
