<svg width="16" height="16" viewBox="0 0 16 16" fill="none" xmlns="http://www.w3.org/2000/svg">
<g clip-path="url(#clip0_6774_62413)">
<path d="M15.5024 10.7828C15.824 9.91619 16 8.97879 16 8.00022C16 7.02166 15.824 6.08425 15.5024 5.21763L8 4.52197L0.497594 5.21763C0.176031 6.08425 0 7.02166 0 8.00022C0 8.97879 0.176031 9.91619 0.497594 10.7828L8 11.4785L15.5024 10.7828Z" fill="#6DA544"/>
<path d="M15.5029 5.21741C14.3725 2.171 11.4402 0 8.00045 0C4.56073 0 1.62839 2.171 0.498047 5.21741H15.5029Z" fill="#FFDA44"/>
<path d="M8.00045 16.0001C11.4402 16.0001 14.3725 13.8291 15.5029 10.7827H0.498047C1.62839 13.8291 4.56073 16.0001 8.00045 16.0001Z" fill="#D80027"/>
<path d="M13.4855 6.76843H9.29464L7.99958 2.78271L6.70452 6.76843H2.51367L5.90414 9.23175L4.60908 13.2175L7.99958 10.7827L11.3901 13.2175L10.095 9.23172L13.4855 6.76843Z" fill="#F0F0F0"/>
</g>
<defs>
<clipPath id="clip0_6774_62413">
<rect width="16" height="16" fill="white"/>
</clipPath>
</defs>
</svg>
