<svg width="16" height="16" viewBox="0 0 16 16" fill="none" xmlns="http://www.w3.org/2000/svg">
<g clip-path="url(#clip0_6774_62418)">
<path d="M8 16C12.4183 16 16 12.4183 16 8C16 3.58172 12.4183 0 8 0C3.58172 0 0 3.58172 0 8C0 12.4183 3.58172 16 8 16Z" fill="#F0F0F0"/>
<path d="M2.34268 13.6569C2.67827 13.9924 3.03634 14.2917 3.41193 14.5552L14.5547 3.41242C14.2912 3.03682 13.992 2.67876 13.6563 2.34317C13.3207 2.00757 12.9627 1.70832 12.5871 1.44482L1.44434 12.5876C1.7078 12.9632 2.00709 13.3213 2.34268 13.6569Z" fill="#A2001D"/>
<path d="M2.34285 2.34327C-0.181021 4.86714 -0.665521 8.65752 0.888322 11.6682L11.6678 0.888797C8.65707 -0.665046 4.86667 -0.180484 2.34285 2.34327Z" fill="#0052B4"/>
<path d="M13.6569 13.657C16.1808 11.1332 16.6653 7.34275 15.1115 4.33203L4.33203 15.1115C7.34269 16.6653 11.1331 16.1808 13.6569 13.657Z" fill="#496E2D"/>
<path d="M6.60839 4.52154L5.71195 4.9432L6.18933 5.81138L5.21592 5.6252L5.09255 6.60848L4.41455 5.88526L3.73652 6.60848L3.6132 5.6252L2.63977 5.81135L3.11711 4.94316L2.2207 4.52154L3.11714 4.09985L2.63977 3.23173L3.61317 3.41791L3.73655 2.43457L4.41455 3.15782L5.09258 2.43457L5.21592 3.41791L6.18933 3.23173L5.71202 4.09988L6.60839 4.52154Z" fill="#FFDA44"/>
</g>
<defs>
<clipPath id="clip0_6774_62418">
<rect width="16" height="16" fill="white"/>
</clipPath>
</defs>
</svg>
