<svg width="16" height="16" viewBox="0 0 16 16" fill="none" xmlns="http://www.w3.org/2000/svg">
<g clip-path="url(#clip0_6774_62505)">
<path d="M8 16C12.4183 16 16 12.4183 16 8C16 3.58172 12.4183 0 8 0C3.58172 0 0 3.58172 0 8C0 12.4183 3.58172 16 8 16Z" fill="#0052B4"/>
<path d="M8 16C12.4183 16 16 12.4183 16 8C16 3.58172 12.4183 0 8 0C3.58172 0 0 3.58172 0 8C0 12.4183 3.58172 16 8 16Z" fill="#FFDA44"/>
<path d="M7.9998 0C3.81593 0 0.382867 3.21191 0.0302734 7.30434H15.9694C15.6167 3.21191 12.1837 0 7.9998 0Z" fill="#0052B4"/>
<path d="M7.9998 16.0001C12.1837 16.0001 15.6167 12.7882 15.9694 8.6958H0.0302734C0.382867 12.7882 3.81593 16.0001 7.9998 16.0001Z" fill="#0052B4"/>
<path d="M6.60842 10.7827L5.71198 11.2044L6.18933 12.0726L5.21592 11.8864L5.09258 12.8697L4.41455 12.1465L3.73655 12.8697L3.6132 11.8864L2.63977 12.0726L3.11714 11.2044L2.2207 10.7827L3.11717 10.3611L2.63977 9.49296L3.61317 9.67914L3.73658 8.6958L4.41455 9.41902L5.09261 8.6958L5.21592 9.67914L6.18936 9.49296L5.71202 10.3611L6.60842 10.7827Z" fill="#F0F0F0"/>
</g>
<defs>
<clipPath id="clip0_6774_62505">
<rect width="16" height="16" fill="white"/>
</clipPath>
</defs>
</svg>
