<svg width="16" height="16" viewBox="0 0 16 16" fill="none" xmlns="http://www.w3.org/2000/svg">
<g clip-path="url(#clip0_6774_62548)">
<path d="M0.793813 4.52183C0.28525 5.57358 0 6.75348 0 8.00008C0 9.24667 0.28525 10.4266 0.793813 11.4783L8 12.174L15.2062 11.4783C15.7147 10.4266 16 9.24667 16 8.00008C16 6.75348 15.7147 5.57358 15.2062 4.52183L8 3.82617L0.793813 4.52183Z" fill="#F0F0F0"/>
<path d="M0.793945 11.478C2.08788 14.154 4.82816 15.9998 7.99985 15.9998C11.1715 15.9998 13.9118 14.154 15.2058 11.478H0.793945Z" fill="#6DA544"/>
<path d="M0.793945 4.52175H15.2058C13.9118 1.84578 11.1715 0 7.99985 0C4.8282 0 2.08788 1.84578 0.793945 4.52175Z" fill="#FF9811"/>
<path d="M7.99939 10.7825C9.53617 10.7825 10.782 9.53666 10.782 7.99988C10.782 6.46309 9.53617 5.21729 7.99939 5.21729C6.46261 5.21729 5.2168 6.46309 5.2168 7.99988C5.2168 9.53666 6.46261 10.7825 7.99939 10.7825Z" fill="#FF9811"/>
</g>
<defs>
<clipPath id="clip0_6774_62548">
<rect width="16" height="16" fill="white"/>
</clipPath>
</defs>
</svg>
