<svg width="16" height="16" viewBox="0 0 16 16" fill="none" xmlns="http://www.w3.org/2000/svg">
<g clip-path="url(#clip0_6774_62559)">
<path d="M16 8C16 12.4183 12.4183 16 8 16C3.58175 16 0 12.4183 0 8C0 8.00191 8 0.000875 8 0C12.4183 0 16 3.58175 16 8Z" fill="#FFDA44"/>
<path d="M8.00037 3.82617V6.52439L5.21777 3.82617H8.00037Z" fill="#0052B4"/>
<path d="M4.17398 8.00007H6.52433L4.17398 4.86963L3.82617 7.30441L4.17398 8.00007Z" fill="#0052B4"/>
<path d="M7.97852 7.99992H7.99992C7.99992 7.99273 7.99992 7.98573 7.99992 7.97852C7.9928 7.98567 7.98567 7.9928 7.97852 7.99992Z" fill="#F0F0F0"/>
<path d="M8 4.17391C8 2.76625 8 1.84391 8 0H7.99866C3.58097 0.00075 0 3.58216 0 8H4.17391V5.64966L6.52425 8H7.97862C7.98575 7.99288 7.99288 7.98575 8.00003 7.97859C8.00003 7.43963 8.00003 6.95872 8.00003 6.52431L5.64962 4.17391H8Z" fill="#F0F0F0"/>
<path d="M8.0009 7.01611L5.15855 4.17383H4.1748V4.17389L8.00084 7.99989H8.0009C8.0009 7.99989 8.0009 7.32155 8.0009 7.01611Z" fill="#D80027"/>
<path d="M4.04782 1.04346C3.73941 1.21908 3.44395 1.4148 3.16295 1.62846H3.4912L2.62363 2.25889L2.95495 3.2788L2.08738 2.64849L1.99507 2.71558C1.63485 3.12464 1.31548 3.57052 1.04395 4.04733V7.99999H3.13091V3.13049V3.13043H8.00048C8.00048 2.47221 8.00048 1.84514 8.00048 1.04346H4.04782Z" fill="#D80027"/>
<path d="M3.41766 1.44238C3.33138 1.50279 3.24632 1.56488 3.16254 1.6286L2.62332 2.25904L2.08707 2.6486L1.99398 2.71623C1.79754 2.93935 1.61332 3.17348 1.44238 3.41763C1.63723 3.5122 1.85595 3.56535 2.08707 3.56535C2.90351 3.56535 3.56532 2.90354 3.56532 2.0871C3.56538 1.85591 3.51226 1.63726 3.41766 1.44238Z" fill="#0052B4"/>
<path d="M1.99414 2.71604L2.08723 2.64842L2.9548 3.27876L2.62345 2.25886L3.49095 1.62842H3.16264C2.73783 1.95151 2.34636 2.31601 1.99414 2.71604Z" fill="#FFDA44"/>
<path d="M5.52935 1.39111L5.70204 1.92252H6.26079L5.80876 2.25099L5.98135 2.78239L5.52935 2.45396L5.07732 2.78239L5.24988 2.25099L4.79785 1.92252H5.35663L5.52935 1.39111Z" fill="#FFDA44"/>
<path d="M2.08694 4.86914L2.25962 5.40055H2.81838L2.36637 5.72905L2.53897 6.26045L2.08694 5.93198L1.63488 6.26045L1.80747 5.72905L1.35547 5.40055H1.91422L2.08694 4.86914Z" fill="#FFDA44"/>
</g>
<defs>
<clipPath id="clip0_6774_62559">
<rect width="16" height="16" fill="white"/>
</clipPath>
</defs>
</svg>
