<svg width="16" height="16" viewBox="0 0 16 16" fill="none" xmlns="http://www.w3.org/2000/svg">
<g clip-path="url(#clip0_6774_62701)">
<path d="M8 16C12.4183 16 16 12.4183 16 8C16 3.58172 12.4183 0 8 0C3.58172 0 0 3.58172 0 8C0 12.4183 3.58172 16 8 16Z" fill="#338AF3"/>
<path d="M7.74771 13.037C7.53205 13.0266 7.35362 12.8864 7.28371 12.6961C7.16024 12.8572 6.94805 12.9382 6.73902 12.8843C6.52962 12.8304 6.38321 12.6572 6.35293 12.4561C6.19918 12.589 5.97518 12.6251 5.78146 12.5302C5.58737 12.4349 5.47887 12.2356 5.48999 12.0328C5.31296 12.1323 5.08618 12.1225 4.9154 11.9904C4.74496 11.8582 4.67852 11.6415 4.72999 11.445C4.53659 11.5069 4.31677 11.4519 4.1759 11.2881C4.03502 11.1246 4.01343 10.8989 4.10321 10.717C3.90146 10.7385 3.69696 10.6404 3.5919 10.4519C3.48649 10.2634 3.51087 10.0377 3.63571 9.87726C3.43362 9.85779 3.25274 9.72039 3.18805 9.51448C3.12302 9.30858 3.19259 9.09223 3.34737 8.96039C3.15327 8.90051 3.0044 8.72939 2.98249 8.51483C2.96059 8.30023 3.0719 8.10301 3.24962 8.00492C3.07187 7.90751 2.95987 7.71033 2.98109 7.49604H2.98143C3.00265 7.28108 3.15152 7.10964 3.34524 7.04908C3.19046 6.91761 3.12021 6.70161 3.18455 6.49567C3.2489 6.28942 3.4294 6.15167 3.63152 6.13148C3.50665 5.97148 3.48162 5.7457 3.5863 5.55689C3.69099 5.36836 3.89552 5.26992 4.09762 5.29114C4.00718 5.10923 4.0284 4.88348 4.16893 4.71933C4.30912 4.55551 4.52893 4.5002 4.72268 4.56142C4.67049 4.36523 4.73659 4.1482 4.90702 4.0157C5.07712 3.88314 5.3039 3.87304 5.48093 3.97183C5.46946 3.76908 5.57762 3.56973 5.77137 3.47408C5.96477 3.37876 6.18912 3.41426 6.34318 3.54711C6.37274 3.34611 6.51918 3.1722 6.72821 3.11789C6.9369 3.06364 7.14909 3.14398 7.2729 3.30467C7.3428 3.11442 7.5209 2.97389 7.73655 2.96311C7.95187 2.95201 8.14315 3.07301 8.23221 3.25498C8.33865 3.08245 8.54109 2.9802 8.7543 3.01254C8.96787 3.04454 9.13171 3.20173 9.18249 3.39829C9.32162 3.25008 9.54074 3.19133 9.74318 3.26573C9.94596 3.34051 10.0746 3.52764 10.0844 3.73076C10.2503 3.61392 10.4771 3.60033 10.6604 3.71442C10.8437 3.82817 10.9317 4.0372 10.9004 4.23789C11.0865 4.15686 11.3112 4.1892 11.4677 4.33736C11.6242 4.48589 11.6687 4.70814 11.5978 4.89839C11.7964 4.85629 12.01 4.93283 12.1338 5.10986C12.2576 5.28654 12.2566 5.51333 12.1491 5.68551C12.3519 5.68411 12.5456 5.80239 12.6316 6.00029C12.7171 6.19854 12.6701 6.42083 12.53 6.56795C12.7293 6.60761 12.8952 6.76239 12.939 6.97386C12.9825 7.18533 12.8917 7.39298 12.7251 7.50883C12.9116 7.58783 13.043 7.77248 13.0434 7.98814V7.99511V7.99964C13.0434 8.21526 12.9126 8.40033 12.7261 8.47998C12.8931 8.59514 12.9846 8.80276 12.9411 9.01423C12.898 9.2257 12.7324 9.38086 12.5331 9.4212C12.6736 9.56798 12.7213 9.78989 12.6361 9.98851C12.5509 10.1868 12.3571 10.3054 12.154 10.3043C12.2618 10.4765 12.2636 10.7033 12.1401 10.8803C12.0166 11.0574 11.8034 11.1346 11.6048 11.0929C11.6761 11.2828 11.6319 11.5054 11.4757 11.6543C11.3192 11.8028 11.0949 11.8355 10.9088 11.7551C10.9404 11.9555 10.8528 12.1649 10.6698 12.2793C10.4868 12.3938 10.2601 12.3805 10.0938 12.264C10.0844 12.4671 9.9564 12.6546 9.75399 12.7298C9.55159 12.8049 9.75399 12.7298 9.75365 12.7298C9.55121 12.8045 9.33209 12.7461 9.19262 12.5983C9.14252 12.7952 8.97905 12.9527 8.76549 12.9855C8.55227 13.0178 8.34949 12.9162 8.24271 12.7437C8.15784 12.9187 7.97837 13.0376 7.77384 13.0376C7.76512 13.0377 7.75643 13.0374 7.74771 13.037Z" fill="#F3F3F3"/>
<path d="M7.99973 11.4785C9.92072 11.4785 11.478 9.92121 11.478 8.00022C11.478 6.07924 9.92072 4.52197 7.99973 4.52197C6.07875 4.52197 4.52148 6.07924 4.52148 8.00022C4.52148 9.92121 6.07875 11.4785 7.99973 11.4785Z" fill="#338AF3"/>
<path d="M8.76102 6.81922C8.9319 6.69247 9.04315 6.48988 9.04315 6.26075V5.91294C9.04315 5.52872 8.73171 5.21729 8.34749 5.21729H7.65187C7.26765 5.21729 6.95621 5.52872 6.95621 5.91294V6.26075C6.95621 6.48988 7.06746 6.69247 7.23834 6.81922L6.6084 13.2173C6.6084 13.2173 6.95621 13.5651 7.99971 13.5651C9.04321 13.5651 9.39102 13.2173 9.39102 13.2173L8.76102 6.81922Z" fill="#BDBCC1"/>
<path d="M7.99952 5.21729L8.60383 7.07722H10.5596L8.97742 8.22685L9.5817 10.0868L7.99952 8.93732L6.41727 10.0868L7.02167 8.22685L5.43945 7.07722H7.39517L7.99952 5.21729Z" fill="#F0F0F0"/>
</g>
<defs>
<clipPath id="clip0_6774_62701">
<rect width="16" height="16" fill="white"/>
</clipPath>
</defs>
</svg>
