<svg width="16" height="16" viewBox="0 0 16 16" fill="none" xmlns="http://www.w3.org/2000/svg">
<g clip-path="url(#clip0_6774_62694)">
<path d="M8 16C12.4183 16 16 12.4183 16 8C16 3.58172 12.4183 0 8 0C3.58172 0 0 3.58172 0 8C0 12.4183 3.58172 16 8 16Z" fill="#F0F0F0"/>
<path d="M1.93527 2.78271C1.65455 3.10875 1.3997 3.45759 1.17383 3.82618H14.8255C14.5996 3.45759 14.3448 3.10871 14.064 2.78271H1.93527Z" fill="#D80027"/>
<path d="M1.93523 13.2173H14.064C14.3447 12.8913 14.5996 12.5424 14.8255 12.1738H1.17383C1.39967 12.5424 1.65452 12.8913 1.93523 13.2173Z" fill="#D80027"/>
<path d="M6.97586 6.53711L7.63223 7.44164L8.69527 7.09695L8.03786 8.0007L8.69417 8.9052L7.63152 8.5592L6.97411 9.46295L6.97477 8.34542L5.91211 7.99942L6.97517 7.65473L6.97586 6.53711Z" fill="#D80027"/>
<path d="M5.18438 10.2608C3.93576 10.2608 2.92351 9.24854 2.92351 7.99991C2.92351 6.75129 3.93576 5.73904 5.18438 5.73904C5.5737 5.73904 5.94004 5.83747 6.25985 6.01079C5.75813 5.52013 5.07198 5.21729 4.31482 5.21729C2.77801 5.21729 1.53223 6.4631 1.53223 7.99988C1.53223 9.53666 2.77804 10.7825 4.31482 10.7825C5.07198 10.7825 5.75813 10.4796 6.25985 9.98897C5.94004 10.1623 5.57373 10.2608 5.18438 10.2608Z" fill="#D80027"/>
</g>
<defs>
<clipPath id="clip0_6774_62694">
<rect width="16" height="16" fill="white"/>
</clipPath>
</defs>
</svg>
