<svg width="16" height="16" viewBox="0 0 16 16" fill="none" xmlns="http://www.w3.org/2000/svg">
<g clip-path="url(#clip0_6774_62707)">
<path d="M8 16C12.4183 16 16 12.4183 16 8C16 3.58172 12.4183 0 8 0C3.58172 0 0 3.58172 0 8C0 12.4183 3.58172 16 8 16Z" fill="#F0F0F0"/>
<path d="M7.99995 0C5.57523 0 3.40264 1.07887 1.93555 2.78259H14.0643C12.5973 1.07887 10.4247 0 7.99995 0Z" fill="#0052B4"/>
<path d="M14.0644 13.2173H1.93555C3.40264 14.921 5.57523 15.9999 7.99995 15.9999C10.4247 15.9999 12.5973 14.921 14.0644 13.2173Z" fill="#0052B4"/>
<path d="M14.8258 3.82617H1.17419C0.429531 5.04133 0 6.47048 0 8.00008C0 9.52967 0.429531 10.9589 1.17419 12.174H14.8258C15.5705 10.9589 16 9.52967 16 8.00008C16 6.47048 15.5705 5.04133 14.8258 3.82617Z" fill="#D80027"/>
<path d="M4.922 11.0784C6.62207 11.0784 8.00025 9.7002 8.00025 8.00012C8.00025 6.30005 6.62207 4.92188 4.922 4.92188C3.22193 4.92188 1.84375 6.30005 1.84375 8.00012C1.84375 9.7002 3.22193 11.0784 4.922 11.0784Z" fill="#F0F0F0"/>
<path d="M4.92186 4.92188L5.61252 7.04753H7.8512L6.03942 8.36134L6.73548 10.4933L4.92186 9.17328L3.11098 10.4909L3.8043 8.36134L1.99414 7.04753H4.23117L4.92186 4.92188Z" fill="#D80027"/>
</g>
<defs>
<clipPath id="clip0_6774_62707">
<rect width="16" height="16" fill="white"/>
</clipPath>
</defs>
</svg>
