<svg width="16" height="16" viewBox="0 0 16 16" fill="none" xmlns="http://www.w3.org/2000/svg">
<g clip-path="url(#clip0_6774_62748)">
<path d="M8 16C12.4183 16 16 12.4183 16 8C16 3.58172 12.4183 0 8 0C3.58172 0 0 3.58172 0 8C0 12.4183 3.58172 16 8 16Z" fill="#F0F0F0"/>
<path d="M0.275391 10.0869C0.738266 11.8044 1.75842 13.2929 3.13023 14.347V10.0869H0.275391Z" fill="#D80027"/>
<path d="M7.30371 15.9695C7.53302 15.9893 7.76493 15.9999 7.99937 15.9999C11.6956 15.9999 14.8058 13.493 15.7238 10.0869H7.30371V15.9695Z" fill="#D80027"/>
<path d="M15.7238 5.91303C14.8058 2.50691 11.6956 0 7.99937 0C7.76493 0 7.53302 0.0106875 7.30371 0.0304375V5.91303H15.7238Z" fill="#D80027"/>
<path d="M3.13023 1.65283C1.75842 2.70689 0.738266 4.19543 0.275391 5.91289H3.13023V1.65283Z" fill="#D80027"/>
<path d="M15.9323 6.95632H6.26091H6.26088V0.189941C5.52156 0.353879 4.82066 0.619598 4.17391 0.972504V6.95625V6.95628H0.0677188C0.0231875 7.29788 0 7.64613 0 7.99978C0 8.35344 0.0231875 8.70169 0.0677188 9.04325H4.17387H4.17391V15.027C4.82066 15.3799 5.52156 15.6457 6.26088 15.8096V9.04335V9.04329H15.9323C15.9768 8.70169 16 8.35344 16 7.99978C16 7.64613 15.9768 7.29788 15.9323 6.95632Z" fill="#0052B4"/>
</g>
<defs>
<clipPath id="clip0_6774_62748">
<rect width="16" height="16" fill="white"/>
</clipPath>
</defs>
</svg>
