<svg width="16" height="16" viewBox="0 0 16 16" fill="none" xmlns="http://www.w3.org/2000/svg">
<g clip-path="url(#clip0_6774_62776)">
<path d="M8 16C12.4183 16 16 12.4183 16 8C16 3.58172 12.4183 0 8 0C3.58172 0 0 3.58172 0 8C0 12.4183 3.58172 16 8 16Z" fill="#F0F0F0"/>
<path d="M0 7.99994C0 11.0323 1.68716 13.6704 4.17391 15.0272V0.972656C1.68716 2.3295 0 4.96759 0 7.99994Z" fill="#F0F0F0"/>
<path d="M7.99992 0C6.61398 0 5.31042 0.352594 4.17383 0.972719V15.0273C5.31042 15.6474 6.61398 16 7.99992 16C12.4182 16 15.9999 12.4183 15.9999 8C15.9999 3.58175 12.4182 0 7.99992 0Z" fill="#496E2D"/>
<path d="M11.4201 9.32281C10.408 10.0541 8.99473 9.82647 8.26348 8.81441C7.53217 7.80228 7.75982 6.389 8.77192 5.65775C9.08748 5.42975 9.44204 5.29497 9.80276 5.24813C9.10879 5.14434 8.3752 5.30072 7.76154 5.74413C6.51592 6.64419 6.2357 8.38359 7.13573 9.62928C8.03576 10.8749 9.7752 11.1551 11.0209 10.255C11.6346 9.81159 12.0134 9.16431 12.1327 8.47278C11.975 8.80047 11.7357 9.09478 11.4201 9.32281Z" fill="#F0F0F0"/>
<path d="M11.3773 5.21729L11.9474 5.83169L12.7079 5.47944L12.2997 6.21144L12.8698 6.82591L12.0474 6.66388L11.6392 7.39594L11.5392 6.56375L10.7168 6.40172L11.4773 6.04947L11.3773 5.21729Z" fill="#F0F0F0"/>
</g>
<defs>
<clipPath id="clip0_6774_62776">
<rect width="16" height="16" fill="white"/>
</clipPath>
</defs>
</svg>
