<svg width="16" height="16" viewBox="0 0 16 16" fill="none" xmlns="http://www.w3.org/2000/svg">
<g clip-path="url(#clip0_6774_62838)">
<path d="M13.6569 13.6568C10.5327 16.781 5.46739 16.781 2.34314 13.6568C-0.781051 10.5327 -0.781051 5.46731 2.34317 2.34309C5.46736 -0.781095 10.0408 -0.289189 13.1649 2.83503C16.2891 5.95922 16.781 10.5327 13.6569 13.6568Z" fill="black"/>
<path d="M2.34277 2.34311C5.46696 -0.781074 10.5322 -0.781012 13.6565 2.34314C16.7807 5.46733 16.7807 10.5326 13.6565 13.6569" fill="#A2001D"/>
<path d="M6.11402 10.7827L6.24352 11.1813H6.66262L6.32355 11.4276L6.45309 11.8262L6.11402 11.5799L5.77496 11.8262L5.90446 11.4276L5.56543 11.1813H5.98449L6.11402 10.7827Z" fill="#F0F0F0"/>
<path d="M5.04322 6.95654L5.25913 7.62086H5.95756L5.39247 8.03139L5.60831 8.6957L5.04322 8.28511L4.47816 8.6957L4.69403 8.03139L4.12891 7.62086H4.82741L5.04322 6.95654Z" fill="#F0F0F0"/>
<path d="M5.04322 11.8262L5.25906 12.4905H5.95756L5.39241 12.901L5.60831 13.5653L5.04322 13.1547L4.47816 13.5653L4.69397 12.901L4.12891 12.4905H4.82731L5.04322 11.8262Z" fill="#F0F0F0"/>
<path d="M7.08518 8.6958L7.30109 9.36011H7.99952L7.43443 9.77061L7.65027 10.4349L7.08518 10.0243L6.52012 10.4349L6.73599 9.77061L6.1709 9.36011H6.86937L7.08518 8.6958Z" fill="#F0F0F0"/>
<path d="M3.00123 8.6958L3.21713 9.36011H3.91554L3.35048 9.77061L3.56629 10.4349L3.00123 10.0243L2.43613 10.4349L2.65204 9.77061L2.08691 9.36011H2.78538L3.00123 8.6958Z" fill="#F0F0F0"/>
<path d="M13.3919 5.924C13.0344 5.56646 12.5698 5.35525 12.0706 5.31896L13.565 4.15668C12.9698 3.56153 12.1721 3.29275 11.3938 3.34959C11.3006 3.01471 11.1229 2.6984 10.8596 2.43506L10.2693 3.61562C10.2306 3.54506 10.1815 3.47865 10.1217 3.41887C9.78211 3.07928 9.23155 3.07928 8.89198 3.41887C8.55242 3.75846 8.55236 4.30903 8.89198 4.64862C8.95177 4.7084 9.0182 4.75743 9.08877 4.79618L7.9082 5.38646C8.17161 5.6499 8.48814 5.82768 8.8232 5.92081C8.76617 6.69918 9.03467 7.49675 9.62986 8.09193L10.9355 6.41325C11.0337 6.31653 11.1634 6.26312 11.3014 6.26312C11.4408 6.26312 11.5718 6.31737 11.6703 6.41596C11.7689 6.5145 11.8232 6.64553 11.8232 6.78487C11.8232 6.92425 11.7689 7.05525 11.6703 7.15381L12.1623 7.64575C12.3922 7.41581 12.5188 7.11009 12.5188 6.7849C12.5188 6.51884 12.434 6.2659 12.2773 6.05678C12.5056 6.11775 12.7214 6.23718 12.9001 6.41596C13.4426 6.95843 13.4426 7.84112 12.9001 8.38356L13.392 8.8755C13.7862 8.48131 14.0033 7.95725 14.0033 7.39978C14.0032 6.84225 13.7861 6.31818 13.3919 5.924Z" fill="#FFDA44"/>
</g>
<defs>
<clipPath id="clip0_6774_62838">
<rect width="16" height="16" fill="white"/>
</clipPath>
</defs>
</svg>
