<svg width="16" height="16" viewBox="0 0 16 16" fill="none" xmlns="http://www.w3.org/2000/svg">
<g clip-path="url(#clip0_6774_62868)">
<path d="M16 8C16 12.4183 12.4183 16 8 16C3.58175 16 0 12.4183 0 8C0 8.00191 8 0.000875 8 0C12.4183 0 16 3.58175 16 8Z" fill="#0052B4"/>
<path d="M7.97852 7.99992H7.99992C7.99992 7.99273 7.99992 7.98573 7.99992 7.97852C7.9928 7.98567 7.98567 7.9928 7.97852 7.99992Z" fill="#F0F0F0"/>
<path d="M8 4.17391C8 2.76625 8 1.84391 8 0H7.99866C3.58097 0.00075 0 3.58216 0 8H4.17391V5.64966L6.52425 8H7.97862C7.98575 7.99288 7.99288 7.98575 8.00003 7.97859C8.00003 7.43963 8.00003 6.95872 8.00003 6.52431L5.64962 4.17391H8Z" fill="#F0F0F0"/>
<path d="M4.04782 1.04346C2.7966 1.75593 1.75638 2.79611 1.04395 4.04733V7.99999H3.13091V3.13049V3.13043H8.00048C8.00048 2.47221 8.00048 1.84514 8.00048 1.04346H4.04782Z" fill="#D80027"/>
<path d="M8.0009 7.01611L5.15855 4.17383H4.1748V4.17389L8.00084 7.99989H8.0009C8.0009 7.99989 8.0009 7.32155 8.0009 7.01611Z" fill="#D80027"/>
<path d="M12.5217 4.8695L11.4782 5.21734L10.4347 4.8695L10.0869 3.99993L10.4347 3.13037H12.5217L12.1739 3.99993L12.5217 4.8695Z" fill="#ACABB1"/>
<path d="M9.04395 4.86963V8.69569C9.04395 10.5594 11.4787 11.1305 11.4787 11.1305C11.4787 11.1305 13.9135 10.5594 13.9135 8.69569V4.86963H9.04395Z" fill="#338AF3"/>
<path d="M9.2627 9.60209C9.8612 10.7511 11.478 11.1305 11.478 11.1305C11.478 11.1305 13.0948 10.7511 13.6933 9.60209L11.478 5.91309L9.2627 9.60209Z" fill="#6DA544"/>
<path d="M13.9135 8.65704L11.4787 4.86963L9.04395 8.65707V8.69569C9.04395 9.04063 9.12751 9.34119 9.26341 9.60213L11.4787 6.15603L13.694 9.6021C13.8299 9.34113 13.9135 9.0406 13.9135 8.69566V8.65704Z" fill="#FFDA44"/>
</g>
<defs>
<clipPath id="clip0_6774_62868">
<rect width="16" height="16" fill="white"/>
</clipPath>
</defs>
</svg>
