<svg width="16" height="16" viewBox="0 0 16 16" fill="none" xmlns="http://www.w3.org/2000/svg">
<g clip-path="url(#clip0_6774_62884)">
<path d="M0 7.99996C0 11.4397 2.171 14.372 5.21734 15.5023L5.91303 7.99993L5.21734 0.497559C2.171 1.62793 0 4.56025 0 7.99996Z" fill="#6DA544"/>
<path d="M16.0004 8C16.0004 3.58175 12.4187 0 8.00043 0C7.02187 0 6.08446 0.176031 5.21777 0.497594V15.5024C6.08446 15.824 7.02187 16 8.00043 16C12.4187 16 16.0004 12.4183 16.0004 8Z" fill="#D80027"/>
<path d="M5.21716 10.7825C6.75395 10.7825 7.99976 9.53666 7.99976 7.99988C7.99976 6.46309 6.75395 5.21729 5.21716 5.21729C3.68038 5.21729 2.43457 6.46309 2.43457 7.99988C2.43457 9.53666 3.68038 10.7825 5.21716 10.7825Z" fill="#FFDA44"/>
<path d="M3.65234 6.60889V8.34801C3.65234 9.21245 4.35309 9.91323 5.21756 9.91323C6.08203 9.91323 6.78278 9.21248 6.78278 8.34801V6.60889H3.65234Z" fill="#D80027"/>
<path d="M5.21706 8.86972C4.92937 8.86972 4.69531 8.63566 4.69531 8.34797V7.65234H5.73878V8.348C5.73878 8.63566 5.50472 8.86972 5.21706 8.86972Z" fill="#F0F0F0"/>
</g>
<defs>
<clipPath id="clip0_6774_62884">
<rect width="16" height="16" fill="white"/>
</clipPath>
</defs>
</svg>
