<svg width="16" height="16" viewBox="0 0 16 16" fill="none" xmlns="http://www.w3.org/2000/svg">
<g clip-path="url(#clip0_6774_63085)">
<path d="M0.793813 4.52183C0.28525 5.57358 0 6.75348 0 8.00008C0 9.24667 0.28525 10.4266 0.793813 11.4783L8 12.174L15.2062 11.4783C15.7147 10.4266 16 9.24667 16 8.00008C16 6.75348 15.7147 5.57358 15.2062 4.52183L8 3.82617L0.793813 4.52183Z" fill="#F0F0F0"/>
<path d="M0.793945 11.478C2.08788 14.154 4.8282 15.9998 7.99985 15.9998C11.1715 15.9998 13.9118 14.154 15.2058 11.478H0.793945Z" fill="#496E2D"/>
<path d="M0.793945 4.52175H15.2058C13.9118 1.84578 11.1715 0 7.99985 0C4.82816 0 2.08788 1.84578 0.793945 4.52175Z" fill="black"/>
<path d="M2.34314 2.34326C-0.781047 5.46745 -0.781047 10.5328 2.34314 13.657C3.63417 12.366 4.87583 11.1243 8.00002 8.00014L2.34314 2.34326Z" fill="#D80027"/>
<path d="M10.0874 8.00021C10.0874 6.83465 10.9066 5.86093 12.0005 5.62205C11.8324 5.58534 11.6579 5.56543 11.4787 5.56543C10.134 5.56543 9.04395 6.65549 9.04395 8.00021C9.04395 9.34493 10.134 10.435 11.4787 10.435C11.6579 10.435 11.8323 10.4151 12.0005 10.3784C10.9066 10.1395 10.0874 9.16577 10.0874 8.00021Z" fill="#D80027"/>
<path d="M12.1025 6.43506L12.4479 7.498H13.5655L12.6613 8.15481L13.0067 9.21768L12.1025 8.56081L11.1984 9.21768L11.5438 8.15481L10.6396 7.498H11.7572L12.1025 6.43506Z" fill="#D80027"/>
</g>
<defs>
<clipPath id="clip0_6774_63085">
<rect width="16" height="16" fill="white"/>
</clipPath>
</defs>
</svg>
