<svg width="16" height="16" viewBox="0 0 16 16" fill="none" xmlns="http://www.w3.org/2000/svg">
<g clip-path="url(#clip0_6774_63103)">
<path d="M16 8C16 12.4183 12.4183 16 8 16C3.58175 16 0 12.4183 0 8C2.74781 5.25219 5.07825 2.92175 8 0C12.4183 0 16 3.58175 16 8Z" fill="#D80027"/>
<path d="M8 8C8 3.58175 8 3.06087 8 0C3.58175 0 0 3.58175 0 8H8Z" fill="#0052B4"/>
<path d="M6.40797 5.21729L6.5375 5.61588H6.95656L6.6175 5.86216L6.74703 6.26075L6.40797 6.01441L6.06891 6.26075L6.19844 5.86216L5.85938 5.61588H6.27844L6.40797 5.21729Z" fill="#F0F0F0"/>
<path d="M4.30298 2.08691L4.51883 2.75126H5.21733L4.6522 3.16173L4.86811 3.82604L4.30298 3.41545L3.73789 3.82604L3.95377 3.16173L3.38867 2.75126H4.08711L4.30298 2.08691Z" fill="#F0F0F0"/>
<path d="M6.3899 2.78271L6.60574 3.44709H7.30421L6.73912 3.85756L6.95496 4.52187L6.3899 4.11128L5.8248 4.52187L6.04068 3.85756L5.47559 3.44709H6.17402L6.3899 2.78271Z" fill="#F0F0F0"/>
<path d="M4.74048 5.56494L4.95636 6.22928H5.6548L5.0897 6.63975L5.30558 7.30407L4.74048 6.8935L4.17539 7.30407L4.39127 6.63975L3.82617 6.22928H4.52464L4.74048 5.56494Z" fill="#F0F0F0"/>
<path d="M2.91135 3.82617L3.12723 4.49052H3.8257L3.26057 4.90098L3.47645 5.5653L2.91135 5.15473L2.34629 5.5653L2.56213 4.90098L1.99707 4.49052H2.69551L2.91135 3.82617Z" fill="#F0F0F0"/>
</g>
<defs>
<clipPath id="clip0_6774_63103">
<rect width="16" height="16" fill="white"/>
</clipPath>
</defs>
</svg>
