<svg width="16" height="16" viewBox="0 0 16 16" fill="none" xmlns="http://www.w3.org/2000/svg">
<g clip-path="url(#clip0_6774_63112)">
<path d="M16 8.00001C16 12.4183 12.4183 16 8 16C3.58175 16 0 12.4183 0 8.00001C0.347813 8.00001 8 6.95654 8 6.95654L16 8.00001Z" fill="#338AF3"/>
<path d="M0 8C0 3.58175 3.58175 0 8 0C12.4183 0 16 3.58175 16 8" fill="#F0F0F0"/>
<path d="M11.1754 5.52002L7.99989 8.69555L4.82439 5.52002C4.41373 6.12961 4.17383 6.86333 4.17383 7.65205V8.69552C4.17383 10.371 5.25648 11.7983 6.75889 12.3149C6.55836 12.7079 6.59217 13.1984 6.88602 13.5651C7.27627 13.2523 7.6803 12.9285 8.02305 12.6539C8.3658 12.9286 8.76986 13.2523 9.16008 13.5651C9.45736 13.1941 9.48873 12.6963 9.2803 12.301C10.7622 11.7731 11.826 10.3563 11.826 8.69552V7.65208C11.826 6.86333 11.586 6.12964 11.1754 5.52002Z" fill="#6DA544"/>
<path d="M8.00037 11.4783C6.46602 11.4783 5.21777 10.23 5.21777 8.69569V7.65222C5.21777 6.11788 6.46605 4.86963 8.00037 4.86963C9.53468 4.86963 10.783 6.11791 10.783 7.65222V8.69569C10.783 10.23 9.53471 11.4783 8.00037 11.4783Z" fill="#FFDA44"/>
<path d="M9.73899 8.69568V7.65221C9.73899 6.69324 8.9588 5.91309 7.99987 5.91309C7.04093 5.91309 6.26074 6.69327 6.26074 7.65221V8.69568L7.99987 9.04349L9.73899 8.69568Z" fill="#338AF3"/>
<path d="M6.26074 8.6958C6.26074 9.65477 7.04093 10.4349 7.99987 10.4349C8.9588 10.4349 9.73899 9.65474 9.73899 8.6958H6.26074Z" fill="#6DA544"/>
<path d="M10.087 4.86935C10.087 4.29307 9.6198 3.82588 9.04352 3.82588C8.77618 3.82588 8.53252 3.92651 8.34787 4.09179V3.47804H8.69568V2.78238H8.34787V2.43457H7.65221V2.78238H7.3044V3.47804H7.65221V4.09179C7.46755 3.92651 7.22387 3.82588 6.95655 3.82588C6.38027 3.82588 5.91309 4.29307 5.91309 4.86935C5.91309 5.17832 6.04749 5.45582 6.2609 5.64691V6.26066H9.73915V5.64691C9.95259 5.45582 10.087 5.17832 10.087 4.86935Z" fill="#FFDA44"/>
</g>
<defs>
<clipPath id="clip0_6774_63112">
<rect width="16" height="16" fill="white"/>
</clipPath>
</defs>
</svg>
