<svg width="16" height="16" viewBox="0 0 16 16" fill="none" xmlns="http://www.w3.org/2000/svg">
<g clip-path="url(#clip0_6774_63172)">
<path d="M8 16C12.4183 16 16 12.4183 16 8C16 3.58172 12.4183 0 8 0C3.58172 0 0 3.58172 0 8C0 12.4183 3.58172 16 8 16Z" fill="#6DA544"/>
<path d="M4.52246 9.56494C4.52246 10.1412 4.98965 10.6084 5.56593 10.6084H8.69637C8.69637 11.0887 9.08568 11.478 9.56593 11.478H10.6094C11.0896 11.478 11.479 11.0887 11.479 10.6084V9.56494H4.52246Z" fill="#F0F0F0"/>
<path d="M11.5658 4.52148V6.95627C11.5658 7.33986 11.2537 7.65192 10.8701 7.65192V8.69539C11.8291 8.69539 12.6092 7.9152 12.6092 6.95627V4.52148H11.5658Z" fill="#F0F0F0"/>
<path d="M4.08726 6.95627C4.08726 7.33986 3.7752 7.65192 3.3916 7.65192V8.69539C4.35057 8.69539 5.13073 7.9152 5.13073 6.95627V4.52148H4.08726V6.95627Z" fill="#F0F0F0"/>
<path d="M10 4.52148H11.0435V6.95627H10V4.52148Z" fill="#F0F0F0"/>
<path d="M8.43494 5.9128C8.43494 6.0087 8.35691 6.0867 8.26103 6.0867C8.16516 6.0867 8.08712 6.00867 8.08712 5.9128V4.52148H7.04366V5.9128C7.04366 6.0087 6.96563 6.0867 6.86975 6.0867C6.77387 6.0867 6.69584 6.00867 6.69584 5.9128V4.52148H5.65234V5.9128C5.65234 6.58408 6.19847 7.1302 6.86975 7.1302C7.12828 7.1302 7.36803 7.04895 7.56541 6.91095C7.76275 7.04892 8.00253 7.1302 8.26106 7.1302C8.31313 7.1302 8.36431 7.12655 8.41466 7.12014C8.34072 7.4248 8.06634 7.65192 7.73931 7.65192V8.69539C8.69828 8.69539 9.47844 7.9152 9.47844 6.95627V5.9128V4.52148H8.43497V5.9128H8.43494Z" fill="#F0F0F0"/>
<path d="M5.65234 7.65186H7.21756V8.69532H5.65234V7.65186Z" fill="#F0F0F0"/>
</g>
<defs>
<clipPath id="clip0_6774_63172">
<rect width="16" height="16" fill="white"/>
</clipPath>
</defs>
</svg>
