<svg width="16" height="16" viewBox="0 0 16 16" fill="none" xmlns="http://www.w3.org/2000/svg">
<g clip-path="url(#clip0_6774_63351)">
<path d="M7.30399 8.69566C7.30399 8.69566 2.34746 2.34203 2.34277 2.34316C3.79046 0.895438 5.79049 0 7.99965 0C12.4179 0 15.9996 3.58175 15.9996 8L7.30399 8.69566Z" fill="#D80027"/>
<path d="M7.30399 8C7.30399 8 2.34746 13.658 2.34277 13.6568C3.79046 15.1046 5.79049 16 7.99965 16C12.4179 16 15.9996 12.4183 15.9996 8H7.30399Z" fill="#0052B4"/>
<path d="M2.34314 2.34326C-0.781047 5.46745 -0.781047 10.5328 2.34314 13.657C3.63417 12.366 4.87583 11.1243 8.00002 8.00014L2.34314 2.34326Z" fill="#F0F0F0"/>
<path d="M0.876484 8C0.872109 8.05744 0.869141 8.11531 0.869141 8.17387C0.869141 9.4225 1.88139 10.4347 3.13002 10.4347C4.37864 10.4347 5.39089 9.4225 5.39089 8.17387C5.39089 8.11531 5.38792 8.05741 5.38355 8H0.876484Z" fill="#FFDA44"/>
<path d="M3.13023 6.95674C3.51443 6.95674 3.82588 6.64529 3.82588 6.26109C3.82588 5.87689 3.51443 5.56543 3.13023 5.56543C2.74603 5.56543 2.43457 5.87689 2.43457 6.26109C2.43457 6.64529 2.74603 6.95674 3.13023 6.95674Z" fill="#FFDA44"/>
<path d="M1.56543 6.08691V8.34779C1.56543 9.54591 3.13065 9.91301 3.13065 9.91301C3.13065 9.91301 4.69587 9.54591 4.69587 8.34779V6.08691H1.56543Z" fill="#D80027"/>
<path d="M3.13109 9.18512C2.84071 9.08062 2.26074 8.81356 2.26074 8.34793V6.78271H3.9999V8.34793C3.9999 8.81509 3.41999 9.0815 3.13109 9.18512Z" fill="#338AF3"/>
<path d="M3.47796 7.65212V7.30428L3.13015 7.13037L2.7823 7.30428V7.65212L2.6084 7.82603V8.52168H3.6519V7.82603L3.47796 7.65212Z" fill="#F3F3F3"/>
</g>
<defs>
<clipPath id="clip0_6774_63351">
<rect width="16" height="16" fill="white"/>
</clipPath>
</defs>
</svg>
