<svg width="16" height="16" viewBox="0 0 16 16" fill="none" xmlns="http://www.w3.org/2000/svg">
<g clip-path="url(#clip0_6774_63320)">
<path d="M3.49121 14.6087C4.77515 15.4864 6.32755 16.0001 8.00018 16.0001C9.6728 16.0001 11.2252 15.4864 12.5091 14.6087L8.00018 13.9131L3.49121 14.6087Z" fill="#D80027"/>
<path d="M12.5091 1.39131C11.2252 0.513656 9.6728 0 8.00018 0C6.32755 0 4.77509 0.513656 3.49121 1.39131L8.00018 2.08697L12.5091 1.39131Z" fill="#D80027"/>
<path d="M3.49121 14.6087C4.77515 15.4864 6.32755 16.0001 8.00018 16.0001C9.6728 16.0001 11.2252 15.4864 12.5091 14.6087L8.00018 13.9131L3.49121 14.6087Z" fill="#D80027"/>
<path d="M12.5091 1.39131C11.2252 0.513656 9.6728 0 8.00018 0C6.32755 0 4.77509 0.513656 3.49121 1.39131L8.00018 2.08697L12.5091 1.39131Z" fill="#D80027"/>
<path d="M15.9794 7.47808C15.7899 5.00902 14.2897 2.60852 12.5088 1.39111H3.49082C1.51782 2.73989 0.179477 4.94889 0.0166016 7.47808L7.99979 7.99983L15.9794 7.47808Z" fill="#0052B4"/>
<path d="M0.0166016 8.52175C0.179477 11.051 1.51779 13.2599 3.49079 14.6087H12.5087C14.4818 13.26 15.8201 11.051 15.9829 8.52175L7.99979 8L0.0166016 8.52175Z" fill="#0052B4"/>
<path d="M15.9796 7.47821H8.52175V1.04346H7.47828V7.47821H0.0168437C0.00575 7.65071 0 7.82468 0 7.99999C0 8.17527 0.00571875 8.34921 0.0168125 8.52171H7.47828V14.9565H8.52175V8.52171H15.9832C15.9943 8.34921 16 8.17527 16 7.99999C16 7.82596 15.993 7.65193 15.9796 7.47821Z" fill="#D80027"/>
<path d="M3.13086 8.00014L8.00039 4.93945L12.87 8.00014L8.00039 11.0609L3.13086 8.00014Z" fill="#F0F0F0"/>
<path d="M5.21777 9.39117H11.4786L10.0873 7.3042L9.39168 7.99986L8.69602 7.65204L8.00037 8.69551H6.60905L5.9134 7.99986L5.21777 9.39117Z" fill="#6DA544"/>
<path d="M7.99996 5.91309L8.17265 6.44449H8.73137L8.27934 6.77296L8.45202 7.3044L7.99996 6.97596L7.5479 7.3044L7.72059 6.77296L7.26855 6.44449H7.82727L7.99996 5.91309Z" fill="#FFDA44"/>
<path d="M8.0001 4.06494L1.73926 8.00013L8.0001 11.9353L14.261 8.00013L8.0001 4.06494ZM3.70013 8.00013L8.0001 5.29741L12.3001 8.00013L8.0001 10.7028L3.70013 8.00013Z" fill="#D80027"/>
</g>
<defs>
<clipPath id="clip0_6774_63320">
<rect width="16" height="16" fill="white"/>
</clipPath>
</defs>
</svg>
