<svg width="16" height="16" viewBox="0 0 16 16" fill="none" xmlns="http://www.w3.org/2000/svg">
<g clip-path="url(#clip0_6774_63374)">
<path d="M13.6566 13.6571C16.6569 10.6567 16.7754 5.86658 14.0132 2.72412L7.9995 7.99995L2.72363 14.0137C5.8661 16.7759 10.6562 16.6574 13.6566 13.6571Z" fill="#496E2D"/>
<path d="M2.34292 2.34293C5.34326 -0.657404 10.1334 -0.775873 13.2759 1.98628L7.99997 8.00008L1.98629 13.2759C-0.775888 10.1334 -0.657389 5.34327 2.34292 2.34293Z" fill="#0052B4"/>
<path d="M13.2759 1.98633L1.98633 13.2759C2.10045 13.4058 2.21895 13.5331 2.34298 13.6571C2.46698 13.7811 2.59439 13.8996 2.72426 14.0138L14.0138 2.7242C13.8996 2.59433 13.7811 2.46695 13.6571 2.34292C13.5331 2.21898 13.4057 2.10045 13.2759 1.98633Z" fill="#FFDA44"/>
<path d="M3.37112 2.78223L3.54383 3.31369H4.10261L3.65055 3.6421L3.82321 4.17357L3.37112 3.8451L2.91902 4.17357L3.09174 3.6421L2.63965 3.31369H3.19846L3.37112 2.78223Z" fill="#F0F0F0"/>
<path d="M6.22561 2.78223L6.39833 3.31369H6.95708L6.50501 3.6421L6.6777 4.17357L6.22561 3.8451L5.77352 4.17357L5.94623 3.6421L5.49414 3.31369H6.05292L6.22561 2.78223Z" fill="#F0F0F0"/>
<path d="M3.37112 5.56494L3.54383 6.09641H4.10261L3.65055 6.42485L3.82321 6.95631L3.37112 6.62785L2.91902 6.95631L3.09174 6.42485L2.63965 6.09641H3.19846L3.37112 5.56494Z" fill="#F0F0F0"/>
<path d="M6.22561 5.56494L6.39833 6.09641H6.95708L6.50501 6.42485L6.6777 6.95631L6.22561 6.62785L5.77352 6.95631L5.94623 6.42485L5.49414 6.09641H6.05292L6.22561 5.56494Z" fill="#F0F0F0"/>
<path d="M4.79791 4.17334L4.97062 4.70481H5.52937L5.07731 5.03324L5.25 5.56471L4.79791 5.23624L4.34581 5.56471L4.5185 5.03324L4.06641 4.70481H4.62522L4.79791 4.17334Z" fill="#F0F0F0"/>
</g>
<defs>
<clipPath id="clip0_6774_63374">
<rect width="16" height="16" fill="white"/>
</clipPath>
</defs>
</svg>
