<svg width="16" height="16" viewBox="0 0 16 16" fill="none" xmlns="http://www.w3.org/2000/svg">
<g clip-path="url(#clip0_6774_63387)">
<path d="M15.5024 10.7828C15.824 9.91616 16 8.97879 16 8.00022C16 7.02166 15.824 6.08429 15.5024 5.21763L8 4.52197L0.497594 5.21763C0.176031 6.08429 0 7.02166 0 8.00022C0 8.97879 0.176031 9.91616 0.497594 10.7828L8 11.4785L15.5024 10.7828Z" fill="#F0F0F0"/>
<path d="M8.00048 16.0001C11.4402 16.0001 14.3725 13.8291 15.5029 10.7827H0.498047C1.62842 13.8291 4.56073 16.0001 8.00048 16.0001Z" fill="#D80027"/>
<path d="M8.00048 0C4.56073 0 1.62842 2.171 0.498047 5.21741H15.5029C14.3725 2.171 11.4402 0 8.00048 0Z" fill="#496E2D"/>
<path d="M7.99952 6.26074L8.43118 7.58927H9.82815L8.69799 8.41043L9.12971 9.73899L7.99952 8.91796L6.86934 9.73899L7.30105 8.41043L6.1709 7.58927H7.56787L7.99952 6.26074Z" fill="black"/>
<path d="M10.3768 1.56543V3.18859C10.3768 3.44437 10.1688 3.65237 9.91309 3.65237V4.34802C10.5524 4.34802 11.0725 3.82793 11.0725 3.18859V1.56543H10.3768Z" fill="#F0F0F0"/>
<path d="M5.39152 3.18859C5.39152 3.44437 5.18348 3.65237 4.92773 3.65237V4.34802C5.56708 4.34802 6.08717 3.82793 6.08717 3.18859V1.56543H5.39152V3.18859Z" fill="#F0F0F0"/>
<path d="M9.33301 1.56543H10.0287V3.18859H9.33301V1.56543Z" fill="#F0F0F0"/>
<path d="M8.28966 2.49293C8.28966 2.55687 8.23763 2.6089 8.17373 2.6089C8.10979 2.6089 8.05776 2.55687 8.05776 2.49293V1.56543H7.3621V2.49293C7.3621 2.55687 7.3101 2.6089 7.24616 2.6089C7.18223 2.6089 7.13023 2.55687 7.13023 2.49293V1.56543H6.43457V2.49293C6.43457 2.94049 6.79863 3.30455 7.24616 3.30455C7.41851 3.30455 7.57838 3.2504 7.70991 3.15843C7.84151 3.2504 8.00135 3.30455 8.1737 3.30455C8.20841 3.30455 8.24254 3.30212 8.2761 3.29784C8.22679 3.50093 8.04388 3.65237 7.82588 3.65237V4.34802C8.4652 4.34802 8.98529 3.82793 8.98529 3.18859V2.49293V1.56543H8.28963L8.28966 2.49293Z" fill="#F0F0F0"/>
<path d="M6.43457 3.65234H7.47804V4.348H6.43457V3.65234Z" fill="#F0F0F0"/>
</g>
<defs>
<clipPath id="clip0_6774_63387">
<rect width="16" height="16" fill="white"/>
</clipPath>
</defs>
</svg>
