<svg width="16" height="16" viewBox="0 0 16 16" fill="none" xmlns="http://www.w3.org/2000/svg">
<g clip-path="url(#clip0_6774_63412)">
<path d="M8 16C12.4183 16 16 12.4183 16 8C16 3.58172 12.4183 0 8 0C3.58172 0 0 3.58172 0 8C0 12.4183 3.58172 16 8 16Z" fill="#F0F0F0"/>
<path d="M15.3762 4.89853C14.1647 2.02069 11.3187 0 8.00034 0C5.79116 0 3.79138 0.895594 2.34375 2.34341L4.34719 4.89853H15.3762Z" fill="black"/>
<path d="M4.36991 11.0723L2.34375 13.6564C3.79138 15.1042 5.79116 15.9998 8.00034 15.9998C11.3299 15.9998 14.184 13.9656 15.3886 11.0723H4.36991Z" fill="#496E2D"/>
<path d="M1.73926 5.88428V10.0872H15.7246C15.904 9.42181 16.0001 8.72231 16.0001 8.00022C16.0001 7.26765 15.9014 6.55828 15.717 5.88428H1.73926Z" fill="#A2001D"/>
<path d="M2.34314 2.34326C-0.781047 5.46745 -0.781047 10.5328 2.34314 13.657C3.63417 12.366 4.87583 11.1243 8.00002 8.00014L2.34314 2.34326Z" fill="#0052B4"/>
<path d="M2.6056 6.01123L3.58201 7.37376L5.17976 6.86611L4.18566 8.21589L5.16207 9.57848L3.5712 9.05014L2.57707 10.3999L2.58801 8.72354L0.99707 8.19514L2.5947 7.68751L2.6056 6.01123Z" fill="#FFDA44"/>
</g>
<defs>
<clipPath id="clip0_6774_63412">
<rect width="16" height="16" fill="white"/>
</clipPath>
</defs>
</svg>
