<svg width="16" height="16" viewBox="0 0 16 16" fill="none" xmlns="http://www.w3.org/2000/svg">
<g clip-path="url(#clip0_6774_63288)">
<path d="M8 16C12.4183 16 16 12.4183 16 8C16 3.58172 12.4183 0 8 0C3.58172 0 0 3.58172 0 8C0 12.4183 3.58172 16 8 16Z" fill="#F0F0F0"/>
<path d="M10.783 7.99988C10.783 8.69554 9.53715 10.4347 8.00037 10.4347C6.46359 10.4347 5.21777 8.69554 5.21777 7.99988C5.21777 6.46307 6.46359 5.21729 8.00037 5.21729C9.53715 5.21729 10.783 6.46307 10.783 7.99988Z" fill="#D80027"/>
<path d="M10.783 8C10.783 9.53681 9.53715 10.7826 8.00037 10.7826C6.46359 10.7826 5.21777 9.53681 5.21777 8" fill="#0052B4"/>
<path d="M10.9492 10.4595L11.687 9.72174L12.1788 10.2136L11.441 10.9513L10.9492 10.4595Z" fill="black"/>
<path d="M9.71973 11.6895L10.4575 10.9517L10.9493 11.4436L10.2116 12.1813L9.71973 11.6895Z" fill="black"/>
<path d="M12.4248 11.9351L13.1625 11.1973L13.6544 11.6892L12.9166 12.4269L12.4248 11.9351Z" fill="black"/>
<path d="M11.1953 13.165L11.933 12.4273L12.4249 12.9191L11.6871 13.6569L11.1953 13.165Z" fill="black"/>
<path d="M11.6865 11.1973L12.4243 10.4595L12.9161 10.9514L12.1784 11.6891L11.6865 11.1973Z" fill="black"/>
<path d="M10.457 12.4268L11.1948 11.689L11.6866 12.1809L10.9489 12.9186L10.457 12.4268Z" fill="black"/>
<path d="M12.4277 5.5415L10.4604 3.57421L10.9523 3.08238L12.9196 5.04968L12.4277 5.5415Z" fill="black"/>
<path d="M10.46 5.05029L9.72223 4.31256L10.214 3.82075L10.9518 4.55849L10.46 5.05029Z" fill="black"/>
<path d="M11.6904 6.27979L10.9527 5.54205L11.4445 5.05025L12.1822 5.78798L11.6904 6.27979Z" fill="black"/>
<path d="M11.9355 3.57422L11.1978 2.83649L11.6896 2.34466L12.4274 3.08239L11.9355 3.57422Z" fill="black"/>
<path d="M13.166 4.8042L12.4283 4.06647L12.9201 3.57464L13.6578 4.31237L13.166 4.8042Z" fill="black"/>
<path d="M2.83594 11.1958L4.80323 13.1631L4.3114 13.6549L2.34411 11.6876L2.83594 11.1958Z" fill="black"/>
<path d="M4.80371 11.6875L5.54144 12.4252L5.04964 12.917L4.3119 12.1793L4.80371 11.6875Z" fill="black"/>
<path d="M3.57324 10.458L4.31097 11.1957L3.81915 11.6876L3.08141 10.9498L3.57324 10.458Z" fill="black"/>
<path d="M4.31152 9.72021L6.27882 11.6875L5.78699 12.1793L3.81969 10.212L4.31152 9.72021Z" fill="black"/>
<path d="M4.80273 2.83496L2.83544 4.80225L2.34361 4.31043L4.31091 2.34313L4.80273 2.83496Z" fill="black"/>
<path d="M5.54102 3.57275L3.57372 5.54005L3.08189 5.04822L5.04919 3.08092L5.54102 3.57275Z" fill="black"/>
<path d="M6.2793 4.31104L4.312 6.27833L3.8202 5.78652L5.78749 3.81923L6.2793 4.31104Z" fill="black"/>
</g>
<defs>
<clipPath id="clip0_6774_63288">
<rect width="16" height="16" fill="white"/>
</clipPath>
</defs>
</svg>
