<svg width="16" height="16" viewBox="0 0 16 16" fill="none" xmlns="http://www.w3.org/2000/svg">
<g clip-path="url(#clip0_6774_63398)">
<path d="M8 16C12.4183 16 16 12.4183 16 8C16 3.58172 12.4183 0 8 0C3.58172 0 0 3.58172 0 8C0 12.4183 3.58172 16 8 16Z" fill="#F0F0F0"/>
<path d="M2.34314 13.657C-0.781047 10.5328 -0.781047 5.46748 2.34314 2.34326C2.34292 2.34361 6.95655 8.00014 6.95655 8.00014L2.34314 13.657Z" fill="black"/>
<path d="M6.95609 8.00008L1.06059 4.01611C0.877812 4.33383 0.716625 4.66546 0.578125 5.00871L3.56278 8.00011L0.578219 10.9917C0.716594 11.3347 0.877625 11.6661 1.06028 11.9836L6.95609 8.00008Z" fill="#FFDA44"/>
<path d="M15.9321 6.95654H6.95614L2.34289 2.34326C1.84577 2.84039 1.41386 3.40261 1.06086 4.01607L5.03708 8.00001L1.06055 11.9834C1.41355 12.5971 1.84564 13.1595 2.34289 13.6567L6.95614 9.04348H15.9321C15.9766 8.70192 15.9998 8.35367 15.9998 8.00001C15.9998 7.64636 15.9766 7.29811 15.9321 6.95654Z" fill="#6DA544"/>
<path d="M3.12891 14.3461C4.47794 15.383 6.16659 15.9999 7.99959 15.9999C11.6958 15.9999 14.806 13.493 15.724 10.0869H7.38812L3.12891 14.3461Z" fill="#0052B4"/>
<path d="M15.724 5.91303C14.806 2.50691 11.6958 0 7.99959 0C6.16659 0 4.47794 0.616906 3.12891 1.65384L7.38809 5.91303H15.724Z" fill="#D80027"/>
</g>
<defs>
<clipPath id="clip0_6774_63398">
<rect width="16" height="16" fill="white"/>
</clipPath>
</defs>
</svg>
