<svg width="16" height="16" viewBox="0 0 16 16" fill="none" xmlns="http://www.w3.org/2000/svg">
<g clip-path="url(#clip0_6774_63496)">
<path d="M7.99998 16C12.4183 16 16 12.4183 16 7.99998C16 3.58172 12.4183 0 7.99998 0C3.58172 0 0 3.58172 0 7.99998C0 12.4183 3.58172 16 7.99998 16Z" fill="#FFDA44"/>
<path d="M6.26066 1.39111H3.49082C3.36807 1.47502 3.24795 1.56236 3.13023 1.65277L2.43457 7.99977L3.13023 14.3468C3.24795 14.4372 3.36807 14.5246 3.49082 14.6084H6.26066V1.39111Z" fill="#FF9811"/>
<path d="M0 7.99986C0 10.5856 1.22713 12.8845 3.13044 14.3469V1.65283C1.22713 3.11527 0 5.41408 0 7.99986Z" fill="#6DA544"/>
<path d="M12.8691 4.87695V5.07711L12.8766 5.07823L12.8691 4.87695Z" fill="#FFDA44"/>
<path d="M15.3627 10.0867H13.8554L13.2177 10.7824V12.1737H11.8264V11.4781H12.5221V10.0867H9.39162V10.9563H8.69597V9.29908C8.48253 9.10802 8.34816 8.83049 8.34816 8.52152V3.9998C8.34816 3.42352 8.81534 2.95633 9.39162 2.95633V9.39111H10.7829L11.2603 8.99327C11.1769 8.79468 11.1308 8.57658 11.1308 8.34764V7.30418H10.0873V5.21724H12.1742C12.1742 4.86943 12.696 4.52158 12.696 4.52158C12.696 4.52158 13.2177 4.86939 13.2177 5.21724V5.73899V7.30421C13.6047 7.3088 14.2195 7.29877 14.8837 7.30421C14.7092 6.99921 14.609 6.6373 14.609 6.26074C14.609 5.64696 14.874 5.09514 15.2958 4.71327C14.6878 3.36593 13.7176 2.21711 12.5093 1.39111H7.30469V14.6085H12.5093C13.9787 13.6041 15.0958 12.1225 15.6378 10.3869L15.3627 10.0867Z" fill="#A2001D"/>
</g>
<defs>
<clipPath id="clip0_6774_63496">
<rect width="16" height="16" fill="white"/>
</clipPath>
</defs>
</svg>
