<svg width="16" height="16" viewBox="0 0 16 16" fill="none" xmlns="http://www.w3.org/2000/svg">
<g clip-path="url(#clip0_6774_63586)">
<path d="M8 16C12.4183 16 16 12.4183 16 8C16 3.58172 12.4183 0 8 0C3.58172 0 0 3.58172 0 8C0 12.4183 3.58172 16 8 16Z" fill="#F0F0F0"/>
<path d="M14.284 6.43499H11.6521C11.6521 5.95475 11.2628 5.56543 10.7826 5.56543L10.0869 6.95673C10.0869 6.95673 10.829 9.04369 10.8058 9.04369H11.6753C12.1556 9.04369 12.5449 8.6544 12.5449 8.17413C13.0251 8.17413 13.4144 7.78484 13.4144 7.30458H13.3855C13.8657 7.30454 14.284 6.91526 14.284 6.43499Z" fill="#ACABB1"/>
<path d="M1.71582 6.43499H4.3477C4.3477 5.95475 4.73702 5.56543 5.21726 5.56543L5.91292 6.95673C5.91292 6.95673 5.17087 9.04369 5.19408 9.04369H4.32452C3.84425 9.04369 3.45497 8.6544 3.45497 8.17413C2.9747 8.17413 2.58541 7.78484 2.58541 7.30458H2.61437C2.1341 7.30454 1.71582 6.91526 1.71582 6.43499Z" fill="#ACABB1"/>
<path d="M10.7827 11.1304V11.4782H5.21747V11.1304H3.82617V12.5217H5.21747V12.8695H10.7827V12.5217H12.174V11.1304H10.7827Z" fill="#FFDA44"/>
<path d="M5.21777 5.5651V9.04333C5.21777 11.1733 8.00037 11.826 8.00037 11.826C8.00037 11.826 10.783 11.1733 10.783 9.04333V5.5651L8.00037 5.21729L5.21777 5.5651Z" fill="#0052B4"/>
<path d="M5.21777 6.95654H10.783V9.0435H5.21777V6.95654Z" fill="#D80027"/>
<path d="M9.39167 3.82604V4.34778L9.04385 4.5217L8.69603 4.17385V3.13037H7.30474V4.17385L6.95692 4.5217L6.60907 4.34778V3.82604H5.21777V5.56515H10.783V3.82604H9.39167Z" fill="#FFDA44"/>
</g>
<defs>
<clipPath id="clip0_6774_63586">
<rect width="16" height="16" fill="white"/>
</clipPath>
</defs>
</svg>
