<svg width="16" height="16" viewBox="0 0 16 16" fill="none" xmlns="http://www.w3.org/2000/svg">
<g clip-path="url(#clip0_6774_63580)">
<path d="M16 8C16 12.4183 12.4183 16 8 16C3.58175 16 0 12.4183 0 8C2.74781 5.25219 5.07825 2.92175 8 0C12.4183 0 16 3.58175 16 8Z" fill="#D80027"/>
<path d="M8 8C8 3.58175 8 3.06087 8 0C3.58175 0 0 3.58175 0 8H8Z" fill="#0052B4"/>
<path d="M6.95699 4.68179L5.97996 5.14141L6.50021 6.08763L5.4393 5.88463L5.30484 6.95641L4.5659 6.16816L3.8269 6.95641L3.69249 5.88463L2.63155 6.08757L3.1518 5.14135L2.1748 4.68179L3.15184 4.22226L2.63155 3.27601L3.69246 3.47898L3.82693 2.40723L4.5659 3.19548L5.30487 2.40723L5.4393 3.47898L6.50024 3.27601L5.97996 4.22229L6.95699 4.68179Z" fill="#F0F0F0"/>
<path d="M4.56533 6.1707C5.38777 6.1707 6.05448 5.50398 6.05448 4.68154C6.05448 3.8591 5.38777 3.19238 4.56533 3.19238C3.74289 3.19238 3.07617 3.8591 3.07617 4.68154C3.07617 5.50398 3.74289 6.1707 4.56533 6.1707Z" fill="#0052B4"/>
<path d="M4.56495 5.47518C4.12742 5.47518 3.77148 5.11921 3.77148 4.68168C3.77148 4.24415 4.12745 3.88818 4.56495 3.88818C5.00248 3.88818 5.35845 4.24415 5.35845 4.68168C5.35842 5.11921 5.00242 5.47518 4.56495 5.47518Z" fill="#F0F0F0"/>
</g>
<defs>
<clipPath id="clip0_6774_63580">
<rect width="16" height="16" fill="white"/>
</clipPath>
</defs>
</svg>
