<svg width="16" height="16" viewBox="0 0 16 16" fill="none" xmlns="http://www.w3.org/2000/svg">
<g clip-path="url(#clip0_6774_63595)">
<path d="M0.793813 4.52183C0.28525 5.57358 0 6.75352 0 8.00008C0 9.24664 0.28525 10.4266 0.793813 11.4783L8 12.174L15.2062 11.4783C15.7147 10.4266 16 9.24664 16 8.00008C16 6.75352 15.7147 5.57358 15.2062 4.52183L8 3.82617L0.793813 4.52183Z" fill="#F0F0F0"/>
<path d="M0.793945 11.478C2.08791 14.154 4.8282 15.9998 7.99985 15.9998C11.1715 15.9998 13.9118 14.154 15.2058 11.478H0.793945Z" fill="#6DA544"/>
<path d="M0.793945 4.52175H15.2058C13.9118 1.84581 11.1715 0 7.99985 0C4.8282 0 2.08791 1.84581 0.793945 4.52175Z" fill="#D80027"/>
<path d="M6.6084 10.0873H9.39102V8.90468L8.83449 9.18293L7.99971 8.34814L7.16493 9.18293L6.6084 8.90468V10.0873Z" fill="#FFDA44"/>
<path d="M5.01637 8.6958L5.1459 9.09436H5.56496L5.2259 9.34071L5.35543 9.73927L5.01637 9.49296L4.6773 9.73927L4.80684 9.34071L4.46777 9.09436H4.88684L5.01637 8.6958Z" fill="#FFDA44"/>
<path d="M5.41773 7.30469L5.54727 7.70325H5.96633L5.62727 7.94959L5.75677 8.34816L5.41773 8.10184L5.07867 8.34816L5.2082 7.94959L4.86914 7.70325H5.2882L5.41773 7.30469Z" fill="#FFDA44"/>
<path d="M6.56617 6.26123L6.6957 6.65979H7.11473L6.77573 6.90614L6.9052 7.3047L6.56617 7.05839L6.22714 7.3047L6.35664 6.90614L6.01758 6.65979H6.43667L6.56617 6.26123Z" fill="#FFDA44"/>
<path d="M10.9832 8.6958L10.8536 9.09436H10.4346L10.7736 9.34071L10.6441 9.73927L10.9832 9.49296L11.3222 9.73927L11.1927 9.34071L11.5318 9.09436H11.1127L10.9832 8.6958Z" fill="#FFDA44"/>
<path d="M10.5818 7.30469L10.4523 7.70325H10.0332L10.3723 7.94959L10.2427 8.34816L10.5818 8.10184L10.9209 8.34816L10.7913 7.94959L11.1304 7.70325H10.7113L10.5818 7.30469Z" fill="#FFDA44"/>
<path d="M9.43333 6.26123L9.3038 6.65979H8.88477L9.22377 6.90614L9.09426 7.3047L9.43333 7.05839L9.77236 7.3047L9.64286 6.90614L9.98189 6.65979H9.56283L9.43333 6.26123Z" fill="#FFDA44"/>
<path d="M7.99977 5.73926L8.1293 6.13782H8.54836L8.2093 6.38416L8.33883 6.78273L7.99977 6.53641L7.6607 6.78273L7.79023 6.38416L7.45117 6.13782H7.87023L7.99977 5.73926Z" fill="#FFDA44"/>
</g>
<defs>
<clipPath id="clip0_6774_63595">
<rect width="16" height="16" fill="white"/>
</clipPath>
</defs>
</svg>
