<svg width="16" height="16" viewBox="0 0 16 16" fill="none" xmlns="http://www.w3.org/2000/svg">
<g clip-path="url(#clip0_6774_63664)">
<path d="M8 16C12.4183 16 16 12.4183 16 8C16 3.58172 12.4183 0 8 0C3.58172 0 0 3.58172 0 8C0 12.4183 3.58172 16 8 16Z" fill="#FFDA44"/>
<path d="M2.34265 13.6569C2.67824 13.9925 3.0363 14.2918 3.4119 14.5553L14.5547 3.41242C14.2913 3.03682 13.992 2.67876 13.6564 2.34317C13.3207 2.00757 12.9627 1.70832 12.5871 1.44482L1.44434 12.5877C1.70777 12.9632 2.00709 13.3213 2.34265 13.6569Z" fill="black"/>
<path d="M2.34282 2.34327C-0.180997 4.86714 -0.665528 8.65748 0.888316 11.6682L11.6678 0.888797C8.65703 -0.665046 4.86666 -0.180484 2.34282 2.34327Z" fill="#6DA544"/>
<path d="M13.6569 13.657C16.1808 11.1332 16.6653 7.34275 15.1115 4.33203L4.33203 15.1115C7.34269 16.6653 11.1331 16.1808 13.6569 13.657Z" fill="#338AF3"/>
</g>
<defs>
<clipPath id="clip0_6774_63664">
<rect width="16" height="16" fill="white"/>
</clipPath>
</defs>
</svg>
