<svg width="16" height="16" viewBox="0 0 16 16" fill="none" xmlns="http://www.w3.org/2000/svg">
<g clip-path="url(#clip0_6774_63675)">
<path d="M8 16C12.4183 16 16 12.4183 16 8C16 3.58172 12.4183 0 8 0C3.58172 0 0 3.58172 0 8C0 12.4183 3.58172 16 8 16Z" fill="#F0F0F0"/>
<path d="M3.49121 1.39131C4.77512 0.513625 6.32755 0 8.00018 0C9.6728 0 11.2252 0.513625 12.5091 1.39131L8.00018 1.73913L3.49121 1.39131Z" fill="#FFDA44"/>
<path d="M2.34356 13.6562L6.03237 9.96749L8 6.60849L9.96741 9.96727L13.6564 13.6562C15.1042 12.2086 16 10.209 16 7.9998C16 5.25414 14.6166 2.83183 12.509 1.39111H3.49103C1.38341 2.83183 0 5.25414 0 7.9998C0 10.209 0.89575 12.2086 2.34356 13.6562Z" fill="#D80027"/>
<path d="M15.392 11.0628L9.54297 8.63916L9.96691 9.96678L13.6562 13.6561C14.3928 12.9196 14.9865 12.0401 15.392 11.0628Z" fill="#0052B4"/>
<path d="M16 7.99968C16 6.91452 15.7837 5.87999 15.3923 4.93652L8 7.99968H16Z" fill="#0052B4"/>
<path d="M13.6564 2.34336C13.3048 1.9918 12.9208 1.67264 12.509 1.39111H10.7385L8 7.9998L13.6564 2.34336Z" fill="#0052B4"/>
<path d="M8.00019 1.39111H5.26172L8.00019 7.9998V1.39111Z" fill="#0052B4"/>
<path d="M2.3432 2.34326C1.60658 3.07982 1.01292 3.95923 0.607422 4.93651L7.99964 7.9997L2.3432 2.34326Z" fill="#0052B4"/>
<path d="M0 8C0 9.08516 0.216281 10.1197 0.60775 11.0632L8 8H0Z" fill="#0052B4"/>
<path d="M3.49121 14.6084C4.77509 15.4861 6.32755 15.9997 8.00018 15.9997C9.6728 15.9997 11.2252 15.4861 12.5091 14.6084H3.49121Z" fill="#FFDA44"/>
<path d="M8.00037 7.99988L9.96796 9.96747C10.4716 9.46391 10.783 8.76829 10.783 7.99988C10.783 6.46307 9.53718 5.21729 8.0004 5.21729C6.46362 5.21729 5.21777 6.46307 5.21777 7.99988C5.21777 8.76825 5.52921 9.46391 6.0328 9.96747L8.00037 7.99988Z" fill="#FFDA44"/>
<path d="M9.21802 12.0001C9.21802 12.6725 8.67292 12.8697 8.00061 12.8697C7.3283 12.8697 6.7832 12.6725 6.7832 12.0001C6.7832 11.3278 7.3283 10.7827 8.00061 10.7827C8.67292 10.7827 9.21802 11.3278 9.21802 12.0001Z" fill="#FFDA44"/>
<path d="M9.21704 12C9.21704 12.6723 8.67195 13.2174 7.99963 13.2174C7.32732 13.2174 6.78223 12.6723 6.78223 12" fill="#0052B4"/>
</g>
<defs>
<clipPath id="clip0_6774_63675">
<rect width="16" height="16" fill="white"/>
</clipPath>
</defs>
</svg>
