<svg width="16" height="16" viewBox="0 0 16 16" fill="none" xmlns="http://www.w3.org/2000/svg">
<g clip-path="url(#clip0_6774_63707)">
<path d="M15.7242 5.91303C14.8062 2.50691 11.696 0 7.9998 0C4.30358 0 1.19339 2.50691 0.275391 5.91303L7.9998 6.26088L15.7242 5.91303Z" fill="#A2001D"/>
<path d="M0.275391 10.0871C1.19339 13.4932 4.30358 16.0001 7.9998 16.0001C11.696 16.0001 14.8062 13.4932 15.7242 10.0871L7.9998 9.73926L0.275391 10.0871Z" fill="#A2001D"/>
<path d="M15.7244 5.91309H0.275594C0.09625 6.57849 0 7.27796 0 8.00005C0 8.72215 0.09625 9.42162 0.275594 10.087H15.7244C15.9038 9.42162 16 8.72215 16 8.00005C16 7.27796 15.9038 6.57849 15.7244 5.91309Z" fill="#6DA544"/>
</g>
<defs>
<clipPath id="clip0_6774_63707">
<rect width="16" height="16" fill="white"/>
</clipPath>
</defs>
</svg>
