<svg width="16" height="16" viewBox="0 0 16 16" fill="none" xmlns="http://www.w3.org/2000/svg">
<g clip-path="url(#clip0_6774_63761)">
<path d="M8 16C12.4183 16 16 12.4183 16 8C16 3.58172 12.4183 0 8 0C3.58172 0 0 3.58172 0 8C0 12.4183 3.58172 16 8 16Z" fill="#D80027"/>
<path d="M7.99992 11.826C10.113 11.826 11.826 10.113 11.826 7.99992C11.826 5.88683 10.113 4.17383 7.99992 4.17383C5.88683 4.17383 4.17383 5.88683 4.17383 7.99992C4.17383 10.113 5.88683 11.826 7.99992 11.826Z" fill="#F0F0F0"/>
<path d="M8.47195 6.53711L9.12833 7.44164L10.1914 7.09695L9.53395 8.0007L10.1903 8.9052L9.12758 8.5592L8.47017 9.46295L8.47086 8.34542L7.4082 7.99942L8.47127 7.65473L8.47195 6.53711Z" fill="#D80027"/>
<path d="M8.86993 10.2608C7.6213 10.2608 6.60905 9.24854 6.60905 7.99991C6.60905 6.75129 7.6213 5.73904 8.86993 5.73904C9.25924 5.73904 9.62559 5.83747 9.9454 6.01079C9.44368 5.52013 8.75759 5.21729 8.00037 5.21729C6.46362 5.21729 5.21777 6.4631 5.21777 7.99988C5.21777 9.53666 6.46362 10.7825 8.00037 10.7825C8.75759 10.7825 9.44371 10.4796 9.9454 9.98897C9.62559 10.1623 9.25924 10.2608 8.86993 10.2608Z" fill="#D80027"/>
</g>
<defs>
<clipPath id="clip0_6774_63761">
<rect width="16" height="16" fill="white"/>
</clipPath>
</defs>
</svg>
