<svg width="16" height="16" viewBox="0 0 16 16" fill="none" xmlns="http://www.w3.org/2000/svg">
<g clip-path="url(#clip0_6774_63880)">
<path d="M16 8C16 12.4183 12.4183 16 8 16C3.58175 16 0 12.4183 0 8C0 8.00191 8 0.000875 8 0C12.4183 0 16 3.58175 16 8Z" fill="#0052B4"/>
<path d="M7.97852 7.99992H7.99992C7.99992 7.99273 7.99992 7.98573 7.99992 7.97852C7.9928 7.98567 7.98567 7.9928 7.97852 7.99992Z" fill="#F0F0F0"/>
<path d="M8 4.17391C8 2.76625 8 1.84391 8 0H7.99866C3.58097 0.00075 0 3.58216 0 8H4.17391V5.64966L6.52425 8H7.97862C7.98575 7.99288 7.99288 7.98575 8.00003 7.97859C8.00003 7.43963 8.00003 6.95872 8.00003 6.52431L5.64962 4.17391H8Z" fill="#F0F0F0"/>
<path d="M4.04782 1.04346C2.7966 1.75593 1.75638 2.79611 1.04395 4.04733V7.99999H3.13091V3.13049V3.13043H8.00048C8.00048 2.47221 8.00048 1.84514 8.00048 1.04346H4.04782Z" fill="#D80027"/>
<path d="M8.0009 7.01611L5.15855 4.17383H4.1748V4.17389L8.00084 7.99989H8.0009C8.0009 7.99989 8.0009 7.32155 8.0009 7.01611Z" fill="#D80027"/>
<path d="M9.04395 4.17383V7.99989C9.04395 9.86364 11.4787 10.4347 11.4787 10.4347C11.4787 10.4347 13.9135 9.86364 13.9135 7.99989V4.17383H9.04395Z" fill="#FFDA44"/>
<path d="M11.1306 5.56529C11.1306 5.9495 10.8191 6.9566 10.4349 6.9566C10.0507 6.9566 9.73926 5.9495 9.73926 5.56529C9.73926 5.18107 10.4349 4.86963 10.4349 4.86963C10.4349 4.86963 11.1306 5.18107 11.1306 5.56529Z" fill="#FF9811"/>
<path d="M12.9765 6.32294C13.0887 6.04904 13.176 5.64866 13.176 5.44935C13.176 5.12916 12.7586 4.86963 12.7586 4.86963C12.7586 4.86963 12.3412 5.12919 12.3412 5.44935C12.3412 5.64866 12.4285 6.04904 12.5408 6.32294L12.2998 6.867C12.4414 6.92457 12.5962 6.95657 12.7586 6.95657C12.9209 6.95657 13.0757 6.92457 13.2174 6.867L12.9765 6.32294Z" fill="#A2001D"/>
<path d="M10.9562 8.00016C10.9562 8.00016 10.6084 8.69581 10.6084 9.39147H12.3475C12.3475 8.69581 11.9997 8.00016 11.9997 8.00016L11.4779 7.65234L10.9562 8.00016Z" fill="#6DA544"/>
<path d="M11.9996 7.99986V7.82595C11.9996 7.53782 11.766 7.3042 11.4778 7.3042C11.1897 7.3042 10.9561 7.53779 10.9561 7.82595V7.99986H11.9996Z" fill="#D80027"/>
</g>
<defs>
<clipPath id="clip0_6774_63880">
<rect width="16" height="16" fill="white"/>
</clipPath>
</defs>
</svg>
