<svg width="16" height="16" viewBox="0 0 16 16" fill="none" xmlns="http://www.w3.org/2000/svg">
<g clip-path="url(#clip0_6774_63767)">
<path d="M7.99999 0C7.40268 0 6.82084 0.0660313 6.2609 0.190156L5.91309 7.99997L6.2609 15.8098C6.82087 15.9339 7.40271 16 7.99999 16C12.4183 16 16 12.4182 16 7.99997C16 3.58172 12.4183 0 7.99999 0V0Z" fill="#496E2D"/>
<path d="M2.08694 2.61182C0.790562 4.03357 0 5.9245 0 8.00019C0 10.0759 0.790594 11.9668 2.08697 13.3886L2.43478 8.00019L2.08694 2.61182Z" fill="#496E2D"/>
<path d="M11.7005 6.03437C12.0941 4.93731 11.6519 3.74415 10.7029 3.1499C10.8736 3.17212 11.0445 3.21231 11.2131 3.27278C12.4788 3.7269 13.1367 5.12103 12.6826 6.38671C12.2285 7.6525 10.8344 8.31037 9.56865 7.85625C9.39999 7.79575 9.24252 7.71809 9.09668 7.62675C10.207 7.77134 11.3069 7.13143 11.7005 6.03437Z" fill="#F0F0F0"/>
<path d="M9.51741 2.84912L9.17538 3.29106L8.64948 3.10234L8.96404 3.56415L8.62207 4.00603L9.15848 3.84959L9.4731 4.31134L9.48998 3.75284L10.0264 3.59637L9.50051 3.40771L9.51741 2.84912Z" fill="#F0F0F0"/>
<path d="M10.4403 4.28906L10.0983 4.73097L9.57233 4.54225L9.88692 5.00406L9.54492 5.44594L10.0813 5.28944L10.396 5.75128L10.4129 5.19275L10.9493 5.03625L10.4234 4.84756L10.4403 4.28906Z" fill="#F0F0F0"/>
<path d="M7.88851 3.37354L7.54648 3.81541L7.02057 3.62675L7.33516 4.08854L6.99316 4.53044L7.52954 4.37397L7.84416 4.83575L7.8611 4.27725L8.39751 4.12079L7.8716 3.93207L7.88851 3.37354Z" fill="#F0F0F0"/>
<path d="M7.85143 5.02295L7.50943 5.46486L6.98349 5.27617L7.29812 5.73798L6.95605 6.17986L7.49252 6.02342L7.80712 6.48517L7.82402 5.92667L8.36046 5.7702L7.83449 5.58148L7.85143 5.02295Z" fill="#F0F0F0"/>
<path d="M9.42076 5.58594L9.07873 6.02781L8.55283 5.83913L8.86745 6.30094L8.52539 6.74278L9.06186 6.58634L9.37645 7.04816L9.39336 6.48959L9.9298 6.33316L9.40383 6.14447L9.42076 5.58594Z" fill="#F0F0F0"/>
<path d="M2.08691 2.61138V13.3882C3.17691 14.5836 4.62473 15.4469 6.26082 15.8096V0.189941C4.6247 0.552629 3.17695 1.41591 2.08691 2.61138Z" fill="#D80027"/>
<path d="M3.68023 4.21182L2.98145 3.69126V2.9551L3.68023 2.43457H4.66851L5.36729 2.9551V3.69126L4.66851 4.21182H3.68023Z" fill="#F0F0F0"/>
<path d="M4.17438 2.43457H3.68023L2.98145 2.9551V3.31501H4.17438V2.43457Z" fill="#FF9811"/>
<path d="M4.1748 4.21201H4.66893L5.36771 3.69145V3.31592H4.1748V4.21201Z" fill="#FF9811"/>
<path d="M3.68023 13.5653L2.98145 13.0448V12.3086L3.68023 11.7881H4.66851L5.36729 12.3086V13.0448L4.66851 13.5653H3.68023Z" fill="#F0F0F0"/>
<path d="M4.17438 11.7881H3.68023L2.98145 12.3086V12.6686H4.17438V11.7881Z" fill="#FF9811"/>
<path d="M4.1748 13.5655H4.66893L5.36771 13.0449V12.6694H4.1748V13.5655Z" fill="#FF9811"/>
<path d="M3.68023 8.88858L2.98145 8.36802V7.63189L3.68023 7.11133H4.66851L5.36729 7.63189V8.36802L4.66851 8.88858H3.68023Z" fill="#496E2D"/>
<path d="M5.39178 10.0341H5.08741V9.72975H4.55256L4.17438 9.35156L3.79622 9.72975H3.26137V10.0341H2.95703V10.6428H3.26137V10.9471H3.79619L4.17441 11.3253L4.55256 10.9471H5.08741V10.6428H5.39178V10.0341Z" fill="#496E2D"/>
<path d="M5.39178 5.35737H5.08741V5.05299H4.55256L4.17438 4.6748L3.79622 5.05299H3.26137V5.35737H2.95703V5.96605H3.26137V6.2704H3.79619L4.17441 6.64865L4.55256 6.2704H5.08741V5.96605H5.39178V5.35737Z" fill="#496E2D"/>
<path d="M3.82617 7.65186H4.52183V8.34751H3.82617V7.65186Z" fill="#D80027"/>
<path d="M4.17398 6.0091C4.36608 6.0091 4.5218 5.85338 4.5218 5.66129C4.5218 5.4692 4.36608 5.31348 4.17398 5.31348C3.98189 5.31348 3.82617 5.4692 3.82617 5.66129C3.82617 5.85338 3.98189 6.0091 4.17398 6.0091Z" fill="#D80027"/>
<path d="M4.17398 10.6859C4.36608 10.6859 4.5218 10.5301 4.5218 10.338C4.5218 10.146 4.36608 9.99023 4.17398 9.99023C3.98189 9.99023 3.82617 10.146 3.82617 10.338C3.82617 10.5301 3.98189 10.6859 4.17398 10.6859Z" fill="#D80027"/>
</g>
<defs>
<clipPath id="clip0_6774_63767">
<rect width="16" height="16" fill="white"/>
</clipPath>
</defs>
</svg>
