<svg width="16" height="16" viewBox="0 0 16 16" fill="none" xmlns="http://www.w3.org/2000/svg">
<g clip-path="url(#clip0_6774_63894)">
<path d="M13.9623 13.3333C15.2292 11.9179 16 10.0491 16 7.99995C16 5.95082 15.2292 4.08198 13.9622 2.6666L8 2.08691L2.03775 2.6666C0.770781 4.08198 0 5.95082 0 7.99995C0 10.0491 0.77075 11.9179 2.03772 13.3333L8 13.913L13.9623 13.3333Z" fill="#FFDA44"/>
<path d="M2.03809 2.66666H13.9626C12.4978 1.03019 10.3695 0 8.00034 0C5.63118 0 3.5029 1.03019 2.03809 2.66666Z" fill="black"/>
<path d="M0 8.00018L8 8.69584L16 8.00018C16 7.06506 15.839 6.16762 15.5441 5.3335H0.455875C0.160969 6.16762 0 7.06506 0 8.00018H0Z" fill="#D80027"/>
<path d="M0.455875 10.6667H15.5442C15.839 9.83253 16 8.93512 16 8H0C0 8.93512 0.160969 9.83253 0.455875 10.6667Z" fill="black"/>
<path d="M13.9626 13.3335H2.03809C3.5029 14.97 5.63118 16.0002 8.00037 16.0002C10.3696 16.0002 12.4978 14.97 13.9626 13.3335Z" fill="#D80027"/>
<path d="M10.6692 8.00013C10.6692 9.4746 9.47411 10.6697 7.99964 10.6697C6.52517 10.6697 5.33008 9.4746 5.33008 8.00013C5.33008 6.52566 6.52517 5.33057 7.99964 5.33057C9.47411 5.33057 10.6692 6.52566 10.6692 8.00013Z" fill="#F0F0F0"/>
<path d="M8.97791 8.13609L7.99994 7.7123C7.99994 7.7123 8.22875 6.95284 8.24094 6.90087C8.24984 6.8629 8.25459 6.8233 8.25459 6.78262C8.25459 6.63852 8.19619 6.50809 8.10175 6.41371L8.34769 6.16777C8.19034 6.01043 7.97294 5.91309 7.73281 5.91309C7.49269 5.91309 7.27528 6.0104 7.11794 6.16777L7.36387 6.41371C7.26944 6.50812 7.21106 6.63855 7.21106 6.78262C7.21106 6.8353 7.21903 6.88609 7.23356 6.93405L6.86328 7.3043H7.53628C7.53628 7.3043 7.25803 7.72224 7.10612 8.06546C6.95422 8.40865 7.10822 8.82762 7.45928 8.98368L7.66228 9.0739L7.99994 9.39127V9.73909L7.65212 10.0869H8.34778V9.39124L8.66519 9.07384H9.32169C9.32484 9.06731 9.32816 9.06093 9.33116 9.05424C9.48712 8.70321 9.329 8.29209 8.97791 8.13609Z" fill="black"/>
</g>
<defs>
<clipPath id="clip0_6774_63894">
<rect width="16" height="16" fill="white"/>
</clipPath>
</defs>
</svg>
