<svg width="16" height="16" viewBox="0 0 16 16" fill="none" xmlns="http://www.w3.org/2000/svg">
<g clip-path="url(#clip0_6774_63981)">
<path d="M0.37775 5.56513C0.132688 6.33288 -3.12445e-05 7.15079 5.51734e-09 7.99982C-3.12445e-05 8.84888 0.132719 9.66685 0.377781 10.4346L8 10.7825L15.6222 10.4347C15.8673 9.66688 16 8.84888 16 7.99988C16 7.15082 15.8673 6.33288 15.6222 5.5651L8 5.21729L0.37775 5.56513Z" fill="#F0F0F0"/>
<path d="M15.6225 5.5651L8.00024 5.21729L0.377992 5.5651C0.305367 5.79272 0.242836 6.02482 0.19043 6.26075H15.8099C15.7576 6.02479 15.6951 5.79266 15.6225 5.5651Z" fill="#D80027"/>
<path d="M0.19043 9.73877C0.242773 9.97471 0.305305 10.2068 0.37793 10.4344L0.37868 10.4344L8.00012 10.7822L15.6223 10.4344C15.695 10.2068 15.7575 9.97471 15.8099 9.73877H0.19043Z" fill="#D80027"/>
<path d="M8.00012 15.9998C11.5694 15.9998 14.5922 13.6622 15.6223 10.4346H0.37793C1.40809 13.6622 4.43096 15.9998 8.00012 15.9998Z" fill="#6DA544"/>
<path d="M8.00015 3.13315e-10C4.43096 3.12503e-05 1.40815 2.33762 0.37793 5.56522L15.6223 5.56525C14.5922 2.33759 11.5694 -3.12497e-05 8.00015 3.13315e-10Z" fill="#338AF3"/>
<path d="M3.65616 3.30445C3.65616 2.55516 4.18276 1.92923 4.88598 1.77566C4.77791 1.75204 4.66576 1.73926 4.55057 1.73926C3.68613 1.73926 2.98535 2.44001 2.98535 3.30448C2.98535 4.16895 3.68607 4.8697 4.55057 4.8697C4.66576 4.8697 4.77788 4.85688 4.88598 4.83329C4.18279 4.67966 3.65616 4.05373 3.65616 3.30445Z" fill="#F0F0F0"/>
<path d="M5.81118 4.01611L5.91712 4.34221H6.25999L5.98262 4.54377L6.08855 4.86986L5.81118 4.66833L5.53374 4.86986L5.63971 4.54377L5.3623 4.34221H5.70518L5.81118 4.01611Z" fill="#F0F0F0"/>
<path d="M6.90584 4.01611L7.01181 4.34221H7.35469L7.07728 4.54377L7.18325 4.86986L6.90584 4.66833L6.62844 4.86986L6.73441 4.54377L6.45703 4.34221H6.79987L6.90584 4.01611Z" fill="#F0F0F0"/>
<path d="M7.99966 4.01611L8.10559 4.34221H8.4485L8.17109 4.54377L8.27703 4.86986L7.99966 4.66833L7.72222 4.86986L7.82822 4.54377L7.55078 4.34221H7.89369L7.99966 4.01611Z" fill="#F0F0F0"/>
<path d="M9.09438 4.01611L9.20035 4.34221H9.5432L9.26582 4.54377L9.37179 4.86986L9.09438 4.66833L8.81695 4.86986L8.92295 4.54377L8.64551 4.34221H8.98838L9.09438 4.01611Z" fill="#F0F0F0"/>
<path d="M10.189 4.01611L10.295 4.34221H10.6379L10.3605 4.54377L10.4665 4.86986L10.189 4.66833L9.91164 4.86986L10.0176 4.54377L9.74023 4.34221H10.0831L10.189 4.01611Z" fill="#F0F0F0"/>
<path d="M6.90584 2.87744L7.01181 3.2035H7.35469L7.07728 3.4051L7.18325 3.73116L6.90584 3.52963L6.62844 3.73116L6.73441 3.4051L6.45703 3.2035H6.79987L6.90584 2.87744Z" fill="#F0F0F0"/>
<path d="M7.99966 2.87744L8.10559 3.2035H8.4485L8.17109 3.4051L8.27703 3.73116L7.99966 3.52963L7.72222 3.73116L7.82822 3.4051L7.55078 3.2035H7.89369L7.99966 2.87744Z" fill="#F0F0F0"/>
<path d="M9.09438 2.87744L9.20035 3.2035H9.5432L9.26582 3.4051L9.37179 3.73116L9.09438 3.52963L8.81695 3.73116L8.92295 3.4051L8.64551 3.2035H8.98838L9.09438 2.87744Z" fill="#F0F0F0"/>
<path d="M10.189 2.87744L10.295 3.2035H10.6379L10.3605 3.4051L10.4665 3.73116L10.189 3.52963L9.91164 3.73116L10.0176 3.4051L9.74023 3.2035H10.0831L10.189 2.87744Z" fill="#F0F0F0"/>
<path d="M7.99966 1.73926L8.10559 2.06538H8.4485L8.17109 2.26691L8.27703 2.59304L7.99966 2.39151L7.72222 2.59304L7.82822 2.26691L7.55078 2.06538H7.89369L7.99966 1.73926Z" fill="#F0F0F0"/>
<path d="M9.09438 1.73926L9.20035 2.06538H9.5432L9.26582 2.26691L9.37179 2.59304L9.09438 2.39151L8.81695 2.59304L8.92295 2.26691L8.64551 2.06538H8.98838L9.09438 1.73926Z" fill="#F0F0F0"/>
<path d="M10.189 1.73926L10.295 2.06538H10.6379L10.3605 2.26691L10.4665 2.59304L10.189 2.39151L9.91164 2.59304L10.0176 2.26691L9.74023 2.06538H10.0831L10.189 1.73926Z" fill="#F0F0F0"/>
</g>
<defs>
<clipPath id="clip0_6774_63981">
<rect width="16" height="16" fill="white"/>
</clipPath>
</defs>
</svg>
