<svg width="16" height="16" viewBox="0 0 16 16" fill="none" xmlns="http://www.w3.org/2000/svg">
<g clip-path="url(#clip0_6774_64002)">
<path d="M16 8.00013C16 7.64647 15.9768 7.29822 15.9323 6.95666H6.95644C5.32204 5.32235 2.34301 2.34351 2.34314 2.34326C-0.781045 5.46744 -0.781045 10.5327 2.34314 13.657L6.95653 9.04362H15.9323C15.9767 8.70203 16 8.35378 16 8.00013Z" fill="black"/>
<path d="M15.9972 8.18164C15.9969 8.19708 15.9965 8.21258 15.9961 8.22802C15.9965 8.21252 15.9968 8.19708 15.9972 8.18164Z" fill="#F0F0F0"/>
<path d="M15.9899 8.40039C15.9892 8.41567 15.9881 8.43089 15.9873 8.44614C15.9881 8.43092 15.9891 8.41567 15.9899 8.40039Z" fill="#F0F0F0"/>
<path d="M15.9786 8.57471C15.977 8.59718 15.9754 8.61964 15.9736 8.64205C15.9754 8.61964 15.977 8.59718 15.9786 8.57471Z" fill="#F0F0F0"/>
<path d="M15.9521 7.12793C15.9551 7.15468 15.958 7.1814 15.9607 7.20821C15.958 7.18137 15.9551 7.15468 15.9521 7.12793Z" fill="#F0F0F0"/>
<path d="M15.9873 7.55371C15.9881 7.56896 15.9892 7.58418 15.9899 7.59946C15.9891 7.58418 15.9881 7.56893 15.9873 7.55371Z" fill="#F0F0F0"/>
<path d="M15.9961 7.77148C15.9965 7.78692 15.9968 7.80242 15.9972 7.81786C15.9969 7.80236 15.9965 7.78692 15.9961 7.77148Z" fill="#F0F0F0"/>
<path d="M15.9736 7.35742C15.9754 7.37983 15.977 7.4023 15.9786 7.42477C15.977 7.4023 15.9754 7.37983 15.9736 7.35742Z" fill="#F0F0F0"/>
<path d="M15.932 6.95649C15.9356 6.98389 15.9387 7.01146 15.942 7.03892C15.4672 3.07387 12.0927 0 7.9997 0C5.79052 0 3.79049 0.895467 2.34277 2.34325L6.95602 6.95652H15.932V6.95649Z" fill="#D80027"/>
<path d="M15.932 9.04337H6.95602L2.34277 13.6566C3.79049 15.1044 5.79052 15.9999 7.9997 15.9999C12.0927 15.9999 15.4672 12.926 15.942 8.96094C15.9387 8.98841 15.9355 9.01597 15.932 9.04337Z" fill="#6DA544"/>
<path d="M15.9607 8.7915C15.958 8.81832 15.9551 8.84504 15.9521 8.87179C15.9551 8.84504 15.9581 8.81835 15.9607 8.7915Z" fill="#F0F0F0"/>
<path d="M15.9795 7.4248C15.9825 7.46759 15.9853 7.51046 15.9876 7.55343C15.9852 7.51046 15.9825 7.46759 15.9795 7.4248Z" fill="black"/>
<path d="M15.9424 7.03906C15.946 7.06872 15.9494 7.09844 15.9526 7.12819C15.9493 7.09844 15.9459 7.06875 15.9424 7.03906Z" fill="black"/>
<path d="M15.9609 7.2085C15.9658 7.25815 15.9702 7.30793 15.9742 7.3579C15.9703 7.30793 15.9658 7.25812 15.9609 7.2085Z" fill="black"/>
<path d="M16.0003 8C16.0003 8.06084 15.9994 8.12144 15.998 8.18191C15.9994 8.12141 16.0003 8.06081 16.0003 8Z" fill="black"/>
<path d="M15.9876 8.44629C15.9852 8.48926 15.9825 8.53213 15.9795 8.57491C15.9825 8.53213 15.9852 8.48926 15.9876 8.44629Z" fill="black"/>
<path d="M15.9742 8.64209C15.9702 8.692 15.9658 8.74181 15.9609 8.79143C15.9658 8.74181 15.9703 8.692 15.9742 8.64209Z" fill="black"/>
<path d="M15.9526 8.87207C15.9494 8.90182 15.946 8.93151 15.9424 8.96119C15.9459 8.93154 15.9493 8.90182 15.9526 8.87207Z" fill="black"/>
<path d="M15.998 7.81787C15.9994 7.87837 16.0003 7.939 16.0003 7.99978C16.0003 7.939 15.9994 7.87837 15.998 7.81787Z" fill="black"/>
<path d="M15.9902 7.59961C15.993 7.65686 15.9952 7.71433 15.9968 7.77189C15.9952 7.7143 15.9931 7.65686 15.9902 7.59961Z" fill="black"/>
<path d="M15.9968 8.22852C15.9952 8.28608 15.993 8.34355 15.9902 8.4008C15.9931 8.34352 15.9952 8.28608 15.9968 8.22852Z" fill="black"/>
<path d="M15.9932 7.6491H6.66333L1.87093 2.85742C1.71602 3.0208 1.54812 3.24892 1.44427 3.41139L6.02736 7.99688L1.44043 12.5839C1.53124 12.7455 1.72909 12.9846 1.86799 13.1402L6.66342 8.34475H15.9943C15.9992 8.22938 16.0008 8.11351 16.0008 7.99694C16.0008 7.84076 15.9965 7.7256 15.9932 7.6491Z" fill="#FFDA44"/>
<path d="M1.94376 9.70511V9.03502C2.61244 9.03502 3.15641 8.49099 3.15641 7.82237C3.15641 7.34928 2.7715 6.9644 2.29844 6.9644C1.97616 6.9644 1.71394 7.22659 1.71394 7.54893C1.71394 7.75502 1.8816 7.92271 2.08772 7.92271C2.20422 7.92271 2.29901 7.82787 2.29901 7.71137H2.96907C2.96907 8.1974 2.57369 8.59277 2.08776 8.59277C1.51216 8.5928 1.04395 8.12449 1.04395 7.54899C1.04395 6.85721 1.60676 6.29443 2.29847 6.29443C3.14104 6.29443 3.82653 6.97993 3.82653 7.82246C3.8265 8.86049 2.98191 9.70511 1.94376 9.70511Z" fill="#FFDA44"/>
</g>
<defs>
<clipPath id="clip0_6774_64002">
<rect width="16" height="16" fill="white"/>
</clipPath>
</defs>
</svg>
