<svg width="16" height="16" viewBox="0 0 16 16" fill="none" xmlns="http://www.w3.org/2000/svg">
<g clip-path="url(#clip0_6774_64033)">
<path d="M15.2062 11.4783C15.7148 10.4266 16 9.24667 16 8.00008C16 6.75348 15.7148 5.57358 15.2062 4.52183L8 3.82617L0.793813 4.52183C0.285219 5.57358 0 6.75348 0 8.00008C0 9.24667 0.285219 10.4266 0.793813 11.4783L8 12.174L15.2062 11.4783Z" fill="#0052B4"/>
<path d="M8.00013 15.9998C11.1718 15.9998 13.9123 14.154 15.2063 11.478H0.793945C2.08795 14.154 4.82844 15.9998 8.00013 15.9998Z" fill="#D80027"/>
<path d="M13.8552 9.57064L13.4327 9.90082L13.6161 10.4046L13.1715 10.1048L12.7489 10.4349L12.8967 9.91948L12.4521 9.61961L12.9881 9.60092L13.1359 9.08545L13.3194 9.58932L13.8552 9.57064Z" fill="#F0F0F0"/>
<path d="M12.7733 7.6963L12.4892 8.15108L12.834 8.56177L12.3136 8.4322L12.0294 8.88686L11.992 8.35195L11.4717 8.22217L11.9689 8.02127L11.9316 7.48633L12.2762 7.89717L12.7733 7.6963Z" fill="#F0F0F0"/>
<path d="M11.1156 6.30566L11.0041 6.8302L11.4685 7.09832L10.9352 7.15454L10.8237 7.67891L10.6056 7.1891L10.0723 7.24507L10.4708 6.88626L10.2527 6.39645L10.7171 6.66451L11.1156 6.30566Z" fill="#F0F0F0"/>
<path d="M9.08157 5.56543L9.15629 6.09646L9.68432 6.18952L9.20238 6.42471L9.27704 6.95571L8.90454 6.56996L8.42248 6.80502L8.67429 6.33149L8.30176 5.9458L8.82988 6.0389L9.08157 5.56543Z" fill="#F0F0F0"/>
<path d="M6.91815 5.56543L7.16993 6.0389L7.69793 5.94574L7.32552 6.33159L7.57718 6.80509L7.09524 6.56996L6.72268 6.95562L6.7974 6.42471L6.31543 6.18965L6.84352 6.09646L6.91815 5.56543Z" fill="#F0F0F0"/>
<path d="M4.88409 6.30566L5.28266 6.66451L5.74694 6.39645L5.52891 6.88645L5.92737 7.2452L5.39409 7.1891L5.17591 7.67891L5.06456 7.15445L4.53125 7.09845L4.99562 6.83026L4.88409 6.30566Z" fill="#F0F0F0"/>
<path d="M3.22648 7.69669L3.72377 7.89757L4.06833 7.48682L4.03105 8.02185L4.52817 8.22275L4.00789 8.35241L3.97042 8.88725L3.68636 8.4326L3.16602 8.56225L3.5107 8.15147L3.22648 7.69669Z" fill="#F0F0F0"/>
<path d="M2.14453 9.57057L2.68053 9.58926L2.86384 9.08545L3.01181 9.60095L3.54766 9.61967L3.10309 9.91954L3.25084 10.435L2.82834 10.1049L2.38375 10.4046L2.56716 9.90076L2.14453 9.57057Z" fill="#F0F0F0"/>
<path d="M15.2063 4.52175C13.9123 1.84578 11.1718 0 8.00013 0C4.82844 0 2.08795 1.84578 0.793945 4.52175H15.2063Z" fill="#FFDA44"/>
</g>
<defs>
<clipPath id="clip0_6774_64033">
<rect width="16" height="16" fill="white"/>
</clipPath>
</defs>
</svg>
