<svg width="16" height="16" viewBox="0 0 16 16" fill="none" xmlns="http://www.w3.org/2000/svg">
<g clip-path="url(#clip0_6774_63905)">
<path d="M8 16C12.4183 16 16 12.4183 16 8C16 3.58172 12.4183 0 8 0C3.58172 0 0 3.58172 0 8C0 12.4183 3.58172 16 8 16Z" fill="#FCFCFC"/>
<path d="M9.35888 5.58916C9.35888 4.83878 8.75056 4.23047 8.00016 4.23047C7.24975 4.23047 6.64144 4.83878 6.64144 5.58916H3.65234C3.65234 6.32794 4.29591 6.92691 5.03469 6.92691H4.99019C4.99019 7.66575 5.58906 8.26475 6.32797 8.26475C6.32797 8.91891 6.79778 9.46247 7.41825 9.57866L7.41478 9.58647H8.58556L8.58209 9.57866C9.20259 9.46241 9.67237 8.91887 9.67237 8.26475C10.4112 8.26475 11.0102 7.66575 11.0102 6.92691H10.9656C11.7044 6.92691 12.348 6.32794 12.348 5.58916H9.35888Z" fill="#FFDA44"/>
<path d="M7.40298 9.44775L6.56055 11.3497C7.00505 11.5304 7.49089 11.6308 8.0003 11.6308C8.5097 11.6308 8.99555 11.5304 9.44002 11.3497L8.59761 9.44775H7.40298Z" fill="#FFDA44"/>
<path d="M6.26074 6.25732V8.59767C6.26074 9.92886 7.99987 10.3368 7.99987 10.3368C7.99987 10.3368 9.73899 9.92886 9.73899 8.59767V6.25732H6.26074Z" fill="#F0F0F0"/>
<path d="M1.93984 8.05615L2.88043 10.6869L3.81124 8.05615H4.52162L3.16455 11.5344H2.59627L1.22949 8.05615H1.93984Z" fill="#338AF3"/>
<path d="M12.8691 11.5344V8.05615H13.5452V11.5344H12.8691Z" fill="#338AF3"/>
<path d="M6.95605 7.0127V9.84876C7.19515 10.0247 7.4524 10.1458 7.65171 10.2233V7.0127H6.95605Z" fill="#D80027"/>
<path d="M9.04331 7.0127V9.84876C8.80422 10.0247 8.54697 10.1458 8.34766 10.2233V7.0127H9.04331Z" fill="#D80027"/>
<path d="M6.26074 6.25684H9.73899V7.36046H6.26074V6.25684Z" fill="#0052B4"/>
</g>
<defs>
<clipPath id="clip0_6774_63905">
<rect width="16" height="16" fill="white"/>
</clipPath>
</defs>
</svg>
