<svg width="16" height="16" viewBox="0 0 16 16" fill="none" xmlns="http://www.w3.org/2000/svg">
<g clip-path="url(#clip0_6774_64049)">
<path d="M8 16C12.4183 16 16 12.4183 16 8C16 3.58172 12.4183 0 8 0C3.58172 0 0 3.58172 0 8C0 12.4183 3.58172 16 8 16Z" fill="#F0F0F0"/>
<path d="M16 8C16 12.4183 12.4183 16 8 16C3.58175 16 0 12.4183 0 8" fill="#496E2D"/>
<path d="M13.8438 5.56686C13.5577 4.75552 12.7847 4.17383 11.8755 4.17383H10.0866C8.93401 4.17383 7.99963 5.1082 7.99963 6.2608C7.99963 6.63736 8.09988 6.99927 8.27435 7.30427C7.61007 7.29883 6.99529 7.30886 6.60832 7.30427C6.60832 6.49939 6.60832 5.47408 6.60832 5.25955L6.69051 5.17736C7.05945 4.80842 6.93641 4.19355 6.93641 4.19355C6.93641 4.19355 6.3216 4.07058 5.95266 4.43952L5.5227 4.86948H5.0431C3.98654 4.86948 3.13007 5.72598 3.13007 6.78252H4.52138V8.34773C4.52138 8.57667 4.56754 8.79477 4.65095 8.99339L4.17354 9.3912H3.47788V8.69555H2.78223V10.0869H5.91266V11.4782H5.21701V12.1738H6.60832V10.7825L7.24598 10.0173H8.75326L9.39091 10.7825V11.4782H8.69526V12.1738H11.4779V8.3477C11.4779 7.77142 11.945 7.30423 12.5213 7.30423C12.5361 7.30423 12.5508 7.30477 12.5655 7.30536C12.5367 7.19386 12.5213 7.07695 12.5213 6.95642C12.5214 6.21114 13.1074 5.60277 13.8438 5.56686ZM10.0866 11.4781V10.0173H10.1446L10.7822 10.7825V11.4781H10.0866Z" fill="#D80027"/>
</g>
<defs>
<clipPath id="clip0_6774_64049">
<rect width="16" height="16" fill="white"/>
</clipPath>
</defs>
</svg>
