<svg width="16" height="16" viewBox="0 0 16 16" fill="none" xmlns="http://www.w3.org/2000/svg">
<path fill-rule="evenodd" clip-rule="evenodd" d="M0.854284 7.57895H7.57895V5.57052C6.63157 5.53257 5.69792 5.36674 4.82276 5.07869C3.86233 4.76259 2.98925 4.3048 2.25594 3.72828C1.44618 4.81536 0.937744 6.14014 0.854284 7.57895ZM2.79802 3.08318C3.44269 3.58557 4.21899 3.99343 5.08603 4.2788C5.87433 4.53825 6.71882 4.69022 7.57895 4.72768V0.854284C5.69851 0.963362 4.01284 1.79835 2.79802 3.08318ZM8.42105 0.854284V4.72768C9.38142 4.68586 10.3199 4.50139 11.181 4.186C11.9425 3.90709 12.6255 3.53244 13.202 3.08318C11.9872 1.79835 10.3015 0.963362 8.42105 0.854284ZM13.7441 3.72828C13.0871 4.24478 12.3169 4.66677 11.4706 4.97673C10.5139 5.32715 9.47692 5.52823 8.42105 5.57052V7.57895H15.1457C15.0623 6.14014 14.5538 4.81536 13.7441 3.72828ZM15.1457 8.42105H8.42105V10.4295C9.49317 10.4724 10.5459 10.6791 11.515 11.0397C12.3443 11.3482 13.0989 11.7645 13.7441 12.2717C14.5538 11.1846 15.0623 9.85986 15.1457 8.42105ZM13.202 12.9168C12.6361 12.4759 11.9672 12.1064 11.2214 11.8289C10.3492 11.5044 9.39632 11.3148 8.42105 11.2723V15.1457C10.3015 15.0366 11.9872 14.2017 13.202 12.9168ZM7.57895 15.1457V11.2723C6.65191 11.3127 5.74406 11.486 4.90581 11.7827C4.10962 12.0646 3.3965 12.4504 2.79802 12.9168C4.01285 14.2017 5.69851 15.0366 7.57895 15.1457ZM2.25594 12.2717C2.93764 11.7358 3.74114 11.3017 4.62483 10.9889C5.55575 10.6594 6.559 10.4703 7.57895 10.4295V8.42105H0.854284C0.937744 9.85986 1.44618 11.1846 2.25594 12.2717ZM0 8C0 3.58172 3.58172 0 8 0C12.4183 0 16 3.58172 16 8C16 12.4183 12.4183 16 8 16C3.58172 16 0 12.4183 0 8Z" fill="#272932"/>
</svg>
