<svg width="16" height="16" viewBox="0 0 16 16" fill="none" xmlns="http://www.w3.org/2000/svg">
<g clip-path="url(#clip0_6774_62918)">
<path d="M8 16C12.4183 16 16 12.4183 16 8C16 3.58172 12.4183 0 8 0C3.58172 0 0 3.58172 0 8C0 12.4183 3.58172 16 8 16Z" fill="#F0F0F0"/>
<path d="M15.2342 4.58148C14.8277 3.72291 14.273 2.94845 13.603 2.29079L7.99988 1.73926L2.39675 2.29082C2.37887 2.30835 2.36144 2.32629 2.34375 2.34401L4.58125 4.58151L7.99988 4.68591L15.2342 4.58148Z" fill="#FFDA44"/>
<path d="M2.34375 13.6562C2.37319 13.6856 2.40256 13.7151 2.43244 13.7441L7.99997 14.2608L13.5674 13.7441C14.2443 13.0878 14.8058 12.3133 15.218 11.4534L4.8695 11.1304C3.97909 12.0208 2.95209 13.0477 2.34375 13.6562Z" fill="#FFDA44"/>
<path d="M15.9201 6.87223L6.6084 6.60889L7.99971 8.0002C7.58762 8.41229 6.97243 9.02748 6.6084 9.39151L15.9153 9.16295C15.9706 8.78329 15.9997 8.39517 15.9997 8.0002C15.9997 7.61726 15.9722 7.24082 15.9201 6.87223Z" fill="black"/>
<path d="M7.99961 0C5.81748 0 3.8398 0.874063 2.39648 2.29069H13.6027C12.1594 0.874063 10.1817 0 7.99961 0Z" fill="#6DA544"/>
<path d="M6.87272 6.87223H15.9211C15.807 6.06351 15.5721 5.2937 15.235 4.58154H4.58203L6.87272 6.87223Z" fill="#D80027"/>
<path d="M4.54688 11.4538H15.2184C15.5594 10.7421 15.7981 9.97224 15.9159 9.16309H6.83756C5.95047 10.0502 5.19866 10.802 4.54688 11.4538Z" fill="#D80027"/>
<path d="M8.00009 16C10.1643 16 12.1274 15.1403 13.5676 13.7441H2.43262C3.87274 15.1403 5.83587 16 8.00009 16Z" fill="#6DA544"/>
<path d="M2.85637 1.87305C2.67852 2.02248 2.50693 2.17914 2.34277 2.34323L7.99965 8.00011L2.34277 13.657C2.5069 13.8211 2.67852 13.9777 2.85637 14.1272L8.98343 8.00011L2.85637 1.87305Z" fill="black"/>
<path d="M3.21677 5.91309L3.73474 7.50734H5.41115L4.05496 8.49271L4.57296 10.087L3.21677 9.10168L1.86055 10.087L2.37862 8.49271L1.02246 7.50734H2.69877L3.21677 5.91309Z" fill="#D80027"/>
<path d="M4.64155 8.1303L3.29162 7.65205C3.29162 7.65205 3.19187 6.71634 3.18584 6.68462C3.14002 6.44327 2.92793 6.26074 2.67324 6.26074C2.38512 6.26074 2.15149 6.49434 2.15149 6.78249C2.15149 6.83027 2.15846 6.8763 2.17049 6.9203L1.79199 7.30134H2.46499C2.46499 7.99987 1.94374 7.99987 1.94374 8.69552L2.2329 9.39118H3.97202L4.2619 8.69552H4.26177C4.2908 8.62877 4.30843 8.55993 4.31571 8.49115C4.56559 8.39009 4.64155 8.1303 4.64155 8.1303Z" fill="#FFDA44"/>
</g>
<defs>
<clipPath id="clip0_6774_62918">
<rect width="16" height="16" fill="white"/>
</clipPath>
</defs>
</svg>
